<?xml version="1.0" encoding="UTF-8" standalone="no"?>
<!DOCTYPE svg PUBLIC "-//W3C//DTD SVG 1.1//EN"
 "http://www.w3.org/Graphics/SVG/1.1/DTD/svg11.dtd">
<!-- Generated by graphviz version 2.40.1 (20161225.0304)
 -->
<!-- Title: tree Pages: 1 -->
<svg width="2018pt" height="1778pt"
 viewBox="0.00 0.00 2018.48 1778.03" xmlns="http://www.w3.org/2000/svg" xmlns:xlink="http://www.w3.org/1999/xlink">
<g id="graph0" class="graph" transform="scale(1 1) rotate(0) translate(4 1774.0336)">
<title>tree</title>
<polygon fill="#ffffff" stroke="transparent" points="-4,4 -4,-1774.0336 2014.4752,-1774.0336 2014.4752,4 -4,4"/>
<g id="clust1" class="cluster">
<title>cluster_application</title>
<polygon fill="none" stroke="#000000" points="8,-380.0336 8,-872.0336 1291.7159,-872.0336 1291.7159,-380.0336 8,-380.0336"/>
<text text-anchor="middle" x="649.8579" y="-855.4336" font-family="Times,serif" font-size="14.00" fill="#000000">application.js</text>
</g>
<g id="clust2" class="cluster">
<title>cluster_application_settings</title>
<polygon fill="none" stroke="#000000" points="1169.3179,-880.0336 1169.3179,-1494.0336 1650.7156,-1494.0336 1650.7156,-880.0336 1169.3179,-880.0336"/>
<text text-anchor="middle" x="1410.0167" y="-1477.4336" font-family="Times,serif" font-size="14.00" fill="#000000">default settings</text>
</g>
<g id="clust3" class="cluster">
<title>cluster_utils</title>
<polygon fill="none" stroke="#000000" points="1431.8443,-1502.0336 1431.8443,-1689.0336 2002.4752,-1689.0336 2002.4752,-1502.0336 1431.8443,-1502.0336"/>
<text text-anchor="middle" x="1717.1597" y="-1672.4336" font-family="Times,serif" font-size="14.00" fill="#000000">utils.js</text>
</g>
<g id="clust4" class="cluster">
<title>cluster_view</title>
<polygon fill="none" stroke="#000000" points="1472.6676,-1697.0336 1472.6676,-1762.0336 1885.8265,-1762.0336 1885.8265,-1697.0336 1472.6676,-1697.0336"/>
<text text-anchor="middle" x="1679.2471" y="-1745.4336" font-family="Times,serif" font-size="14.00" fill="#000000">view.js</text>
</g>
<g id="clust5" class="cluster">
<title>cluster_Router</title>
<polygon fill="none" stroke="#000000" points="671.5266,-35.0336 671.5266,-344.0336 778.5554,-344.0336 778.5554,-35.0336 671.5266,-35.0336"/>
<text text-anchor="middle" x="725.041" y="-327.4336" font-family="Times,serif" font-size="14.00" fill="#000000">router/index.js</text>
</g>
<!-- this._router -->
<g id="node1" class="node">
<title>this._router</title>
<path fill="#e5e5e5" stroke="#000000" d="M488.2469,-412.3344C488.2469,-412.3344 424.3433,-412.3344 424.3433,-412.3344 420.243,-412.3344 416.1428,-408.2341 416.1428,-404.1338 416.1428,-404.1338 416.1428,-395.9333 416.1428,-395.9333 416.1428,-391.833 420.243,-387.7328 424.3433,-387.7328 424.3433,-387.7328 488.2469,-387.7328 488.2469,-387.7328 492.3472,-387.7328 496.4474,-391.833 496.4474,-395.9333 496.4474,-395.9333 496.4474,-404.1338 496.4474,-404.1338 496.4474,-408.2341 492.3472,-412.3344 488.2469,-412.3344"/>
<text text-anchor="middle" x="456.2951" y="-395.8336" font-family="Times,serif" font-size="14.00" fill="#000000">this._router</text>
</g>
<!-- 遍历，给每个路由引用传入的中间件方法fn.handle -->
<g id="node22" class="node">
<title>遍历，给每个路由引用传入的中间件方法fn.handle</title>
<path fill="#e5e5e5" stroke="#000000" d="M891.8021,-412.3344C891.8021,-412.3344 558.2799,-412.3344 558.2799,-412.3344 554.1797,-412.3344 550.0794,-408.2341 550.0794,-404.1338 550.0794,-404.1338 550.0794,-395.9333 550.0794,-395.9333 550.0794,-391.833 554.1797,-387.7328 558.2799,-387.7328 558.2799,-387.7328 891.8021,-387.7328 891.8021,-387.7328 895.9023,-387.7328 900.0026,-391.833 900.0026,-395.9333 900.0026,-395.9333 900.0026,-404.1338 900.0026,-404.1338 900.0026,-408.2341 895.9023,-412.3344 891.8021,-412.3344"/>
<text text-anchor="middle" x="725.041" y="-395.8336" font-family="Times,serif" font-size="14.00" fill="#000000">遍历，给每个路由引用传入的中间件方法fn.handle</text>
</g>
<!-- this._router&#45;&gt;遍历，给每个路由引用传入的中间件方法fn.handle -->
<g id="edge14" class="edge">
<title>this._router&#45;&gt;遍历，给每个路由引用传入的中间件方法fn.handle</title>
<path fill="none" stroke="#ff0000" d="M496.5291,-400.0336C509.1402,-400.0336 523.9745,-400.0336 539.9271,-400.0336"/>
<polygon fill="#ff0000" stroke="#ff0000" points="539.9946,-403.5337 549.9946,-400.0336 539.9946,-396.5337 539.9946,-403.5337"/>
</g>
<!-- router.use -->
<g id="node43" class="node">
<title>router.use</title>
<path fill="#e5e5e5" stroke="#000000" d="M752.4273,-250.3344C752.4273,-250.3344 697.6547,-250.3344 697.6547,-250.3344 693.5545,-250.3344 689.4542,-246.2341 689.4542,-242.1338 689.4542,-242.1338 689.4542,-233.9333 689.4542,-233.9333 689.4542,-229.833 693.5545,-225.7328 697.6547,-225.7328 697.6547,-225.7328 752.4273,-225.7328 752.4273,-225.7328 756.5275,-225.7328 760.6278,-229.833 760.6278,-233.9333 760.6278,-233.9333 760.6278,-242.1338 760.6278,-242.1338 760.6278,-246.2341 756.5275,-250.3344 752.4273,-250.3344"/>
<text text-anchor="middle" x="725.041" y="-233.8336" font-family="Times,serif" font-size="14.00" fill="#000000">router.use</text>
</g>
<!-- this._router&#45;&gt;router.use -->
<g id="edge36" class="edge">
<title>this._router&#45;&gt;router.use</title>
<path fill="none" stroke="#000000" d="M461.3392,-387.4552C472.742,-360.7798 503.2135,-298.5646 550.0602,-269.0336 588.9455,-244.5212 641.8386,-238.0408 679.263,-236.9061"/>
<polygon fill="#000000" stroke="#000000" points="679.451,-240.4033 689.3839,-236.7172 679.3203,-233.4045 679.451,-240.4033"/>
</g>
<!-- this.settings -->
<g id="node2" class="node">
<title>this.settings</title>
<path fill="#e5e5e5" stroke="#000000" d="M1275.2676,-778.3344C1275.2676,-778.3344 1209.6628,-778.3344 1209.6628,-778.3344 1205.5626,-778.3344 1201.4623,-774.2341 1201.4623,-770.1338 1201.4623,-770.1338 1201.4623,-761.9333 1201.4623,-761.9333 1201.4623,-757.833 1205.5626,-753.7328 1209.6628,-753.7328 1209.6628,-753.7328 1275.2676,-753.7328 1275.2676,-753.7328 1279.3678,-753.7328 1283.4681,-757.833 1283.4681,-761.9333 1283.4681,-761.9333 1283.4681,-770.1338 1283.4681,-770.1338 1283.4681,-774.2341 1279.3678,-778.3344 1275.2676,-778.3344"/>
<text text-anchor="middle" x="1242.4652" y="-761.8336" font-family="Times,serif" font-size="14.00" fill="#000000">this.settings</text>
</g>
<!-- this.cache -->
<g id="node3" class="node">
<title>this.cache</title>
<path fill="#e5e5e5" stroke="#000000" d="M273.1671,-839.3344C273.1671,-839.3344 218.3973,-839.3344 218.3973,-839.3344 214.2971,-839.3344 210.1968,-835.2341 210.1968,-831.1338 210.1968,-831.1338 210.1968,-822.9333 210.1968,-822.9333 210.1968,-818.833 214.2971,-814.7328 218.3973,-814.7328 218.3973,-814.7328 273.1671,-814.7328 273.1671,-814.7328 277.2673,-814.7328 281.3676,-818.833 281.3676,-822.9333 281.3676,-822.9333 281.3676,-831.1338 281.3676,-831.1338 281.3676,-835.2341 277.2673,-839.3344 273.1671,-839.3344"/>
<text text-anchor="middle" x="245.7822" y="-822.8336" font-family="Times,serif" font-size="14.00" fill="#000000">this.cache</text>
</g>
<!-- this.engines -->
<g id="node4" class="node">
<title>this.engines</title>
<path fill="#e5e5e5" stroke="#000000" d="M489.5862,-839.3344C489.5862,-839.3344 423.004,-839.3344 423.004,-839.3344 418.9037,-839.3344 414.8034,-835.2341 414.8034,-831.1338 414.8034,-831.1338 414.8034,-822.9333 414.8034,-822.9333 414.8034,-818.833 418.9037,-814.7328 423.004,-814.7328 423.004,-814.7328 489.5862,-814.7328 489.5862,-814.7328 493.6865,-814.7328 497.7868,-818.833 497.7868,-822.9333 497.7868,-822.9333 497.7868,-831.1338 497.7868,-831.1338 497.7868,-835.2341 493.6865,-839.3344 489.5862,-839.3344"/>
<text text-anchor="middle" x="456.2951" y="-822.8336" font-family="Times,serif" font-size="14.00" fill="#000000">this.engines</text>
</g>
<!-- view.View -->
<g id="node52" class="node">
<title>view.View</title>
<path fill="#e5e5e5" stroke="#000000" d="M1549.5124,-1729.3344C1549.5124,-1729.3344 1488.853,-1729.3344 1488.853,-1729.3344 1484.7528,-1729.3344 1480.6525,-1725.2341 1480.6525,-1721.1338 1480.6525,-1721.1338 1480.6525,-1712.9333 1480.6525,-1712.9333 1480.6525,-1708.833 1484.7528,-1704.7328 1488.853,-1704.7328 1488.853,-1704.7328 1549.5124,-1704.7328 1549.5124,-1704.7328 1553.6126,-1704.7328 1557.7129,-1708.833 1557.7129,-1712.9333 1557.7129,-1712.9333 1557.7129,-1721.1338 1557.7129,-1721.1338 1557.7129,-1725.2341 1553.6126,-1729.3344 1549.5124,-1729.3344"/>
<text text-anchor="middle" x="1519.1827" y="-1712.8336" font-family="Times,serif" font-size="14.00" fill="#000000">view.View</text>
</g>
<!-- this.engines&#45;&gt;view.View -->
<g id="edge47" class="edge">
<title>this.engines&#45;&gt;view.View</title>
<path fill="none" stroke="#ff0000" d="M467.0605,-839.3456C528.0162,-908.7408 837.3469,-1256.6831 1125.2806,-1503.0336 1237.8567,-1599.3515 1258.5462,-1641.881 1395.6498,-1698.0336 1419.2634,-1707.7048 1447.25,-1712.5001 1470.6091,-1714.8584"/>
<polygon fill="#ff0000" stroke="#ff0000" points="1470.3748,-1718.3513 1480.6461,-1715.7531 1470.9964,-1711.3789 1470.3748,-1718.3513"/>
</g>
<!-- init -->
<g id="node5" class="node">
<title>init</title>
<path fill="#e5e5e5" stroke="#000000" d="M465.2679,-595.3344C465.2679,-595.3344 447.3223,-595.3344 447.3223,-595.3344 443.222,-595.3344 439.1218,-591.2341 439.1218,-587.1338 439.1218,-587.1338 439.1218,-578.9333 439.1218,-578.9333 439.1218,-574.833 443.222,-570.7328 447.3223,-570.7328 447.3223,-570.7328 465.2679,-570.7328 465.2679,-570.7328 469.3682,-570.7328 473.4684,-574.833 473.4684,-578.9333 473.4684,-578.9333 473.4684,-587.1338 473.4684,-587.1338 473.4684,-591.2341 469.3682,-595.3344 465.2679,-595.3344"/>
<text text-anchor="middle" x="456.2951" y="-578.8336" font-family="Times,serif" font-size="14.00" fill="#000000">init</text>
</g>
<!-- defaultConfiguration -->
<g id="node6" class="node">
<title>defaultConfiguration</title>
<path fill="#e5e5e5" stroke="#000000" d="M783.7563,-595.3344C783.7563,-595.3344 666.3257,-595.3344 666.3257,-595.3344 662.2254,-595.3344 658.1252,-591.2341 658.1252,-587.1338 658.1252,-587.1338 658.1252,-578.9333 658.1252,-578.9333 658.1252,-574.833 662.2254,-570.7328 666.3257,-570.7328 666.3257,-570.7328 783.7563,-570.7328 783.7563,-570.7328 787.8566,-570.7328 791.9568,-574.833 791.9568,-578.9333 791.9568,-578.9333 791.9568,-587.1338 791.9568,-587.1338 791.9568,-591.2341 787.8566,-595.3344 783.7563,-595.3344"/>
<text text-anchor="middle" x="725.041" y="-578.8336" font-family="Times,serif" font-size="14.00" fill="#000000">defaultConfiguration</text>
</g>
<!-- init&#45;&gt;defaultConfiguration -->
<g id="edge20" class="edge">
<title>init&#45;&gt;defaultConfiguration</title>
<path fill="none" stroke="#000000" d="M473.5152,-583.0336C508.0121,-583.0336 587.4605,-583.0336 647.9053,-583.0336"/>
<polygon fill="#000000" stroke="#000000" points="648.1926,-586.5337 658.1926,-583.0336 648.1925,-579.5337 648.1926,-586.5337"/>
</g>
<!-- set -->
<g id="node7" class="node">
<title>set</title>
<path fill="#e5e5e5" stroke="#000000" d="M1020.0036,-778.3344C1020.0036,-778.3344 1005.2988,-778.3344 1005.2988,-778.3344 1001.1985,-778.3344 997.0982,-774.2341 997.0982,-770.1338 997.0982,-770.1338 997.0982,-761.9333 997.0982,-761.9333 997.0982,-757.833 1001.1985,-753.7328 1005.2988,-753.7328 1005.2988,-753.7328 1020.0036,-753.7328 1020.0036,-753.7328 1024.1039,-753.7328 1028.2042,-757.833 1028.2042,-761.9333 1028.2042,-761.9333 1028.2042,-770.1338 1028.2042,-770.1338 1028.2042,-774.2341 1024.1039,-778.3344 1020.0036,-778.3344"/>
<text text-anchor="middle" x="1012.6512" y="-761.8336" font-family="Times,serif" font-size="14.00" fill="#000000">set</text>
</g>
<!-- defaultConfiguration&#45;&gt;set -->
<g id="edge21" class="edge">
<title>defaultConfiguration&#45;&gt;set</title>
<path fill="none" stroke="#000000" d="M791.9491,-583.3052C826.4382,-586.1909 867.8857,-594.1438 900.0218,-614.0336 951.3998,-645.8326 987.0992,-710.4251 1003.1213,-744.2565"/>
<polygon fill="#000000" stroke="#000000" points="1000.1032,-746.0714 1007.4575,-753.6981 1006.4644,-743.1498 1000.1032,-746.0714"/>
</g>
<!-- on:mount -->
<g id="node31" class="node">
<title>on:mount</title>
<path fill="#e5e5e5" stroke="#000000" d="M1039.1232,-372.3344C1039.1232,-372.3344 986.1792,-372.3344 986.1792,-372.3344 982.0789,-372.3344 977.9786,-368.2341 977.9786,-364.1338 977.9786,-364.1338 977.9786,-355.9333 977.9786,-355.9333 977.9786,-351.833 982.0789,-347.7328 986.1792,-347.7328 986.1792,-347.7328 1039.1232,-347.7328 1039.1232,-347.7328 1043.2235,-347.7328 1047.3238,-351.833 1047.3238,-355.9333 1047.3238,-355.9333 1047.3238,-364.1338 1047.3238,-364.1338 1047.3238,-368.2341 1043.2235,-372.3344 1039.1232,-372.3344"/>
<text text-anchor="middle" x="1012.6512" y="-355.8336" font-family="Times,serif" font-size="14.00" fill="#000000">on:mount</text>
</g>
<!-- defaultConfiguration&#45;&gt;on:mount -->
<g id="edge22" class="edge">
<title>defaultConfiguration&#45;&gt;on:mount</title>
<path fill="none" stroke="#000000" d="M768.5849,-570.7102C808.2558,-557.3223 865.7319,-532.1543 900.0218,-491.0336 934.3214,-449.9011 896.3501,-412.0128 936.0218,-376.0336 944.7424,-368.1246 956.3354,-363.7361 967.8583,-361.3911"/>
<polygon fill="#000000" stroke="#000000" points="968.5546,-364.8248 977.8925,-359.8193 967.4713,-357.9092 968.5546,-364.8248"/>
</g>
<!-- set&#45;&gt;this.settings -->
<g id="edge25" class="edge">
<title>set&#45;&gt;this.settings</title>
<path fill="none" stroke="#000000" d="M1028.4472,-766.0336C1061.4369,-766.0336 1138.9045,-766.0336 1191.0116,-766.0336"/>
<polygon fill="#000000" stroke="#000000" points="1191.0742,-769.5337 1201.0742,-766.0336 1191.0742,-762.5337 1191.0742,-769.5337"/>
</g>
<!-- etag -->
<g id="node34" class="node">
<title>etag</title>
<path fill="#e5e5e5" stroke="#000000" d="M1254.0858,-1400.3344C1254.0858,-1400.3344 1230.8446,-1400.3344 1230.8446,-1400.3344 1226.7444,-1400.3344 1222.6441,-1396.2341 1222.6441,-1392.1338 1222.6441,-1392.1338 1222.6441,-1383.9333 1222.6441,-1383.9333 1222.6441,-1379.833 1226.7444,-1375.7328 1230.8446,-1375.7328 1230.8446,-1375.7328 1254.0858,-1375.7328 1254.0858,-1375.7328 1258.186,-1375.7328 1262.2863,-1379.833 1262.2863,-1383.9333 1262.2863,-1383.9333 1262.2863,-1392.1338 1262.2863,-1392.1338 1262.2863,-1396.2341 1258.186,-1400.3344 1254.0858,-1400.3344"/>
<text text-anchor="middle" x="1242.4652" y="-1383.8336" font-family="Times,serif" font-size="14.00" fill="#000000">etag</text>
</g>
<!-- set&#45;&gt;etag -->
<g id="edge26" class="edge">
<title>set&#45;&gt;etag</title>
<path fill="none" stroke="#000000" d="M1013.2702,-778.5549C1017.3444,-855.9236 1042.7583,-1268.4961 1125.2806,-1357.0336 1147.4759,-1380.8468 1185.6342,-1387.2004 1212.3604,-1388.4997"/>
<polygon fill="#000000" stroke="#000000" points="1212.5928,-1392.0073 1222.6846,-1388.7814 1212.7838,-1385.0099 1212.5928,-1392.0073"/>
</g>
<!-- query parser -->
<g id="node36" class="node">
<title>query parser</title>
<path fill="#e5e5e5" stroke="#000000" d="M1276.8359,-1339.3344C1276.8359,-1339.3344 1208.0945,-1339.3344 1208.0945,-1339.3344 1203.9942,-1339.3344 1199.8939,-1335.2341 1199.8939,-1331.1338 1199.8939,-1331.1338 1199.8939,-1322.9333 1199.8939,-1322.9333 1199.8939,-1318.833 1203.9942,-1314.7328 1208.0945,-1314.7328 1208.0945,-1314.7328 1276.8359,-1314.7328 1276.8359,-1314.7328 1280.9362,-1314.7328 1285.0365,-1318.833 1285.0365,-1322.9333 1285.0365,-1322.9333 1285.0365,-1331.1338 1285.0365,-1331.1338 1285.0365,-1335.2341 1280.9362,-1339.3344 1276.8359,-1339.3344"/>
<text text-anchor="middle" x="1242.4652" y="-1322.8336" font-family="Times,serif" font-size="14.00" fill="#000000">query parser</text>
</g>
<!-- set&#45;&gt;query parser -->
<g id="edge28" class="edge">
<title>set&#45;&gt;query parser</title>
<path fill="none" stroke="#000000" d="M1013.5561,-778.4246C1019.0799,-850.7175 1050.53,-1217.51 1125.2806,-1296.0336 1141.9015,-1313.4935 1167.1106,-1321.535 1189.8943,-1325.091"/>
<polygon fill="#000000" stroke="#000000" points="1189.444,-1328.5619 1199.814,-1326.391 1190.3536,-1321.6212 1189.444,-1328.5619"/>
</g>
<!-- trust proxy -->
<g id="node38" class="node">
<title>trust proxy</title>
<path fill="#e5e5e5" stroke="#000000" d="M1272.8117,-1278.3344C1272.8117,-1278.3344 1212.1187,-1278.3344 1212.1187,-1278.3344 1208.0185,-1278.3344 1203.9182,-1274.2341 1203.9182,-1270.1338 1203.9182,-1270.1338 1203.9182,-1261.9333 1203.9182,-1261.9333 1203.9182,-1257.833 1208.0185,-1253.7328 1212.1187,-1253.7328 1212.1187,-1253.7328 1272.8117,-1253.7328 1272.8117,-1253.7328 1276.9119,-1253.7328 1281.0122,-1257.833 1281.0122,-1261.9333 1281.0122,-1261.9333 1281.0122,-1270.1338 1281.0122,-1270.1338 1281.0122,-1274.2341 1276.9119,-1278.3344 1272.8117,-1278.3344"/>
<text text-anchor="middle" x="1242.4652" y="-1261.8336" font-family="Times,serif" font-size="14.00" fill="#000000">trust proxy</text>
</g>
<!-- set&#45;&gt;trust proxy -->
<g id="edge30" class="edge">
<title>set&#45;&gt;trust proxy</title>
<path fill="none" stroke="#000000" d="M1013.9561,-778.7382C1021.1827,-846.6835 1058.4108,-1166.6126 1125.2806,-1235.0336 1143.0265,-1253.1912 1170.0728,-1261.1194 1193.7119,-1264.4272"/>
<polygon fill="#000000" stroke="#000000" points="1193.6055,-1267.9382 1203.9414,-1265.6103 1194.4098,-1260.9845 1193.6055,-1267.9382"/>
</g>
<!-- enable -->
<g id="node8" class="node">
<title>enable</title>
<path fill="#e5e5e5" stroke="#000000" d="M474.131,-778.3344C474.131,-778.3344 438.4592,-778.3344 438.4592,-778.3344 434.3589,-778.3344 430.2587,-774.2341 430.2587,-770.1338 430.2587,-770.1338 430.2587,-761.9333 430.2587,-761.9333 430.2587,-757.833 434.3589,-753.7328 438.4592,-753.7328 438.4592,-753.7328 474.131,-753.7328 474.131,-753.7328 478.2313,-753.7328 482.3315,-757.833 482.3315,-761.9333 482.3315,-761.9333 482.3315,-770.1338 482.3315,-770.1338 482.3315,-774.2341 478.2313,-778.3344 474.131,-778.3344"/>
<text text-anchor="middle" x="456.2951" y="-761.8336" font-family="Times,serif" font-size="14.00" fill="#000000">enable</text>
</g>
<!-- 设置为true -->
<g id="node9" class="node">
<title>设置为true</title>
<path fill="#e5e5e5" stroke="#000000" d="M765.5996,-778.3344C765.5996,-778.3344 684.4824,-778.3344 684.4824,-778.3344 680.3821,-778.3344 676.2819,-774.2341 676.2819,-770.1338 676.2819,-770.1338 676.2819,-761.9333 676.2819,-761.9333 676.2819,-757.833 680.3821,-753.7328 684.4824,-753.7328 684.4824,-753.7328 765.5996,-753.7328 765.5996,-753.7328 769.6999,-753.7328 773.8001,-757.833 773.8001,-761.9333 773.8001,-761.9333 773.8001,-770.1338 773.8001,-770.1338 773.8001,-774.2341 769.6999,-778.3344 765.5996,-778.3344"/>
<text text-anchor="middle" x="725.041" y="-761.8336" font-family="Times,serif" font-size="14.00" fill="#000000">设置为true</text>
</g>
<!-- enable&#45;&gt;设置为true -->
<g id="edge1" class="edge">
<title>enable&#45;&gt;设置为true</title>
<path fill="none" stroke="#000000" d="M482.5529,-766.0336C524.7657,-766.0336 608.7669,-766.0336 665.9361,-766.0336"/>
<polygon fill="#000000" stroke="#000000" points="666.2825,-769.5337 676.2825,-766.0336 666.2824,-762.5337 666.2825,-769.5337"/>
</g>
<!-- 设置为true&#45;&gt;set -->
<g id="edge2" class="edge">
<title>设置为true&#45;&gt;set</title>
<path fill="none" stroke="#000000" d="M773.8301,-766.0336C835.3856,-766.0336 938.9824,-766.0336 986.9053,-766.0336"/>
<polygon fill="#000000" stroke="#000000" points="987.0446,-769.5337 997.0445,-766.0336 987.0445,-762.5337 987.0446,-769.5337"/>
</g>
<!-- disable -->
<g id="node10" class="node">
<title>disable</title>
<path fill="#e5e5e5" stroke="#000000" d="M475.7506,-717.3344C475.7506,-717.3344 436.8396,-717.3344 436.8396,-717.3344 432.7393,-717.3344 428.639,-713.2341 428.639,-709.1338 428.639,-709.1338 428.639,-700.9333 428.639,-700.9333 428.639,-696.833 432.7393,-692.7328 436.8396,-692.7328 436.8396,-692.7328 475.7506,-692.7328 475.7506,-692.7328 479.8509,-692.7328 483.9512,-696.833 483.9512,-700.9333 483.9512,-700.9333 483.9512,-709.1338 483.9512,-709.1338 483.9512,-713.2341 479.8509,-717.3344 475.7506,-717.3344"/>
<text text-anchor="middle" x="456.2951" y="-700.8336" font-family="Times,serif" font-size="14.00" fill="#000000">disable</text>
</g>
<!-- 设置为false -->
<g id="node11" class="node">
<title>设置为false</title>
<path fill="#e5e5e5" stroke="#000000" d="M767.7585,-717.3344C767.7585,-717.3344 682.3235,-717.3344 682.3235,-717.3344 678.2232,-717.3344 674.123,-713.2341 674.123,-709.1338 674.123,-709.1338 674.123,-700.9333 674.123,-700.9333 674.123,-696.833 678.2232,-692.7328 682.3235,-692.7328 682.3235,-692.7328 767.7585,-692.7328 767.7585,-692.7328 771.8588,-692.7328 775.959,-696.833 775.959,-700.9333 775.959,-700.9333 775.959,-709.1338 775.959,-709.1338 775.959,-713.2341 771.8588,-717.3344 767.7585,-717.3344"/>
<text text-anchor="middle" x="725.041" y="-700.8336" font-family="Times,serif" font-size="14.00" fill="#000000">设置为false</text>
</g>
<!-- disable&#45;&gt;设置为false -->
<g id="edge3" class="edge">
<title>disable&#45;&gt;设置为false</title>
<path fill="none" stroke="#000000" d="M484.0434,-705.0336C526.1483,-705.0336 607.2345,-705.0336 663.6632,-705.0336"/>
<polygon fill="#000000" stroke="#000000" points="663.8978,-708.5337 673.8978,-705.0336 663.8977,-701.5337 663.8978,-708.5337"/>
</g>
<!-- 设置为false&#45;&gt;set -->
<g id="edge4" class="edge">
<title>设置为false&#45;&gt;set</title>
<path fill="none" stroke="#000000" d="M776.1851,-712.9182C811.1977,-718.6033 858.6032,-726.8659 900.0218,-736.0336 930.2111,-742.7157 964.4875,-752.1089 987.2166,-758.5962"/>
<polygon fill="#000000" stroke="#000000" points="986.5065,-762.0339 997.0845,-761.4375 988.4434,-755.3072 986.5065,-762.0339"/>
</g>
<!-- methods -->
<g id="node12" class="node">
<title>methods</title>
<path fill="#e5e5e5" stroke="#000000" d="M78.2586,-595.3344C78.2586,-595.3344 30.7758,-595.3344 30.7758,-595.3344 26.6755,-595.3344 22.5753,-591.2341 22.5753,-587.1338 22.5753,-587.1338 22.5753,-578.9333 22.5753,-578.9333 22.5753,-574.833 26.6755,-570.7328 30.7758,-570.7328 30.7758,-570.7328 78.2586,-570.7328 78.2586,-570.7328 82.3589,-570.7328 86.4591,-574.833 86.4591,-578.9333 86.4591,-578.9333 86.4591,-587.1338 86.4591,-587.1338 86.4591,-591.2341 82.3589,-595.3344 78.2586,-595.3344"/>
<text text-anchor="middle" x="54.5172" y="-578.8336" font-family="Times,serif" font-size="14.00" fill="#000000">methods</text>
</g>
<!-- get,post... -->
<g id="node13" class="node">
<title>get,post...</title>
<path fill="#e5e5e5" stroke="#000000" d="M273.0235,-542.3344C273.0235,-542.3344 218.5409,-542.3344 218.5409,-542.3344 214.4407,-542.3344 210.3404,-538.2341 210.3404,-534.1338 210.3404,-534.1338 210.3404,-525.9333 210.3404,-525.9333 210.3404,-521.833 214.4407,-517.7328 218.5409,-517.7328 218.5409,-517.7328 273.0235,-517.7328 273.0235,-517.7328 277.1237,-517.7328 281.224,-521.833 281.224,-525.9333 281.224,-525.9333 281.224,-534.1338 281.224,-534.1338 281.224,-538.2341 277.1237,-542.3344 273.0235,-542.3344"/>
<text text-anchor="middle" x="245.7822" y="-525.8336" font-family="Times,serif" font-size="14.00" fill="#000000">get,post...</text>
</g>
<!-- methods&#45;&gt;get,post... -->
<g id="edge5" class="edge">
<title>methods&#45;&gt;get,post...</title>
<path fill="none" stroke="#ff0000" d="M86.5307,-574.1626C117.6971,-565.5263 165.362,-552.3182 200.4263,-542.6018"/>
<polygon fill="#ff0000" stroke="#ff0000" points="201.7116,-545.8776 210.4138,-539.8342 199.8423,-539.1318 201.7116,-545.8776"/>
</g>
<!-- route -->
<g id="node46" class="node">
<title>route</title>
<path fill="#e5e5e5" stroke="#000000" d="M739.1069,-128.3344C739.1069,-128.3344 710.9751,-128.3344 710.9751,-128.3344 706.8749,-128.3344 702.7746,-124.2341 702.7746,-120.1338 702.7746,-120.1338 702.7746,-111.9333 702.7746,-111.9333 702.7746,-107.833 706.8749,-103.7328 710.9751,-103.7328 710.9751,-103.7328 739.1069,-103.7328 739.1069,-103.7328 743.2071,-103.7328 747.3074,-107.833 747.3074,-111.9333 747.3074,-111.9333 747.3074,-120.1338 747.3074,-120.1338 747.3074,-124.2341 743.2071,-128.3344 739.1069,-128.3344"/>
<text text-anchor="middle" x="725.041" y="-111.8336" font-family="Times,serif" font-size="14.00" fill="#000000">route</text>
</g>
<!-- methods&#45;&gt;route -->
<g id="edge39" class="edge">
<title>methods&#45;&gt;route</title>
<path fill="none" stroke="#000000" d="M75.7876,-570.6061C82.3835,-565.6736 88.9786,-559.4034 93.0344,-552.0336 127.2169,-489.921 81.2861,-287.4408 129.0344,-235.0336 167.8364,-192.4455 574.2495,-135.9087 692.7706,-120.223"/>
<polygon fill="#000000" stroke="#000000" points="693.2397,-123.6915 702.6971,-118.9159 692.3257,-116.7514 693.2397,-123.6915"/>
</g>
<!-- 基于methods模块 -->
<g id="node14" class="node">
<title>基于methods模块</title>
<path fill="#e5e5e5" stroke="#000000" d="M505.6257,-534.3344C505.6257,-534.3344 406.9645,-534.3344 406.9645,-534.3344 402.8642,-534.3344 398.7639,-530.2341 398.7639,-526.1338 398.7639,-526.1338 398.7639,-517.9333 398.7639,-517.9333 398.7639,-513.833 402.8642,-509.7328 406.9645,-509.7328 406.9645,-509.7328 505.6257,-509.7328 505.6257,-509.7328 509.726,-509.7328 513.8263,-513.833 513.8263,-517.9333 513.8263,-517.9333 513.8263,-526.1338 513.8263,-526.1338 513.8263,-530.2341 509.726,-534.3344 505.6257,-534.3344"/>
<text text-anchor="middle" x="456.2951" y="-517.8336" font-family="Times,serif" font-size="14.00" fill="#000000">基于methods模块</text>
</g>
<!-- get,post...&#45;&gt;基于methods模块 -->
<g id="edge6" class="edge">
<title>get,post...&#45;&gt;基于methods模块</title>
<path fill="none" stroke="#ff0000" d="M281.0173,-528.6946C310.2067,-527.5853 352.5446,-525.9763 388.2974,-524.6177"/>
<polygon fill="#ff0000" stroke="#ff0000" points="388.8138,-528.1007 398.6737,-524.2233 388.5479,-521.1057 388.8138,-528.1007"/>
</g>
<!-- get通过参数个数多态 -->
<g id="node15" class="node">
<title>get通过参数个数多态</title>
<path fill="#e5e5e5" stroke="#000000" d="M784.0314,-656.3344C784.0314,-656.3344 666.0506,-656.3344 666.0506,-656.3344 661.9503,-656.3344 657.8501,-652.2341 657.8501,-648.1338 657.8501,-648.1338 657.8501,-639.9333 657.8501,-639.9333 657.8501,-635.833 661.9503,-631.7328 666.0506,-631.7328 666.0506,-631.7328 784.0314,-631.7328 784.0314,-631.7328 788.1317,-631.7328 792.2319,-635.833 792.2319,-639.9333 792.2319,-639.9333 792.2319,-648.1338 792.2319,-648.1338 792.2319,-652.2341 788.1317,-656.3344 784.0314,-656.3344"/>
<text text-anchor="middle" x="725.041" y="-639.8336" font-family="Times,serif" font-size="14.00" fill="#000000">get通过参数个数多态</text>
</g>
<!-- 基于methods模块&#45;&gt;get通过参数个数多态 -->
<g id="edge7" class="edge">
<title>基于methods模块&#45;&gt;get通过参数个数多态</title>
<path fill="none" stroke="#ff0000" d="M486.5149,-534.3903C496.051,-539.2506 506.1514,-545.4947 514.0602,-553.0336 536.5702,-574.4908 524.4439,-595.4008 550.0602,-613.0336 578.2657,-632.4487 614.9044,-640.8559 647.3623,-644.1508"/>
<polygon fill="#ff0000" stroke="#ff0000" points="647.4732,-647.6734 657.7377,-645.0484 648.0766,-640.6994 647.4732,-647.6734"/>
</g>
<!-- lazyrouter -->
<g id="node16" class="node">
<title>lazyrouter</title>
<path fill="#e5e5e5" stroke="#000000" d="M753.0871,-473.3344C753.0871,-473.3344 696.9949,-473.3344 696.9949,-473.3344 692.8946,-473.3344 688.7944,-469.2341 688.7944,-465.1338 688.7944,-465.1338 688.7944,-456.9333 688.7944,-456.9333 688.7944,-452.833 692.8946,-448.7328 696.9949,-448.7328 696.9949,-448.7328 753.0871,-448.7328 753.0871,-448.7328 757.1874,-448.7328 761.2876,-452.833 761.2876,-456.9333 761.2876,-456.9333 761.2876,-465.1338 761.2876,-465.1338 761.2876,-469.2341 757.1874,-473.3344 753.0871,-473.3344"/>
<text text-anchor="middle" x="725.041" y="-456.8336" font-family="Times,serif" font-size="14.00" fill="#000000">lazyrouter</text>
</g>
<!-- 基于methods模块&#45;&gt;lazyrouter -->
<g id="edge9" class="edge">
<title>基于methods模块&#45;&gt;lazyrouter</title>
<path fill="none" stroke="#000000" d="M510.6798,-509.6893C560.1201,-498.4674 632.2746,-482.0897 678.9452,-471.4964"/>
<polygon fill="#000000" stroke="#000000" points="679.8108,-474.889 688.788,-469.2623 678.2613,-468.0627 679.8108,-474.889"/>
</g>
<!-- get通过参数个数多态&#45;&gt;set -->
<g id="edge8" class="edge">
<title>get通过参数个数多态&#45;&gt;set</title>
<path fill="none" stroke="#ff0000" d="M792.1976,-647.9901C825.7774,-651.915 866.331,-659.6857 900.0218,-675.0336 937.7521,-692.2216 973.6151,-725.0337 994.3563,-746.2038"/>
<polygon fill="#ff0000" stroke="#ff0000" points="992.0893,-748.8966 1001.5375,-753.6907 997.1411,-744.051 992.0893,-748.8966"/>
</g>
<!-- 给每个methods引用fn -->
<g id="node24" class="node">
<title>给每个methods引用fn</title>
<path fill="#e5e5e5" stroke="#000000" d="M1081.2097,-473.3344C1081.2097,-473.3344 944.0927,-473.3344 944.0927,-473.3344 939.9924,-473.3344 935.8922,-469.2341 935.8922,-465.1338 935.8922,-465.1338 935.8922,-456.9333 935.8922,-456.9333 935.8922,-452.833 939.9924,-448.7328 944.0927,-448.7328 944.0927,-448.7328 1081.2097,-448.7328 1081.2097,-448.7328 1085.31,-448.7328 1089.4102,-452.833 1089.4102,-456.9333 1089.4102,-456.9333 1089.4102,-465.1338 1089.4102,-465.1338 1089.4102,-469.2341 1085.31,-473.3344 1081.2097,-473.3344"/>
<text text-anchor="middle" x="1012.6512" y="-456.8336" font-family="Times,serif" font-size="14.00" fill="#000000">给每个methods引用fn</text>
</g>
<!-- lazyrouter&#45;&gt;给每个methods引用fn -->
<g id="edge16" class="edge">
<title>lazyrouter&#45;&gt;给每个methods引用fn</title>
<path fill="none" stroke="#0000ff" d="M761.467,-461.0336C802.5204,-461.0336 870.6996,-461.0336 925.6744,-461.0336"/>
<polygon fill="#0000ff" stroke="#0000ff" points="925.7763,-464.5337 935.7762,-461.0336 925.7762,-457.5337 925.7763,-464.5337"/>
</g>
<!-- 实例化Router -->
<g id="node40" class="node">
<title>实例化Router</title>
<path fill="#e5e5e5" stroke="#000000" d="M1049.3357,-311.3344C1049.3357,-311.3344 975.9667,-311.3344 975.9667,-311.3344 971.8664,-311.3344 967.7661,-307.2341 967.7661,-303.1338 967.7661,-303.1338 967.7661,-294.9333 967.7661,-294.9333 967.7661,-290.833 971.8664,-286.7328 975.9667,-286.7328 975.9667,-286.7328 1049.3357,-286.7328 1049.3357,-286.7328 1053.436,-286.7328 1057.5363,-290.833 1057.5363,-294.9333 1057.5363,-294.9333 1057.5363,-303.1338 1057.5363,-303.1338 1057.5363,-307.2341 1053.436,-311.3344 1049.3357,-311.3344"/>
<text text-anchor="middle" x="1012.6512" y="-294.8336" font-family="Times,serif" font-size="14.00" fill="#000000">实例化Router</text>
</g>
<!-- lazyrouter&#45;&gt;实例化Router -->
<g id="edge32" class="edge">
<title>lazyrouter&#45;&gt;实例化Router</title>
<path fill="none" stroke="#00ff00" d="M761.6045,-464.5337C800.4019,-466.192 861.3328,-462.6402 900.0218,-430.0336 936.1416,-399.5923 903.2757,-364.0777 936.0218,-330.0336 942.2382,-323.5708 949.9851,-318.4161 958.1452,-314.3159"/>
<polygon fill="#00ff00" stroke="#00ff00" points="959.7891,-317.4143 967.4741,-310.1212 956.9183,-311.03 959.7891,-317.4143"/>
</g>
<!-- listen -->
<g id="node17" class="node">
<title>listen</title>
<path fill="#e5e5e5" stroke="#000000" d="M69.6489,-717.3344C69.6489,-717.3344 39.3855,-717.3344 39.3855,-717.3344 35.2853,-717.3344 31.185,-713.2341 31.185,-709.1338 31.185,-709.1338 31.185,-700.9333 31.185,-700.9333 31.185,-696.833 35.2853,-692.7328 39.3855,-692.7328 39.3855,-692.7328 69.6489,-692.7328 69.6489,-692.7328 73.7491,-692.7328 77.8494,-696.833 77.8494,-700.9333 77.8494,-700.9333 77.8494,-709.1338 77.8494,-709.1338 77.8494,-713.2341 73.7491,-717.3344 69.6489,-717.3344"/>
<text text-anchor="middle" x="54.5172" y="-700.8336" font-family="Times,serif" font-size="14.00" fill="#000000">listen</text>
</g>
<!-- http模块createServer -->
<g id="node18" class="node">
<title>http模块createServer</title>
<path fill="#e5e5e5" stroke="#000000" d="M304.4666,-702.3344C304.4666,-702.3344 187.0978,-702.3344 187.0978,-702.3344 182.9975,-702.3344 178.8972,-698.2341 178.8972,-694.1338 178.8972,-694.1338 178.8972,-685.9333 178.8972,-685.9333 178.8972,-681.833 182.9975,-677.7328 187.0978,-677.7328 187.0978,-677.7328 304.4666,-677.7328 304.4666,-677.7328 308.5669,-677.7328 312.6672,-681.833 312.6672,-685.9333 312.6672,-685.9333 312.6672,-694.1338 312.6672,-694.1338 312.6672,-698.2341 308.5669,-702.3344 304.4666,-702.3344"/>
<text text-anchor="middle" x="245.7822" y="-685.8336" font-family="Times,serif" font-size="14.00" fill="#000000">http模块createServer</text>
</g>
<!-- listen&#45;&gt;http模块createServer -->
<g id="edge10" class="edge">
<title>listen&#45;&gt;http模块createServer</title>
<path fill="none" stroke="#000000" d="M77.97,-703.1943C100.6606,-701.4148 136.3123,-698.6188 168.9298,-696.0607"/>
<polygon fill="#000000" stroke="#000000" points="169.2416,-699.5471 178.9373,-695.2759 168.6943,-692.5686 169.2416,-699.5471"/>
</g>
<!-- server.listen -->
<g id="node19" class="node">
<title>server.listen</title>
<path fill="#e5e5e5" stroke="#000000" d="M490.1206,-656.3344C490.1206,-656.3344 422.4696,-656.3344 422.4696,-656.3344 418.3694,-656.3344 414.2691,-652.2341 414.2691,-648.1338 414.2691,-648.1338 414.2691,-639.9333 414.2691,-639.9333 414.2691,-635.833 418.3694,-631.7328 422.4696,-631.7328 422.4696,-631.7328 490.1206,-631.7328 490.1206,-631.7328 494.2208,-631.7328 498.3211,-635.833 498.3211,-639.9333 498.3211,-639.9333 498.3211,-648.1338 498.3211,-648.1338 498.3211,-652.2341 494.2208,-656.3344 490.1206,-656.3344"/>
<text text-anchor="middle" x="456.2951" y="-639.8336" font-family="Times,serif" font-size="14.00" fill="#000000">server.listen</text>
</g>
<!-- http模块createServer&#45;&gt;server.listen -->
<g id="edge11" class="edge">
<title>http模块createServer&#45;&gt;server.listen</title>
<path fill="none" stroke="#000000" d="M302.1958,-677.7064C333.8184,-670.7965 372.9984,-662.2351 403.9382,-655.4743"/>
<polygon fill="#000000" stroke="#000000" points="405.0698,-658.8097 414.0921,-653.2555 403.5754,-651.971 405.0698,-658.8097"/>
</g>
<!-- use -->
<g id="node20" class="node">
<title>use</title>
<path fill="#e5e5e5" stroke="#000000" d="M63.4775,-656.3344C63.4775,-656.3344 45.5569,-656.3344 45.5569,-656.3344 41.4566,-656.3344 37.3563,-652.2341 37.3563,-648.1338 37.3563,-648.1338 37.3563,-639.9333 37.3563,-639.9333 37.3563,-635.833 41.4566,-631.7328 45.5569,-631.7328 45.5569,-631.7328 63.4775,-631.7328 63.4775,-631.7328 67.5778,-631.7328 71.6781,-635.833 71.6781,-639.9333 71.6781,-639.9333 71.6781,-648.1338 71.6781,-648.1338 71.6781,-652.2341 67.5778,-656.3344 63.4775,-656.3344"/>
<text text-anchor="middle" x="54.5172" y="-639.8336" font-family="Times,serif" font-size="14.00" fill="#000000">use</text>
</g>
<!-- 传入中间件方法fn -->
<g id="node21" class="node">
<title>传入中间件方法fn</title>
<path fill="#e5e5e5" stroke="#000000" d="M305.7257,-611.3344C305.7257,-611.3344 185.8387,-611.3344 185.8387,-611.3344 181.7384,-611.3344 177.6381,-607.2341 177.6381,-603.1338 177.6381,-603.1338 177.6381,-594.9333 177.6381,-594.9333 177.6381,-590.833 181.7384,-586.7328 185.8387,-586.7328 185.8387,-586.7328 305.7257,-586.7328 305.7257,-586.7328 309.826,-586.7328 313.9263,-590.833 313.9263,-594.9333 313.9263,-594.9333 313.9263,-603.1338 313.9263,-603.1338 313.9263,-607.2341 309.826,-611.3344 305.7257,-611.3344"/>
<text text-anchor="middle" x="245.7822" y="-594.8336" font-family="Times,serif" font-size="14.00" fill="#000000">传入中间件方法fn</text>
</g>
<!-- use&#45;&gt;传入中间件方法fn -->
<g id="edge12" class="edge">
<title>use&#45;&gt;传入中间件方法fn</title>
<path fill="none" stroke="#ff0000" d="M71.828,-639.9608C96.7299,-634.102 143.9527,-622.9916 182.9189,-613.8238"/>
<polygon fill="#ff0000" stroke="#ff0000" points="184.2129,-617.115 193.1455,-611.4177 182.6097,-610.301 184.2129,-617.115"/>
</g>
<!-- 传入中间件方法fn&#45;&gt;this._router -->
<g id="edge13" class="edge">
<title>传入中间件方法fn&#45;&gt;this._router</title>
<path fill="none" stroke="#ff0000" d="M314.1892,-588.1982C331.9284,-582.4269 349.6445,-573.5834 362.53,-560.0336 403.5491,-516.8996 361.3243,-477.4969 398.53,-431.0336 402.6384,-425.9029 407.8328,-421.5095 413.4142,-417.7819"/>
<polygon fill="#ff0000" stroke="#ff0000" points="415.5799,-420.5672 422.4029,-412.4618 412.0146,-414.5432 415.5799,-420.5672"/>
</g>
<!-- all -->
<g id="node23" class="node">
<title>all</title>
<path fill="#e5e5e5" stroke="#000000" d="M463.0904,-473.3344C463.0904,-473.3344 449.4998,-473.3344 449.4998,-473.3344 445.3996,-473.3344 441.2993,-469.2341 441.2993,-465.1338 441.2993,-465.1338 441.2993,-456.9333 441.2993,-456.9333 441.2993,-452.833 445.3996,-448.7328 449.4998,-448.7328 449.4998,-448.7328 463.0904,-448.7328 463.0904,-448.7328 467.1906,-448.7328 471.2909,-452.833 471.2909,-456.9333 471.2909,-456.9333 471.2909,-465.1338 471.2909,-465.1338 471.2909,-469.2341 467.1906,-473.3344 463.0904,-473.3344"/>
<text text-anchor="middle" x="456.2951" y="-456.8336" font-family="Times,serif" font-size="14.00" fill="#000000">all</text>
</g>
<!-- all&#45;&gt;lazyrouter -->
<g id="edge15" class="edge">
<title>all&#45;&gt;lazyrouter</title>
<path fill="none" stroke="#0000ff" d="M471.5141,-461.0336C510.7712,-461.0336 616.6992,-461.0336 678.5042,-461.0336"/>
<polygon fill="#0000ff" stroke="#0000ff" points="678.7662,-464.5337 688.7662,-461.0336 678.7661,-457.5337 678.7662,-464.5337"/>
</g>
<!-- handler -->
<g id="node25" class="node">
<title>handler</title>
<path fill="#e5e5e5" stroke="#000000" d="M75.2971,-412.3344C75.2971,-412.3344 33.7373,-412.3344 33.7373,-412.3344 29.6371,-412.3344 25.5368,-408.2341 25.5368,-404.1338 25.5368,-404.1338 25.5368,-395.9333 25.5368,-395.9333 25.5368,-391.833 29.6371,-387.7328 33.7373,-387.7328 33.7373,-387.7328 75.2971,-387.7328 75.2971,-387.7328 79.3973,-387.7328 83.4976,-391.833 83.4976,-395.9333 83.4976,-395.9333 83.4976,-404.1338 83.4976,-404.1338 83.4976,-408.2341 79.3973,-412.3344 75.2971,-412.3344"/>
<text text-anchor="middle" x="54.5172" y="-395.8336" font-family="Times,serif" font-size="14.00" fill="#000000">handler</text>
</g>
<!-- router.handle -->
<g id="node47" class="node">
<title>router.handle</title>
<path fill="#e5e5e5" stroke="#000000" d="M762.087,-67.3344C762.087,-67.3344 687.995,-67.3344 687.995,-67.3344 683.8947,-67.3344 679.7945,-63.2341 679.7945,-59.1338 679.7945,-59.1338 679.7945,-50.9333 679.7945,-50.9333 679.7945,-46.833 683.8947,-42.7328 687.995,-42.7328 687.995,-42.7328 762.087,-42.7328 762.087,-42.7328 766.1873,-42.7328 770.2875,-46.833 770.2875,-50.9333 770.2875,-50.9333 770.2875,-59.1338 770.2875,-59.1338 770.2875,-63.2341 766.1873,-67.3344 762.087,-67.3344"/>
<text text-anchor="middle" x="725.041" y="-50.8336" font-family="Times,serif" font-size="14.00" fill="#000000">router.handle</text>
</g>
<!-- handler&#45;&gt;router.handle -->
<g id="edge40" class="edge">
<title>handler&#45;&gt;router.handle</title>
<path fill="none" stroke="#000000" d="M55.5042,-387.6383C60.0344,-334.1784 80.7202,-124.2281 129.0344,-84.0336 288.8642,48.9354 564.3932,-8.7564 675.9856,-39.8905"/>
<polygon fill="#000000" stroke="#000000" points="675.0581,-43.2655 685.6339,-42.631 676.9707,-36.5318 675.0581,-43.2655"/>
</g>
<!-- app.route -->
<g id="node26" class="node">
<title>app.route</title>
<path fill="#e5e5e5" stroke="#000000" d="M80.7988,-473.3344C80.7988,-473.3344 28.2356,-473.3344 28.2356,-473.3344 24.1354,-473.3344 20.0351,-469.2341 20.0351,-465.1338 20.0351,-465.1338 20.0351,-456.9333 20.0351,-456.9333 20.0351,-452.833 24.1354,-448.7328 28.2356,-448.7328 28.2356,-448.7328 80.7988,-448.7328 80.7988,-448.7328 84.899,-448.7328 88.9993,-452.833 88.9993,-456.9333 88.9993,-456.9333 88.9993,-465.1338 88.9993,-465.1338 88.9993,-469.2341 84.899,-473.3344 80.7988,-473.3344"/>
<text text-anchor="middle" x="54.5172" y="-456.8336" font-family="Times,serif" font-size="14.00" fill="#000000">app.route</text>
</g>
<!-- 直接调用对应router的route -->
<g id="node48" class="node">
<title>直接调用对应router的route</title>
<path fill="#e5e5e5" stroke="#000000" d="M324.5389,-126.3344C324.5389,-126.3344 167.0255,-126.3344 167.0255,-126.3344 162.9253,-126.3344 158.825,-122.2341 158.825,-118.1338 158.825,-118.1338 158.825,-109.9333 158.825,-109.9333 158.825,-105.833 162.9253,-101.7328 167.0255,-101.7328 167.0255,-101.7328 324.5389,-101.7328 324.5389,-101.7328 328.6391,-101.7328 332.7394,-105.833 332.7394,-109.9333 332.7394,-109.9333 332.7394,-118.1338 332.7394,-118.1338 332.7394,-122.2341 328.6391,-126.3344 324.5389,-126.3344"/>
<text text-anchor="middle" x="245.7822" y="-109.8336" font-family="Times,serif" font-size="14.00" fill="#000000">直接调用对应router的route</text>
</g>
<!-- app.route&#45;&gt;直接调用对应router的route -->
<g id="edge41" class="edge">
<title>app.route&#45;&gt;直接调用对应router的route</title>
<path fill="none" stroke="#000000" d="M75.7118,-448.5639C82.3017,-443.6281 88.9123,-437.3665 93.0344,-430.0336 153.0049,-323.3503 52.6044,-252.6172 129.0344,-157.0336 138.606,-145.0633 151.8409,-136.4252 165.973,-130.1918"/>
<polygon fill="#000000" stroke="#000000" points="167.3783,-133.3993 175.3599,-126.4319 164.7754,-126.9012 167.3783,-133.3993"/>
</g>
<!-- app.engine -->
<g id="node27" class="node">
<title>app.engine</title>
<path fill="#e5e5e5" stroke="#000000" d="M84.8511,-778.3344C84.8511,-778.3344 24.1833,-778.3344 24.1833,-778.3344 20.0831,-778.3344 15.9828,-774.2341 15.9828,-770.1338 15.9828,-770.1338 15.9828,-761.9333 15.9828,-761.9333 15.9828,-757.833 20.0831,-753.7328 24.1833,-753.7328 24.1833,-753.7328 84.8511,-753.7328 84.8511,-753.7328 88.9513,-753.7328 93.0516,-757.833 93.0516,-761.9333 93.0516,-761.9333 93.0516,-770.1338 93.0516,-770.1338 93.0516,-774.2341 88.9513,-778.3344 84.8511,-778.3344"/>
<text text-anchor="middle" x="54.5172" y="-761.8336" font-family="Times,serif" font-size="14.00" fill="#000000">app.engine</text>
</g>
<!-- 指定后缀文件使用指定引擎方法fn -->
<g id="node28" class="node">
<title>指定后缀文件使用指定引擎方法fn</title>
<path fill="#e5e5e5" stroke="#000000" d="M354.5778,-778.3344C354.5778,-778.3344 136.9866,-778.3344 136.9866,-778.3344 132.8863,-778.3344 128.7861,-774.2341 128.7861,-770.1338 128.7861,-770.1338 128.7861,-761.9333 128.7861,-761.9333 128.7861,-757.833 132.8863,-753.7328 136.9866,-753.7328 136.9866,-753.7328 354.5778,-753.7328 354.5778,-753.7328 358.6781,-753.7328 362.7783,-757.833 362.7783,-761.9333 362.7783,-761.9333 362.7783,-770.1338 362.7783,-770.1338 362.7783,-774.2341 358.6781,-778.3344 354.5778,-778.3344"/>
<text text-anchor="middle" x="245.7822" y="-761.8336" font-family="Times,serif" font-size="14.00" fill="#000000">指定后缀文件使用指定引擎方法fn</text>
</g>
<!-- app.engine&#45;&gt;指定后缀文件使用指定引擎方法fn -->
<g id="edge17" class="edge">
<title>app.engine&#45;&gt;指定后缀文件使用指定引擎方法fn</title>
<path fill="none" stroke="#000000" d="M93.2225,-766.0336C101.0784,-766.0336 109.7401,-766.0336 118.8258,-766.0336"/>
<polygon fill="#000000" stroke="#000000" points="118.8332,-769.5337 128.8331,-766.0336 118.8331,-762.5337 118.8332,-769.5337"/>
</g>
<!-- 指定后缀文件使用指定引擎方法fn&#45;&gt;this.engines -->
<g id="edge18" class="edge">
<title>指定后缀文件使用指定引擎方法fn&#45;&gt;this.engines</title>
<path fill="none" stroke="#000000" d="M294.4991,-778.3872C315.4967,-783.862 340.2891,-790.5272 362.53,-797.0336 377.8703,-801.5212 394.5153,-806.7335 409.4646,-811.5421"/>
<polygon fill="#000000" stroke="#000000" points="408.421,-814.883 419.0129,-814.6321 410.5763,-808.2231 408.421,-814.883"/>
</g>
<!-- app.param -->
<g id="node29" class="node">
<title>app.param</title>
<path fill="#e5e5e5" stroke="#000000" d="M83.5123,-534.3344C83.5123,-534.3344 25.5221,-534.3344 25.5221,-534.3344 21.4218,-534.3344 17.3216,-530.2341 17.3216,-526.1338 17.3216,-526.1338 17.3216,-517.9333 17.3216,-517.9333 17.3216,-513.833 21.4218,-509.7328 25.5221,-509.7328 25.5221,-509.7328 83.5123,-509.7328 83.5123,-509.7328 87.6126,-509.7328 91.7128,-513.833 91.7128,-517.9333 91.7128,-517.9333 91.7128,-526.1338 91.7128,-526.1338 91.7128,-530.2341 87.6126,-534.3344 83.5123,-534.3344"/>
<text text-anchor="middle" x="54.5172" y="-517.8336" font-family="Times,serif" font-size="14.00" fill="#000000">app.param</text>
</g>
<!-- 直接调用对应router的param -->
<g id="node49" class="node">
<title>直接调用对应router的param</title>
<path fill="#e5e5e5" stroke="#000000" d="M327.2532,-277.3344C327.2532,-277.3344 164.3112,-277.3344 164.3112,-277.3344 160.211,-277.3344 156.1107,-273.2341 156.1107,-269.1338 156.1107,-269.1338 156.1107,-260.9333 156.1107,-260.9333 156.1107,-256.833 160.211,-252.7328 164.3112,-252.7328 164.3112,-252.7328 327.2532,-252.7328 327.2532,-252.7328 331.3534,-252.7328 335.4537,-256.833 335.4537,-260.9333 335.4537,-260.9333 335.4537,-269.1338 335.4537,-269.1338 335.4537,-273.2341 331.3534,-277.3344 327.2532,-277.3344"/>
<text text-anchor="middle" x="245.7822" y="-260.8336" font-family="Times,serif" font-size="14.00" fill="#000000">直接调用对应router的param</text>
</g>
<!-- app.param&#45;&gt;直接调用对应router的param -->
<g id="edge43" class="edge">
<title>app.param&#45;&gt;直接调用对应router的param</title>
<path fill="none" stroke="#000000" d="M75.0124,-509.691C81.7069,-504.6934 88.5624,-498.3604 93.0344,-491.0336 134.4036,-423.2547 79.0479,-377.7323 129.0344,-316.0336 142.1964,-299.7876 161.5571,-288.5856 180.7439,-280.9176"/>
<polygon fill="#000000" stroke="#000000" points="181.9679,-284.1967 190.1209,-277.4307 179.5281,-277.6356 181.9679,-284.1967"/>
</g>
<!-- app.render -->
<g id="node30" class="node">
<title>app.render</title>
<path fill="#e5e5e5" stroke="#000000" d="M84.2831,-839.3344C84.2831,-839.3344 24.7513,-839.3344 24.7513,-839.3344 20.651,-839.3344 16.5508,-835.2341 16.5508,-831.1338 16.5508,-831.1338 16.5508,-822.9333 16.5508,-822.9333 16.5508,-818.833 20.651,-814.7328 24.7513,-814.7328 24.7513,-814.7328 84.2831,-814.7328 84.2831,-814.7328 88.3834,-814.7328 92.4836,-818.833 92.4836,-822.9333 92.4836,-822.9333 92.4836,-831.1338 92.4836,-831.1338 92.4836,-835.2341 88.3834,-839.3344 84.2831,-839.3344"/>
<text text-anchor="middle" x="54.5172" y="-822.8336" font-family="Times,serif" font-size="14.00" fill="#000000">app.render</text>
</g>
<!-- app.render&#45;&gt;this.cache -->
<g id="edge19" class="edge">
<title>app.render&#45;&gt;this.cache</title>
<path fill="none" stroke="#000000" d="M92.305,-827.0336C123.1513,-827.0336 166.8585,-827.0336 199.746,-827.0336"/>
<polygon fill="#000000" stroke="#000000" points="200.0136,-830.5337 210.0136,-827.0336 200.0135,-823.5337 200.0136,-830.5337"/>
</g>
<!-- 取得引擎 -->
<g id="node51" class="node">
<title>取得引擎</title>
<path fill="#e5e5e5" stroke="#000000" d="M271.5835,-904.3344C271.5835,-904.3344 219.9809,-904.3344 219.9809,-904.3344 215.8807,-904.3344 211.7804,-900.2341 211.7804,-896.1338 211.7804,-896.1338 211.7804,-887.9333 211.7804,-887.9333 211.7804,-883.833 215.8807,-879.7328 219.9809,-879.7328 219.9809,-879.7328 271.5835,-879.7328 271.5835,-879.7328 275.6837,-879.7328 279.784,-883.833 279.784,-887.9333 279.784,-887.9333 279.784,-896.1338 279.784,-896.1338 279.784,-900.2341 275.6837,-904.3344 271.5835,-904.3344"/>
<text text-anchor="middle" x="245.7822" y="-887.8336" font-family="Times,serif" font-size="14.00" fill="#000000">取得引擎</text>
</g>
<!-- app.render&#45;&gt;取得引擎 -->
<g id="edge45" class="edge">
<title>app.render&#45;&gt;取得引擎</title>
<path fill="none" stroke="#ff0000" d="M69.1191,-839.5187C83.4043,-850.9995 106.2747,-867.4944 129.0344,-876.0336 152.0189,-884.6571 179.1071,-888.7118 201.4019,-890.586"/>
<polygon fill="#ff0000" stroke="#ff0000" points="201.3723,-894.0929 211.5984,-891.3219 201.8763,-887.1111 201.3723,-894.0929"/>
</g>
<!-- 将自己的原型设置为传入的对象 -->
<g id="node32" class="node">
<title>将自己的原型设置为传入的对象</title>
<path fill="#e5e5e5" stroke="#000000" d="M1351.6342,-372.3344C1351.6342,-372.3344 1133.2962,-372.3344 1133.2962,-372.3344 1129.196,-372.3344 1125.0957,-368.2341 1125.0957,-364.1338 1125.0957,-364.1338 1125.0957,-355.9333 1125.0957,-355.9333 1125.0957,-351.833 1129.196,-347.7328 1133.2962,-347.7328 1133.2962,-347.7328 1351.6342,-347.7328 1351.6342,-347.7328 1355.7344,-347.7328 1359.8347,-351.833 1359.8347,-355.9333 1359.8347,-355.9333 1359.8347,-364.1338 1359.8347,-364.1338 1359.8347,-368.2341 1355.7344,-372.3344 1351.6342,-372.3344"/>
<text text-anchor="middle" x="1242.4652" y="-355.8336" font-family="Times,serif" font-size="14.00" fill="#000000">将自己的原型设置为传入的对象</text>
</g>
<!-- on:mount&#45;&gt;将自己的原型设置为传入的对象 -->
<g id="edge23" class="edge">
<title>on:mount&#45;&gt;将自己的原型设置为传入的对象</title>
<path fill="none" stroke="#000000" d="M1047.555,-360.0336C1066.0404,-360.0336 1090.0097,-360.0336 1114.781,-360.0336"/>
<polygon fill="#000000" stroke="#000000" points="1115.0533,-363.5337 1125.0533,-360.0336 1115.0533,-356.5337 1115.0533,-363.5337"/>
</g>
<!-- 基于setPrototypeOf模块 -->
<g id="node33" class="node">
<title>基于setPrototypeOf模块</title>
<path fill="#e5e5e5" stroke="#000000" d="M1587.328,-372.3344C1587.328,-372.3344 1451.0374,-372.3344 1451.0374,-372.3344 1446.9371,-372.3344 1442.8368,-368.2341 1442.8368,-364.1338 1442.8368,-364.1338 1442.8368,-355.9333 1442.8368,-355.9333 1442.8368,-351.833 1446.9371,-347.7328 1451.0374,-347.7328 1451.0374,-347.7328 1587.328,-347.7328 1587.328,-347.7328 1591.4283,-347.7328 1595.5286,-351.833 1595.5286,-355.9333 1595.5286,-355.9333 1595.5286,-364.1338 1595.5286,-364.1338 1595.5286,-368.2341 1591.4283,-372.3344 1587.328,-372.3344"/>
<text text-anchor="middle" x="1519.1827" y="-355.8336" font-family="Times,serif" font-size="14.00" fill="#000000">基于setPrototypeOf模块</text>
</g>
<!-- 将自己的原型设置为传入的对象&#45;&gt;基于setPrototypeOf模块 -->
<g id="edge24" class="edge">
<title>将自己的原型设置为传入的对象&#45;&gt;基于setPrototypeOf模块</title>
<path fill="none" stroke="#000000" d="M1359.8183,-360.0336C1384.1982,-360.0336 1409.469,-360.0336 1432.5071,-360.0336"/>
<polygon fill="#000000" stroke="#000000" points="1432.578,-363.5337 1442.5779,-360.0336 1432.5779,-356.5337 1432.578,-363.5337"/>
</g>
<!-- utils.compileEtag -->
<g id="node35" class="node">
<title>utils.compileEtag</title>
<path fill="#e5e5e5" stroke="#000000" d="M1568.358,-1656.3344C1568.358,-1656.3344 1470.0074,-1656.3344 1470.0074,-1656.3344 1465.9071,-1656.3344 1461.8069,-1652.2341 1461.8069,-1648.1338 1461.8069,-1648.1338 1461.8069,-1639.9333 1461.8069,-1639.9333 1461.8069,-1635.833 1465.9071,-1631.7328 1470.0074,-1631.7328 1470.0074,-1631.7328 1568.358,-1631.7328 1568.358,-1631.7328 1572.4583,-1631.7328 1576.5585,-1635.833 1576.5585,-1639.9333 1576.5585,-1639.9333 1576.5585,-1648.1338 1576.5585,-1648.1338 1576.5585,-1652.2341 1572.4583,-1656.3344 1568.358,-1656.3344"/>
<text text-anchor="middle" x="1519.1827" y="-1639.8336" font-family="Times,serif" font-size="14.00" fill="#000000">utils.compileEtag</text>
</g>
<!-- etag&#45;&gt;utils.compileEtag -->
<g id="edge27" class="edge">
<title>etag&#45;&gt;utils.compileEtag</title>
<path fill="none" stroke="#000000" d="M1262.265,-1387.2679C1288.5194,-1387.4093 1334.462,-1391.8785 1359.6498,-1419.0336 1419.2862,-1483.328 1335.6048,-1549.1206 1395.6498,-1613.0336 1410.2221,-1628.5446 1431.2991,-1636.7742 1451.9297,-1641.005"/>
<polygon fill="#000000" stroke="#000000" points="1451.5359,-1644.4894 1461.9911,-1642.7751 1452.7488,-1637.5953 1451.5359,-1644.4894"/>
</g>
<!-- weak -->
<g id="node56" class="node">
<title>weak</title>
<path fill="#e5e5e5" stroke="#000000" d="M1533.5203,-1400.3344C1533.5203,-1400.3344 1504.8451,-1400.3344 1504.8451,-1400.3344 1500.7448,-1400.3344 1496.6446,-1396.2341 1496.6446,-1392.1338 1496.6446,-1392.1338 1496.6446,-1383.9333 1496.6446,-1383.9333 1496.6446,-1379.833 1500.7448,-1375.7328 1504.8451,-1375.7328 1504.8451,-1375.7328 1533.5203,-1375.7328 1533.5203,-1375.7328 1537.6206,-1375.7328 1541.7208,-1379.833 1541.7208,-1383.9333 1541.7208,-1383.9333 1541.7208,-1392.1338 1541.7208,-1392.1338 1541.7208,-1396.2341 1537.6206,-1400.3344 1533.5203,-1400.3344"/>
<text text-anchor="middle" x="1519.1827" y="-1383.8336" font-family="Times,serif" font-size="14.00" fill="#000000">weak</text>
</g>
<!-- etag&#45;&gt;weak -->
<g id="edge50" class="edge">
<title>etag&#45;&gt;weak</title>
<path fill="none" stroke="#000000" d="M1262.366,-1388.0336C1309.4976,-1388.0336 1428.3177,-1388.0336 1486.3149,-1388.0336"/>
<polygon fill="#000000" stroke="#000000" points="1486.4055,-1391.5337 1496.4054,-1388.0336 1486.4054,-1384.5337 1486.4055,-1391.5337"/>
</g>
<!-- 根据参数决定策略。基于etag模块 -->
<g id="node70" class="node">
<title>根据参数决定策略。基于etag模块</title>
<path fill="#e5e5e5" stroke="#000000" d="M1931.1077,-1656.3344C1931.1077,-1656.3344 1742.0831,-1656.3344 1742.0831,-1656.3344 1737.9829,-1656.3344 1733.8826,-1652.2341 1733.8826,-1648.1338 1733.8826,-1648.1338 1733.8826,-1639.9333 1733.8826,-1639.9333 1733.8826,-1635.833 1737.9829,-1631.7328 1742.0831,-1631.7328 1742.0831,-1631.7328 1931.1077,-1631.7328 1931.1077,-1631.7328 1935.2079,-1631.7328 1939.3082,-1635.833 1939.3082,-1639.9333 1939.3082,-1639.9333 1939.3082,-1648.1338 1939.3082,-1648.1338 1939.3082,-1652.2341 1935.2079,-1656.3344 1931.1077,-1656.3344"/>
<text text-anchor="middle" x="1836.5954" y="-1639.8336" font-family="Times,serif" font-size="14.00" fill="#000000">根据参数决定策略。基于etag模块</text>
</g>
<!-- utils.compileEtag&#45;&gt;根据参数决定策略。基于etag模块 -->
<g id="edge59" class="edge">
<title>utils.compileEtag&#45;&gt;根据参数决定策略。基于etag模块</title>
<path fill="none" stroke="#000000" d="M1576.6637,-1644.0336C1617.5287,-1644.0336 1673.761,-1644.0336 1723.4731,-1644.0336"/>
<polygon fill="#000000" stroke="#000000" points="1723.6477,-1647.5337 1733.6476,-1644.0336 1723.6476,-1640.5337 1723.6477,-1647.5337"/>
</g>
<!-- utils.compileQueryParser -->
<g id="node37" class="node">
<title>utils.compileQueryParser</title>
<path fill="#e5e5e5" stroke="#000000" d="M1590.1593,-1595.3344C1590.1593,-1595.3344 1448.2061,-1595.3344 1448.2061,-1595.3344 1444.1058,-1595.3344 1440.0056,-1591.2341 1440.0056,-1587.1338 1440.0056,-1587.1338 1440.0056,-1578.9333 1440.0056,-1578.9333 1440.0056,-1574.833 1444.1058,-1570.7328 1448.2061,-1570.7328 1448.2061,-1570.7328 1590.1593,-1570.7328 1590.1593,-1570.7328 1594.2596,-1570.7328 1598.3598,-1574.833 1598.3598,-1578.9333 1598.3598,-1578.9333 1598.3598,-1587.1338 1598.3598,-1587.1338 1598.3598,-1591.2341 1594.2596,-1595.3344 1590.1593,-1595.3344"/>
<text text-anchor="middle" x="1519.1827" y="-1578.8336" font-family="Times,serif" font-size="14.00" fill="#000000">utils.compileQueryParser</text>
</g>
<!-- query parser&#45;&gt;utils.compileQueryParser -->
<g id="edge29" class="edge">
<title>query parser&#45;&gt;utils.compileQueryParser</title>
<path fill="none" stroke="#000000" d="M1285.3018,-1327.5019C1310.4249,-1330.1196 1340.8305,-1337.7444 1359.6498,-1358.0336 1419.2862,-1422.328 1335.6048,-1488.1206 1395.6498,-1552.0336 1405.0916,-1562.0836 1417.2642,-1569.0768 1430.2768,-1573.9061"/>
<polygon fill="#000000" stroke="#000000" points="1429.2807,-1577.2628 1439.8734,-1577.0529 1431.4618,-1570.6113 1429.2807,-1577.2628"/>
</g>
<!-- extended -->
<g id="node59" class="node">
<title>extended</title>
<path fill="#e5e5e5" stroke="#000000" d="M1544.0182,-1339.3344C1544.0182,-1339.3344 1494.3472,-1339.3344 1494.3472,-1339.3344 1490.2469,-1339.3344 1486.1467,-1335.2341 1486.1467,-1331.1338 1486.1467,-1331.1338 1486.1467,-1322.9333 1486.1467,-1322.9333 1486.1467,-1318.833 1490.2469,-1314.7328 1494.3472,-1314.7328 1494.3472,-1314.7328 1544.0182,-1314.7328 1544.0182,-1314.7328 1548.1185,-1314.7328 1552.2187,-1318.833 1552.2187,-1322.9333 1552.2187,-1322.9333 1552.2187,-1331.1338 1552.2187,-1331.1338 1552.2187,-1335.2341 1548.1185,-1339.3344 1544.0182,-1339.3344"/>
<text text-anchor="middle" x="1519.1827" y="-1322.8336" font-family="Times,serif" font-size="14.00" fill="#000000">extended</text>
</g>
<!-- query parser&#45;&gt;extended -->
<g id="edge52" class="edge">
<title>query parser&#45;&gt;extended</title>
<path fill="none" stroke="#000000" d="M1285.0959,-1327.0336C1336.8649,-1327.0336 1423.7047,-1327.0336 1475.8074,-1327.0336"/>
<polygon fill="#000000" stroke="#000000" points="1476.0586,-1330.5337 1486.0586,-1327.0336 1476.0586,-1323.5337 1476.0586,-1330.5337"/>
</g>
<!-- 根据参数决定策略。基于qs模块或原生querystring模块 -->
<g id="node71" class="node">
<title>根据参数决定策略。基于qs模块或原生querystring模块</title>
<path fill="#e5e5e5" stroke="#000000" d="M1986.1546,-1595.3344C1986.1546,-1595.3344 1687.0362,-1595.3344 1687.0362,-1595.3344 1682.936,-1595.3344 1678.8357,-1591.2341 1678.8357,-1587.1338 1678.8357,-1587.1338 1678.8357,-1578.9333 1678.8357,-1578.9333 1678.8357,-1574.833 1682.936,-1570.7328 1687.0362,-1570.7328 1687.0362,-1570.7328 1986.1546,-1570.7328 1986.1546,-1570.7328 1990.2548,-1570.7328 1994.3551,-1574.833 1994.3551,-1578.9333 1994.3551,-1578.9333 1994.3551,-1587.1338 1994.3551,-1587.1338 1994.3551,-1591.2341 1990.2548,-1595.3344 1986.1546,-1595.3344"/>
<text text-anchor="middle" x="1836.5954" y="-1578.8336" font-family="Times,serif" font-size="14.00" fill="#000000">根据参数决定策略。基于qs模块或原生querystring模块</text>
</g>
<!-- utils.compileQueryParser&#45;&gt;根据参数决定策略。基于qs模块或原生querystring模块 -->
<g id="edge60" class="edge">
<title>utils.compileQueryParser&#45;&gt;根据参数决定策略。基于qs模块或原生querystring模块</title>
<path fill="none" stroke="#000000" d="M1598.4605,-1583.0336C1620.0059,-1583.0336 1644.1825,-1583.0336 1668.653,-1583.0336"/>
<polygon fill="#000000" stroke="#000000" points="1668.7781,-1586.5337 1678.7781,-1583.0336 1668.7781,-1579.5337 1668.7781,-1586.5337"/>
</g>
<!-- utils.compileTrust -->
<g id="node39" class="node">
<title>utils.compileTrust</title>
<path fill="#e5e5e5" stroke="#000000" d="M1570.2483,-1534.3344C1570.2483,-1534.3344 1468.1171,-1534.3344 1468.1171,-1534.3344 1464.0169,-1534.3344 1459.9166,-1530.2341 1459.9166,-1526.1338 1459.9166,-1526.1338 1459.9166,-1517.9333 1459.9166,-1517.9333 1459.9166,-1513.833 1464.0169,-1509.7328 1468.1171,-1509.7328 1468.1171,-1509.7328 1570.2483,-1509.7328 1570.2483,-1509.7328 1574.3485,-1509.7328 1578.4488,-1513.833 1578.4488,-1517.9333 1578.4488,-1517.9333 1578.4488,-1526.1338 1578.4488,-1526.1338 1578.4488,-1530.2341 1574.3485,-1534.3344 1570.2483,-1534.3344"/>
<text text-anchor="middle" x="1519.1827" y="-1517.8336" font-family="Times,serif" font-size="14.00" fill="#000000">utils.compileTrust</text>
</g>
<!-- trust proxy&#45;&gt;utils.compileTrust -->
<g id="edge31" class="edge">
<title>trust proxy&#45;&gt;utils.compileTrust</title>
<path fill="none" stroke="#000000" d="M1281.1283,-1266.0364C1307.0218,-1268.1961 1339.8697,-1275.4834 1359.6498,-1297.0336 1422.4981,-1365.5063 1329.2622,-1437.9867 1395.6498,-1503.0336 1409.9695,-1517.0641 1430.0434,-1523.4421 1449.8528,-1525.8638"/>
<polygon fill="#000000" stroke="#000000" points="1449.5661,-1529.352 1459.8416,-1526.7702 1450.1988,-1522.3807 1449.5661,-1529.352"/>
</g>
<!-- false -->
<g id="node62" class="node">
<title>false</title>
<path fill="#e5e5e5" stroke="#000000" d="M1532.4093,-1278.3344C1532.4093,-1278.3344 1505.9561,-1278.3344 1505.9561,-1278.3344 1501.8558,-1278.3344 1497.7555,-1274.2341 1497.7555,-1270.1338 1497.7555,-1270.1338 1497.7555,-1261.9333 1497.7555,-1261.9333 1497.7555,-1257.833 1501.8558,-1253.7328 1505.9561,-1253.7328 1505.9561,-1253.7328 1532.4093,-1253.7328 1532.4093,-1253.7328 1536.5096,-1253.7328 1540.6099,-1257.833 1540.6099,-1261.9333 1540.6099,-1261.9333 1540.6099,-1270.1338 1540.6099,-1270.1338 1540.6099,-1274.2341 1536.5096,-1278.3344 1532.4093,-1278.3344"/>
<text text-anchor="middle" x="1519.1827" y="-1261.8336" font-family="Times,serif" font-size="14.00" fill="#000000">false</text>
</g>
<!-- trust proxy&#45;&gt;false -->
<g id="edge54" class="edge">
<title>trust proxy&#45;&gt;false</title>
<path fill="none" stroke="#000000" d="M1281.233,-1266.0336C1336.5015,-1266.0336 1436.8727,-1266.0336 1487.774,-1266.0336"/>
<polygon fill="#000000" stroke="#000000" points="1487.8509,-1269.5337 1497.8508,-1266.0336 1487.8508,-1262.5337 1487.8509,-1269.5337"/>
</g>
<!-- 更具参数决定配置。基于proxy&#45;addr模块 -->
<g id="node72" class="node">
<title>更具参数决定配置。基于proxy&#45;addr模块</title>
<path fill="#e5e5e5" stroke="#000000" d="M1956.1142,-1534.3344C1956.1142,-1534.3344 1717.0766,-1534.3344 1717.0766,-1534.3344 1712.9763,-1534.3344 1708.876,-1530.2341 1708.876,-1526.1338 1708.876,-1526.1338 1708.876,-1517.9333 1708.876,-1517.9333 1708.876,-1513.833 1712.9763,-1509.7328 1717.0766,-1509.7328 1717.0766,-1509.7328 1956.1142,-1509.7328 1956.1142,-1509.7328 1960.2145,-1509.7328 1964.3148,-1513.833 1964.3148,-1517.9333 1964.3148,-1517.9333 1964.3148,-1526.1338 1964.3148,-1526.1338 1964.3148,-1530.2341 1960.2145,-1534.3344 1956.1142,-1534.3344"/>
<text text-anchor="middle" x="1836.5954" y="-1517.8336" font-family="Times,serif" font-size="14.00" fill="#000000">更具参数决定配置。基于proxy&#45;addr模块</text>
</g>
<!-- utils.compileTrust&#45;&gt;更具参数决定配置。基于proxy&#45;addr模块 -->
<g id="edge61" class="edge">
<title>utils.compileTrust&#45;&gt;更具参数决定配置。基于proxy&#45;addr模块</title>
<path fill="none" stroke="#000000" d="M1578.5132,-1522.0336C1612.4843,-1522.0336 1656.6199,-1522.0336 1698.7582,-1522.0336"/>
<polygon fill="#000000" stroke="#000000" points="1698.848,-1525.5337 1708.8479,-1522.0336 1698.8479,-1518.5337 1698.848,-1525.5337"/>
</g>
<!-- router.Router -->
<g id="node41" class="node">
<title>router.Router</title>
<path fill="#e5e5e5" stroke="#000000" d="M762.3693,-311.3344C762.3693,-311.3344 687.7127,-311.3344 687.7127,-311.3344 683.6125,-311.3344 679.5122,-307.2341 679.5122,-303.1338 679.5122,-303.1338 679.5122,-294.9333 679.5122,-294.9333 679.5122,-290.833 683.6125,-286.7328 687.7127,-286.7328 687.7127,-286.7328 762.3693,-286.7328 762.3693,-286.7328 766.4695,-286.7328 770.5698,-290.833 770.5698,-294.9333 770.5698,-294.9333 770.5698,-303.1338 770.5698,-303.1338 770.5698,-307.2341 766.4695,-311.3344 762.3693,-311.3344"/>
<text text-anchor="middle" x="725.041" y="-294.8336" font-family="Times,serif" font-size="14.00" fill="#000000">router.Router</text>
</g>
<!-- 实例化Router&#45;&gt;router.Router -->
<g id="edge33" class="edge">
<title>实例化Router&#45;&gt;router.Router</title>
<path fill="none" stroke="#00ff00" d="M967.7652,-299.0336C917.3067,-299.0336 835.3247,-299.0336 780.7983,-299.0336"/>
<polygon fill="#00ff00" stroke="#00ff00" points="780.6137,-295.5337 770.6137,-299.0336 780.6137,-302.5337 780.6137,-295.5337"/>
</g>
<!-- 挂载 -->
<g id="node42" class="node">
<title>挂载</title>
<path fill="#e5e5e5" stroke="#000000" d="M269.1343,-358.3344C269.1343,-358.3344 222.4301,-358.3344 222.4301,-358.3344 218.3298,-358.3344 214.2296,-354.2341 214.2296,-350.1338 214.2296,-350.1338 214.2296,-341.9333 214.2296,-341.9333 214.2296,-337.833 218.3298,-333.7328 222.4301,-333.7328 222.4301,-333.7328 269.1343,-333.7328 269.1343,-333.7328 273.2346,-333.7328 277.3348,-337.833 277.3348,-341.9333 277.3348,-341.9333 277.3348,-350.1338 277.3348,-350.1338 277.3348,-354.2341 273.2346,-358.3344 269.1343,-358.3344"/>
<text text-anchor="middle" x="245.7822" y="-341.8336" font-family="Times,serif" font-size="14.00" fill="#000000">挂载</text>
</g>
<!-- router.Router&#45;&gt;挂载 -->
<g id="edge34" class="edge">
<title>router.Router&#45;&gt;挂载</title>
<path fill="none" stroke="#00ff00" d="M679.2946,-303.5198C586.4511,-312.6248 377.145,-333.1511 287.651,-341.9276"/>
<polygon fill="#00ff00" stroke="#00ff00" points="287.2095,-338.454 277.5989,-342.9134 287.8928,-345.4206 287.2095,-338.454"/>
</g>
<!-- 挂载&#45;&gt;this._router -->
<g id="edge35" class="edge">
<title>挂载&#45;&gt;this._router</title>
<path fill="none" stroke="#00ff00" d="M277.6749,-352.0664C301.2452,-356.7176 334.0511,-363.5961 362.53,-371.0336 377.9475,-375.06 394.6132,-380.0145 409.5578,-384.6818"/>
<polygon fill="#00ff00" stroke="#00ff00" points="408.5098,-388.0211 419.0997,-387.6947 410.6177,-381.346 408.5098,-388.0211"/>
</g>
<!-- middleware/query -->
<g id="node44" class="node">
<title>middleware/query</title>
<path fill="#e5e5e5" stroke="#000000" d="M1063.2994,-189.3344C1063.2994,-189.3344 962.003,-189.3344 962.003,-189.3344 957.9028,-189.3344 953.8025,-185.2341 953.8025,-181.1338 953.8025,-181.1338 953.8025,-172.9333 953.8025,-172.9333 953.8025,-168.833 957.9028,-164.7328 962.003,-164.7328 962.003,-164.7328 1063.2994,-164.7328 1063.2994,-164.7328 1067.3996,-164.7328 1071.4999,-168.833 1071.4999,-172.9333 1071.4999,-172.9333 1071.4999,-181.1338 1071.4999,-181.1338 1071.4999,-185.2341 1067.3996,-189.3344 1063.2994,-189.3344"/>
<text text-anchor="middle" x="1012.6512" y="-172.8336" font-family="Times,serif" font-size="14.00" fill="#000000">middleware/query</text>
</g>
<!-- router.use&#45;&gt;middleware/query -->
<g id="edge37" class="edge">
<title>router.use&#45;&gt;middleware/query</title>
<path fill="none" stroke="#000000" d="M760.7404,-232.6204C796.2263,-227.0257 852.1269,-217.6347 900.0218,-207.0336 919.7,-202.678 941.1147,-197.1705 959.936,-192.0668"/>
<polygon fill="#000000" stroke="#000000" points="961.0872,-195.3804 969.8075,-189.3631 959.2381,-188.6291 961.0872,-195.3804"/>
</g>
<!-- middleware/init -->
<g id="node45" class="node">
<title>middleware/init</title>
<path fill="#e5e5e5" stroke="#000000" d="M1056.5965,-250.3344C1056.5965,-250.3344 968.7059,-250.3344 968.7059,-250.3344 964.6057,-250.3344 960.5054,-246.2341 960.5054,-242.1338 960.5054,-242.1338 960.5054,-233.9333 960.5054,-233.9333 960.5054,-229.833 964.6057,-225.7328 968.7059,-225.7328 968.7059,-225.7328 1056.5965,-225.7328 1056.5965,-225.7328 1060.6967,-225.7328 1064.797,-229.833 1064.797,-233.9333 1064.797,-233.9333 1064.797,-242.1338 1064.797,-242.1338 1064.797,-246.2341 1060.6967,-250.3344 1056.5965,-250.3344"/>
<text text-anchor="middle" x="1012.6512" y="-233.8336" font-family="Times,serif" font-size="14.00" fill="#000000">middleware/init</text>
</g>
<!-- router.use&#45;&gt;middleware/init -->
<g id="edge38" class="edge">
<title>router.use&#45;&gt;middleware/init</title>
<path fill="none" stroke="#000000" d="M760.8855,-238.0336C808.2608,-238.0336 892.4754,-238.0336 950.368,-238.0336"/>
<polygon fill="#000000" stroke="#000000" points="950.4975,-241.5337 960.4975,-238.0336 950.4975,-234.5337 950.4975,-241.5337"/>
</g>
<!-- 直接调用对应router的route&#45;&gt;route -->
<g id="edge42" class="edge">
<title>直接调用对应router的route&#45;&gt;route</title>
<path fill="none" stroke="#000000" d="M332.5724,-114.3958C440.3332,-114.8455 618.8675,-115.5905 692.127,-115.8962"/>
<polygon fill="#000000" stroke="#000000" points="692.5386,-119.3979 702.5532,-115.9397 692.5679,-112.3979 692.5386,-119.3979"/>
</g>
<!-- router.param -->
<g id="node50" class="node">
<title>router.param</title>
<path fill="#e5e5e5" stroke="#000000" d="M760.7473,-189.3344C760.7473,-189.3344 689.3347,-189.3344 689.3347,-189.3344 685.2344,-189.3344 681.1342,-185.2341 681.1342,-181.1338 681.1342,-181.1338 681.1342,-172.9333 681.1342,-172.9333 681.1342,-168.833 685.2344,-164.7328 689.3347,-164.7328 689.3347,-164.7328 760.7473,-164.7328 760.7473,-164.7328 764.8476,-164.7328 768.9478,-168.833 768.9478,-172.9333 768.9478,-172.9333 768.9478,-181.1338 768.9478,-181.1338 768.9478,-185.2341 764.8476,-189.3344 760.7473,-189.3344"/>
<text text-anchor="middle" x="725.041" y="-172.8336" font-family="Times,serif" font-size="14.00" fill="#000000">router.param</text>
</g>
<!-- 直接调用对应router的param&#45;&gt;router.param -->
<g id="edge44" class="edge">
<title>直接调用对应router的param&#45;&gt;router.param</title>
<path fill="none" stroke="#000000" d="M310.4477,-252.7291C372.0212,-241.0581 467.3123,-223.1136 550.0602,-208.0336 590.5306,-200.6582 636.3127,-192.5559 670.8943,-186.4848"/>
<polygon fill="#000000" stroke="#000000" points="671.5468,-189.9238 680.7919,-184.7489 670.3376,-183.0291 671.5468,-189.9238"/>
</g>
<!-- 取得引擎&#45;&gt;this.engines -->
<g id="edge46" class="edge">
<title>取得引擎&#45;&gt;this.engines</title>
<path fill="none" stroke="#ff0000" d="M279.9295,-890.4594C303.5788,-888.6235 335.5363,-884.6469 362.53,-876.0336 385.9243,-868.5688 410.4571,-855.5365 428.5586,-844.788"/>
<polygon fill="#ff0000" stroke="#ff0000" points="430.6696,-847.6008 437.3982,-839.417 427.0346,-841.6186 430.6696,-847.6008"/>
</g>
<!-- view.render -->
<g id="node53" class="node">
<title>view.render</title>
<path fill="#e5e5e5" stroke="#000000" d="M1869.8584,-1729.3344C1869.8584,-1729.3344 1803.3324,-1729.3344 1803.3324,-1729.3344 1799.2322,-1729.3344 1795.1319,-1725.2341 1795.1319,-1721.1338 1795.1319,-1721.1338 1795.1319,-1712.9333 1795.1319,-1712.9333 1795.1319,-1708.833 1799.2322,-1704.7328 1803.3324,-1704.7328 1803.3324,-1704.7328 1869.8584,-1704.7328 1869.8584,-1704.7328 1873.9586,-1704.7328 1878.0589,-1708.833 1878.0589,-1712.9333 1878.0589,-1712.9333 1878.0589,-1721.1338 1878.0589,-1721.1338 1878.0589,-1725.2341 1873.9586,-1729.3344 1869.8584,-1729.3344"/>
<text text-anchor="middle" x="1836.5954" y="-1712.8336" font-family="Times,serif" font-size="14.00" fill="#000000">view.render</text>
</g>
<!-- view.View&#45;&gt;view.render -->
<g id="edge48" class="edge">
<title>view.View&#45;&gt;view.render</title>
<path fill="none" stroke="#ff0000" d="M1557.7864,-1717.0336C1614.7539,-1717.0336 1721.4406,-1717.0336 1785.0436,-1717.0336"/>
<polygon fill="#ff0000" stroke="#ff0000" points="1785.2494,-1720.5337 1795.2493,-1717.0336 1785.2493,-1713.5337 1785.2494,-1720.5337"/>
</g>
<!-- x&#45;powered&#45;by -->
<g id="node54" class="node">
<title>x&#45;powered&#45;by</title>
<path fill="#e5e5e5" stroke="#000000" d="M1281.2835,-1217.3344C1281.2835,-1217.3344 1203.6469,-1217.3344 1203.6469,-1217.3344 1199.5466,-1217.3344 1195.4464,-1213.2341 1195.4464,-1209.1338 1195.4464,-1209.1338 1195.4464,-1200.9333 1195.4464,-1200.9333 1195.4464,-1196.833 1199.5466,-1192.7328 1203.6469,-1192.7328 1203.6469,-1192.7328 1281.2835,-1192.7328 1281.2835,-1192.7328 1285.3838,-1192.7328 1289.484,-1196.833 1289.484,-1200.9333 1289.484,-1200.9333 1289.484,-1209.1338 1289.484,-1209.1338 1289.484,-1213.2341 1285.3838,-1217.3344 1281.2835,-1217.3344"/>
<text text-anchor="middle" x="1242.4652" y="-1200.8336" font-family="Times,serif" font-size="14.00" fill="#000000">x&#45;powered&#45;by</text>
</g>
<!-- true -->
<g id="node55" class="node">
<title>true</title>
<path fill="#e5e5e5" stroke="#000000" d="M1529.7487,-1217.3344C1529.7487,-1217.3344 1508.6167,-1217.3344 1508.6167,-1217.3344 1504.5164,-1217.3344 1500.4162,-1213.2341 1500.4162,-1209.1338 1500.4162,-1209.1338 1500.4162,-1200.9333 1500.4162,-1200.9333 1500.4162,-1196.833 1504.5164,-1192.7328 1508.6167,-1192.7328 1508.6167,-1192.7328 1529.7487,-1192.7328 1529.7487,-1192.7328 1533.849,-1192.7328 1537.9492,-1196.833 1537.9492,-1200.9333 1537.9492,-1200.9333 1537.9492,-1209.1338 1537.9492,-1209.1338 1537.9492,-1213.2341 1533.849,-1217.3344 1529.7487,-1217.3344"/>
<text text-anchor="middle" x="1519.1827" y="-1200.8336" font-family="Times,serif" font-size="14.00" fill="#000000">true</text>
</g>
<!-- x&#45;powered&#45;by&#45;&gt;true -->
<g id="edge49" class="edge">
<title>x&#45;powered&#45;by&#45;&gt;true</title>
<path fill="none" stroke="#000000" d="M1289.7202,-1205.0336C1347.1465,-1205.0336 1442.2661,-1205.0336 1489.9842,-1205.0336"/>
<polygon fill="#000000" stroke="#000000" points="1490.2322,-1208.5337 1500.2322,-1205.0336 1490.2321,-1201.5337 1490.2322,-1208.5337"/>
</g>
<!-- env -->
<g id="node57" class="node">
<title>env</title>
<path fill="#e5e5e5" stroke="#000000" d="M1252.4799,-1156.3344C1252.4799,-1156.3344 1232.4505,-1156.3344 1232.4505,-1156.3344 1228.3502,-1156.3344 1224.25,-1152.2341 1224.25,-1148.1338 1224.25,-1148.1338 1224.25,-1139.9333 1224.25,-1139.9333 1224.25,-1135.833 1228.3502,-1131.7328 1232.4505,-1131.7328 1232.4505,-1131.7328 1252.4799,-1131.7328 1252.4799,-1131.7328 1256.5802,-1131.7328 1260.6804,-1135.833 1260.6804,-1139.9333 1260.6804,-1139.9333 1260.6804,-1148.1338 1260.6804,-1148.1338 1260.6804,-1152.2341 1256.5802,-1156.3344 1252.4799,-1156.3344"/>
<text text-anchor="middle" x="1242.4652" y="-1139.8336" font-family="Times,serif" font-size="14.00" fill="#000000">env</text>
</g>
<!-- process.env.NODE_ENV||&#39;development&#39; -->
<g id="node58" class="node">
<title>process.env.NODE_ENV||&#39;development&#39;</title>
<path fill="#e5e5e5" stroke="#000000" d="M1634.548,-1156.3344C1634.548,-1156.3344 1403.8174,-1156.3344 1403.8174,-1156.3344 1399.7172,-1156.3344 1395.6169,-1152.2341 1395.6169,-1148.1338 1395.6169,-1148.1338 1395.6169,-1139.9333 1395.6169,-1139.9333 1395.6169,-1135.833 1399.7172,-1131.7328 1403.8174,-1131.7328 1403.8174,-1131.7328 1634.548,-1131.7328 1634.548,-1131.7328 1638.6482,-1131.7328 1642.7485,-1135.833 1642.7485,-1139.9333 1642.7485,-1139.9333 1642.7485,-1148.1338 1642.7485,-1148.1338 1642.7485,-1152.2341 1638.6482,-1156.3344 1634.548,-1156.3344"/>
<text text-anchor="middle" x="1519.1827" y="-1139.8336" font-family="Times,serif" font-size="14.00" fill="#000000">process.env.NODE_ENV||&#39;development&#39;</text>
</g>
<!-- env&#45;&gt;process.env.NODE_ENV||&#39;development&#39; -->
<g id="edge51" class="edge">
<title>env&#45;&gt;process.env.NODE_ENV||&#39;development&#39;</title>
<path fill="none" stroke="#000000" d="M1260.6214,-1144.0336C1286.4939,-1144.0336 1336.2876,-1144.0336 1385.3263,-1144.0336"/>
<polygon fill="#000000" stroke="#000000" points="1385.4429,-1147.5337 1395.4428,-1144.0336 1385.4428,-1140.5337 1385.4429,-1147.5337"/>
</g>
<!-- subdomain offset -->
<g id="node60" class="node">
<title>subdomain offset</title>
<path fill="#e5e5e5" stroke="#000000" d="M1290.5762,-1095.3344C1290.5762,-1095.3344 1194.3542,-1095.3344 1194.3542,-1095.3344 1190.2539,-1095.3344 1186.1536,-1091.2341 1186.1536,-1087.1338 1186.1536,-1087.1338 1186.1536,-1078.9333 1186.1536,-1078.9333 1186.1536,-1074.833 1190.2539,-1070.7328 1194.3542,-1070.7328 1194.3542,-1070.7328 1290.5762,-1070.7328 1290.5762,-1070.7328 1294.6765,-1070.7328 1298.7768,-1074.833 1298.7768,-1078.9333 1298.7768,-1078.9333 1298.7768,-1087.1338 1298.7768,-1087.1338 1298.7768,-1091.2341 1294.6765,-1095.3344 1290.5762,-1095.3344"/>
<text text-anchor="middle" x="1242.4652" y="-1078.8336" font-family="Times,serif" font-size="14.00" fill="#000000">subdomain offset</text>
</g>
<!-- 2 -->
<g id="node61" class="node">
<title>2</title>
<path fill="#e5e5e5" stroke="#000000" d="M1523.016,-1095.3344C1523.016,-1095.3344 1515.3494,-1095.3344 1515.3494,-1095.3344 1511.516,-1095.3344 1507.6827,-1091.501 1507.6827,-1087.6677 1507.6827,-1087.6677 1507.6827,-1078.3994 1507.6827,-1078.3994 1507.6827,-1074.5661 1511.516,-1070.7328 1515.3494,-1070.7328 1515.3494,-1070.7328 1523.016,-1070.7328 1523.016,-1070.7328 1526.8494,-1070.7328 1530.6827,-1074.5661 1530.6827,-1078.3994 1530.6827,-1078.3994 1530.6827,-1087.6677 1530.6827,-1087.6677 1530.6827,-1091.501 1526.8494,-1095.3344 1523.016,-1095.3344"/>
<text text-anchor="middle" x="1519.1827" y="-1078.8336" font-family="Times,serif" font-size="14.00" fill="#000000">2</text>
</g>
<!-- subdomain offset&#45;&gt;2 -->
<g id="edge53" class="edge">
<title>subdomain offset&#45;&gt;2</title>
<path fill="none" stroke="#000000" d="M1298.7967,-1083.0336C1360.1574,-1083.0336 1455.2057,-1083.0336 1497.5514,-1083.0336"/>
<polygon fill="#000000" stroke="#000000" points="1497.5795,-1086.5337 1507.5794,-1083.0336 1497.5794,-1079.5337 1497.5795,-1086.5337"/>
</g>
<!-- view -->
<g id="node63" class="node">
<title>view</title>
<path fill="#e5e5e5" stroke="#000000" d="M1255.977,-1461.3344C1255.977,-1461.3344 1228.9534,-1461.3344 1228.9534,-1461.3344 1224.8531,-1461.3344 1220.7529,-1457.2341 1220.7529,-1453.1338 1220.7529,-1453.1338 1220.7529,-1444.9333 1220.7529,-1444.9333 1220.7529,-1440.833 1224.8531,-1436.7328 1228.9534,-1436.7328 1228.9534,-1436.7328 1255.977,-1436.7328 1255.977,-1436.7328 1260.0773,-1436.7328 1264.1775,-1440.833 1264.1775,-1444.9333 1264.1775,-1444.9333 1264.1775,-1453.1338 1264.1775,-1453.1338 1264.1775,-1457.2341 1260.0773,-1461.3344 1255.977,-1461.3344"/>
<text text-anchor="middle" x="1242.4652" y="-1444.8336" font-family="Times,serif" font-size="14.00" fill="#000000">view</text>
</g>
<!-- view&#45;&gt;view.View -->
<g id="edge58" class="edge">
<title>view&#45;&gt;view.View</title>
<path fill="none" stroke="#000000" d="M1255.5572,-1461.5277C1279.3583,-1484.8901 1329.9932,-1537.6706 1359.6498,-1591.0336 1384.0235,-1634.8908 1357.2553,-1665.732 1395.6498,-1698.0336 1416.0808,-1715.2223 1445.4107,-1720.277 1470.3649,-1720.891"/>
<polygon fill="#000000" stroke="#000000" points="1470.3881,-1724.391 1480.3954,-1720.9121 1470.4028,-1717.391 1470.3881,-1724.391"/>
</g>
<!-- views -->
<g id="node64" class="node">
<title>views</title>
<path fill="#e5e5e5" stroke="#000000" d="M1258.4223,-1034.3344C1258.4223,-1034.3344 1226.5081,-1034.3344 1226.5081,-1034.3344 1222.4079,-1034.3344 1218.3076,-1030.2341 1218.3076,-1026.1338 1218.3076,-1026.1338 1218.3076,-1017.9333 1218.3076,-1017.9333 1218.3076,-1013.833 1222.4079,-1009.7328 1226.5081,-1009.7328 1226.5081,-1009.7328 1258.4223,-1009.7328 1258.4223,-1009.7328 1262.5225,-1009.7328 1266.6228,-1013.833 1266.6228,-1017.9333 1266.6228,-1017.9333 1266.6228,-1026.1338 1266.6228,-1026.1338 1266.6228,-1030.2341 1262.5225,-1034.3344 1258.4223,-1034.3344"/>
<text text-anchor="middle" x="1242.4652" y="-1017.8336" font-family="Times,serif" font-size="14.00" fill="#000000">views</text>
</g>
<!-- resolve(&#39;views&#39;) -->
<g id="node65" class="node">
<title>resolve(&#39;views&#39;)</title>
<path fill="#e5e5e5" stroke="#000000" d="M1564.7063,-1034.3344C1564.7063,-1034.3344 1473.6591,-1034.3344 1473.6591,-1034.3344 1469.5588,-1034.3344 1465.4585,-1030.2341 1465.4585,-1026.1338 1465.4585,-1026.1338 1465.4585,-1017.9333 1465.4585,-1017.9333 1465.4585,-1013.833 1469.5588,-1009.7328 1473.6591,-1009.7328 1473.6591,-1009.7328 1564.7063,-1009.7328 1564.7063,-1009.7328 1568.8066,-1009.7328 1572.9069,-1013.833 1572.9069,-1017.9333 1572.9069,-1017.9333 1572.9069,-1026.1338 1572.9069,-1026.1338 1572.9069,-1030.2341 1568.8066,-1034.3344 1564.7063,-1034.3344"/>
<text text-anchor="middle" x="1519.1827" y="-1017.8336" font-family="Times,serif" font-size="14.00" fill="#000000">resolve(&#39;views&#39;)</text>
</g>
<!-- views&#45;&gt;resolve(&#39;views&#39;) -->
<g id="edge55" class="edge">
<title>views&#45;&gt;resolve(&#39;views&#39;)</title>
<path fill="none" stroke="#000000" d="M1267.022,-1022.0336C1308.8473,-1022.0336 1395.1897,-1022.0336 1455.1095,-1022.0336"/>
<polygon fill="#000000" stroke="#000000" points="1455.2298,-1025.5337 1465.2297,-1022.0336 1455.2297,-1018.5337 1455.2298,-1025.5337"/>
</g>
<!-- jsonp callback name -->
<g id="node66" class="node">
<title>jsonp callback name</title>
<path fill="#e5e5e5" stroke="#000000" d="M1299.5596,-973.3344C1299.5596,-973.3344 1185.3708,-973.3344 1185.3708,-973.3344 1181.2705,-973.3344 1177.1703,-969.2341 1177.1703,-965.1338 1177.1703,-965.1338 1177.1703,-956.9333 1177.1703,-956.9333 1177.1703,-952.833 1181.2705,-948.7328 1185.3708,-948.7328 1185.3708,-948.7328 1299.5596,-948.7328 1299.5596,-948.7328 1303.6599,-948.7328 1307.7601,-952.833 1307.7601,-956.9333 1307.7601,-956.9333 1307.7601,-965.1338 1307.7601,-965.1338 1307.7601,-969.2341 1303.6599,-973.3344 1299.5596,-973.3344"/>
<text text-anchor="middle" x="1242.4652" y="-956.8336" font-family="Times,serif" font-size="14.00" fill="#000000">jsonp callback name</text>
</g>
<!-- callback -->
<g id="node67" class="node">
<title>callback</title>
<path fill="#e5e5e5" stroke="#000000" d="M1542.1228,-973.3344C1542.1228,-973.3344 1496.2426,-973.3344 1496.2426,-973.3344 1492.1423,-973.3344 1488.0421,-969.2341 1488.0421,-965.1338 1488.0421,-965.1338 1488.0421,-956.9333 1488.0421,-956.9333 1488.0421,-952.833 1492.1423,-948.7328 1496.2426,-948.7328 1496.2426,-948.7328 1542.1228,-948.7328 1542.1228,-948.7328 1546.2231,-948.7328 1550.3233,-952.833 1550.3233,-956.9333 1550.3233,-956.9333 1550.3233,-965.1338 1550.3233,-965.1338 1550.3233,-969.2341 1546.2231,-973.3344 1542.1228,-973.3344"/>
<text text-anchor="middle" x="1519.1827" y="-956.8336" font-family="Times,serif" font-size="14.00" fill="#000000">callback</text>
</g>
<!-- jsonp callback name&#45;&gt;callback -->
<g id="edge56" class="edge">
<title>jsonp callback name&#45;&gt;callback</title>
<path fill="none" stroke="#000000" d="M1307.693,-961.0336C1360.2066,-961.0336 1432.4444,-961.0336 1477.4471,-961.0336"/>
<polygon fill="#000000" stroke="#000000" points="1477.7212,-964.5337 1487.7212,-961.0336 1477.7211,-957.5337 1477.7212,-964.5337"/>
</g>
<!-- view cache -->
<g id="node68" class="node">
<title>view cache</title>
<path fill="#e5e5e5" stroke="#000000" d="M1273.336,-912.3344C1273.336,-912.3344 1211.5944,-912.3344 1211.5944,-912.3344 1207.4941,-912.3344 1203.3938,-908.2341 1203.3938,-904.1338 1203.3938,-904.1338 1203.3938,-895.9333 1203.3938,-895.9333 1203.3938,-891.833 1207.4941,-887.7328 1211.5944,-887.7328 1211.5944,-887.7328 1273.336,-887.7328 1273.336,-887.7328 1277.4363,-887.7328 1281.5366,-891.833 1281.5366,-895.9333 1281.5366,-895.9333 1281.5366,-904.1338 1281.5366,-904.1338 1281.5366,-908.2341 1277.4363,-912.3344 1273.336,-912.3344"/>
<text text-anchor="middle" x="1242.4652" y="-895.8336" font-family="Times,serif" font-size="14.00" fill="#000000">view cache</text>
</g>
<!-- 生产环境为true -->
<g id="node69" class="node">
<title>生产环境为true</title>
<path fill="#e5e5e5" stroke="#000000" d="M1565.1205,-912.3344C1565.1205,-912.3344 1473.2449,-912.3344 1473.2449,-912.3344 1469.1447,-912.3344 1465.0444,-908.2341 1465.0444,-904.1338 1465.0444,-904.1338 1465.0444,-895.9333 1465.0444,-895.9333 1465.0444,-891.833 1469.1447,-887.7328 1473.2449,-887.7328 1473.2449,-887.7328 1565.1205,-887.7328 1565.1205,-887.7328 1569.2207,-887.7328 1573.321,-891.833 1573.321,-895.9333 1573.321,-895.9333 1573.321,-904.1338 1573.321,-904.1338 1573.321,-908.2341 1569.2207,-912.3344 1565.1205,-912.3344"/>
<text text-anchor="middle" x="1519.1827" y="-895.8336" font-family="Times,serif" font-size="14.00" fill="#000000">生产环境为true</text>
</g>
<!-- view cache&#45;&gt;生产环境为true -->
<g id="edge57" class="edge">
<title>view cache&#45;&gt;生产环境为true</title>
<path fill="none" stroke="#000000" d="M1281.8182,-900.0336C1326.8855,-900.0336 1401.3829,-900.0336 1454.9051,-900.0336"/>
<polygon fill="#000000" stroke="#000000" points="1454.9786,-903.5337 1464.9786,-900.0336 1454.9785,-896.5337 1454.9786,-903.5337"/>
</g>
</g>
</svg>
