<?xml version="1.0" encoding="UTF-8" standalone="no"?>
<!DOCTYPE svg PUBLIC "-//W3C//DTD SVG 1.1//EN"
 "http://www.w3.org/Graphics/SVG/1.1/DTD/svg11.dtd">
<!-- Generated by graphviz version 2.40.1 (20161225.0304)
 -->
<!-- Title: tree Pages: 1 -->
<svg width="497pt" height="708pt"
 viewBox="0.00 0.00 497.35 707.80" xmlns="http://www.w3.org/2000/svg" xmlns:xlink="http://www.w3.org/1999/xlink">
<g id="graph0" class="graph" transform="scale(1 1) rotate(0) translate(4 703.8)">
<title>tree</title>
<polygon fill="#ffffff" stroke="transparent" points="-4,4 -4,-703.8 493.3544,-703.8 493.3544,4 -4,4"/>
<g id="clust1" class="cluster">
<title>cluster_express</title>
<polygon fill="none" stroke="#000000" points="8,-301.4 8,-427.4 139.5078,-427.4 139.5078,-301.4 8,-301.4"/>
<text text-anchor="middle" x="73.7539" y="-410.8" font-family="Times,serif" font-size="14.00" fill="#000000">express.js</text>
</g>
<g id="clust2" class="cluster">
<title>cluster_application</title>
<polygon fill="none" stroke="#000000" points="340.4269,-541.4 340.4269,-606.4 430.6415,-606.4 430.6415,-541.4 340.4269,-541.4"/>
<text text-anchor="middle" x="385.5342" y="-589.8" font-family="Times,serif" font-size="14.00" fill="#000000">application.js</text>
</g>
<g id="clust3" class="cluster">
<title>cluster_request</title>
<polygon fill="none" stroke="#000000" points="351.5966,-459.4 351.5966,-524.4 420.4718,-524.4 420.4718,-459.4 351.5966,-459.4"/>
<text text-anchor="middle" x="386.0342" y="-507.8" font-family="Times,serif" font-size="14.00" fill="#000000">request.js</text>
</g>
<g id="clust4" class="cluster">
<title>cluster_response</title>
<polygon fill="none" stroke="#000000" points="347.3743,-386.4 347.3743,-451.4 424.6941,-451.4 424.6941,-386.4 347.3743,-386.4"/>
<text text-anchor="middle" x="386.0342" y="-434.8" font-family="Times,serif" font-size="14.00" fill="#000000">response.js</text>
</g>
<g id="clust5" class="cluster">
<title>cluster_Route</title>
<polygon fill="none" stroke="#000000" points="330.4581,-313.4 330.4581,-378.4 440.6103,-378.4 440.6103,-313.4 330.4581,-313.4"/>
<text text-anchor="middle" x="385.5342" y="-361.8" font-family="Times,serif" font-size="14.00" fill="#000000">route.js</text>
</g>
<g id="clust6" class="cluster">
<title>cluster_Router</title>
<polygon fill="none" stroke="#000000" points="332.4034,-240.4 332.4034,-305.4 438.665,-305.4 438.665,-240.4 332.4034,-240.4"/>
<text text-anchor="middle" x="385.5342" y="-288.8" font-family="Times,serif" font-size="14.00" fill="#000000">router/index.js</text>
</g>
<g id="clust7" class="cluster">
<title>cluster_query</title>
<polygon fill="none" stroke="#000000" points="320.2414,-114.4 320.2414,-179.4 450.827,-179.4 450.827,-114.4 320.2414,-114.4"/>
<text text-anchor="middle" x="385.5342" y="-162.8" font-family="Times,serif" font-size="14.00" fill="#000000">middleware/query.js</text>
</g>
<!-- createApplication -->
<g id="node1" class="node">
<title>createApplication</title>
<path fill="#e5e5e5" stroke="#000000" d="M123.0622,-394.7008C123.0622,-394.7008 24.4456,-394.7008 24.4456,-394.7008 20.3453,-394.7008 16.2451,-390.6005 16.2451,-386.5003 16.2451,-386.5003 16.2451,-378.2997 16.2451,-378.2997 16.2451,-374.1995 20.3453,-370.0992 24.4456,-370.0992 24.4456,-370.0992 123.0622,-370.0992 123.0622,-370.0992 127.1625,-370.0992 131.2627,-374.1995 131.2627,-378.2997 131.2627,-378.2997 131.2627,-386.5003 131.2627,-386.5003 131.2627,-390.6005 127.1625,-394.7008 123.0622,-394.7008"/>
<text text-anchor="middle" x="73.7539" y="-378.2" font-family="Times,serif" font-size="14.00" fill="#000000">createApplication</text>
</g>
<!-- mixin -->
<g id="node3" class="node">
<title>mixin</title>
<path fill="#e5e5e5" stroke="#000000" d="M222.5833,-638.7008C222.5833,-638.7008 190.6385,-638.7008 190.6385,-638.7008 186.5383,-638.7008 182.438,-634.6005 182.438,-630.5003 182.438,-630.5003 182.438,-622.2997 182.438,-622.2997 182.438,-618.1995 186.5383,-614.0992 190.6385,-614.0992 190.6385,-614.0992 222.5833,-614.0992 222.5833,-614.0992 226.6835,-614.0992 230.7838,-618.1995 230.7838,-622.2997 230.7838,-622.2997 230.7838,-630.5003 230.7838,-630.5003 230.7838,-634.6005 226.6835,-638.7008 222.5833,-638.7008"/>
<text text-anchor="middle" x="206.6109" y="-622.2" font-family="Times,serif" font-size="14.00" fill="#000000">mixin</text>
</g>
<!-- createApplication&#45;&gt;mixin -->
<g id="edge2" class="edge">
<title>createApplication&#45;&gt;mixin</title>
<path fill="none" stroke="#000000" d="M76.9888,-395.0415C86.3545,-429.8436 116.145,-528.8851 167.5078,-595.4 170.7989,-599.662 174.797,-603.6818 178.9648,-607.3259"/>
<polygon fill="#000000" stroke="#000000" points="177.0637,-610.2888 187.0474,-613.8352 181.4544,-604.8369 177.0637,-610.2888"/>
</g>
<!-- app.init() -->
<g id="node7" class="node">
<title>app.init()</title>
<path fill="#e5e5e5" stroke="#000000" d="M232.1186,-577.7008C232.1186,-577.7008 181.1032,-577.7008 181.1032,-577.7008 177.0029,-577.7008 172.9027,-573.6005 172.9027,-569.5003 172.9027,-569.5003 172.9027,-561.2997 172.9027,-561.2997 172.9027,-557.1995 177.0029,-553.0992 181.1032,-553.0992 181.1032,-553.0992 232.1186,-553.0992 232.1186,-553.0992 236.2189,-553.0992 240.3191,-557.1995 240.3191,-561.2997 240.3191,-561.2997 240.3191,-569.5003 240.3191,-569.5003 240.3191,-573.6005 236.2189,-577.7008 232.1186,-577.7008"/>
<text text-anchor="middle" x="206.6109" y="-561.2" font-family="Times,serif" font-size="14.00" fill="#000000">app.init()</text>
</g>
<!-- createApplication&#45;&gt;app.init() -->
<g id="edge5" class="edge">
<title>createApplication&#45;&gt;app.init()</title>
<path fill="none" stroke="#000000" d="M79.5318,-394.792C92.6032,-422.0152 126.5196,-488.2824 167.5078,-534.4 171.3206,-538.6899 175.7788,-542.8356 180.2929,-546.6244"/>
<polygon fill="#000000" stroke="#000000" points="178.341,-549.5434 188.3516,-553.0128 182.6895,-544.0579 178.341,-549.5434"/>
</g>
<!-- exports -->
<g id="node2" class="node">
<title>exports</title>
<path fill="#e5e5e5" stroke="#000000" d="M94.2642,-333.7008C94.2642,-333.7008 53.2436,-333.7008 53.2436,-333.7008 49.1434,-333.7008 45.0431,-329.6005 45.0431,-325.5003 45.0431,-325.5003 45.0431,-317.2997 45.0431,-317.2997 45.0431,-313.1995 49.1434,-309.0992 53.2436,-309.0992 53.2436,-309.0992 94.2642,-309.0992 94.2642,-309.0992 98.3644,-309.0992 102.4647,-313.1995 102.4647,-317.2997 102.4647,-317.2997 102.4647,-325.5003 102.4647,-325.5003 102.4647,-329.6005 98.3644,-333.7008 94.2642,-333.7008"/>
<text text-anchor="middle" x="73.7539" y="-317.2" font-family="Times,serif" font-size="14.00" fill="#000000">exports</text>
</g>
<!-- application -->
<g id="node8" class="node">
<title>application</title>
<path fill="#e5e5e5" stroke="#000000" d="M237.6168,-516.7008C237.6168,-516.7008 175.605,-516.7008 175.605,-516.7008 171.5047,-516.7008 167.4044,-512.6005 167.4044,-508.5003 167.4044,-508.5003 167.4044,-500.2997 167.4044,-500.2997 167.4044,-496.1995 171.5047,-492.0992 175.605,-492.0992 175.605,-492.0992 237.6168,-492.0992 237.6168,-492.0992 241.7171,-492.0992 245.8174,-496.1995 245.8174,-500.2997 245.8174,-500.2997 245.8174,-508.5003 245.8174,-508.5003 245.8174,-512.6005 241.7171,-516.7008 237.6168,-516.7008"/>
<text text-anchor="middle" x="206.6109" y="-500.2" font-family="Times,serif" font-size="14.00" fill="#000000">application</text>
</g>
<!-- exports&#45;&gt;application -->
<g id="edge7" class="edge">
<title>exports&#45;&gt;application</title>
<path fill="none" stroke="#000000" d="M102.6585,-328.7285C115.7052,-333.4444 130.2364,-340.9073 139.5078,-352.4 174.1659,-395.3619 138.0029,-426.7483 167.5078,-473.4 170.3296,-477.8617 174.0237,-481.9559 178.0149,-485.6046"/>
<polygon fill="#000000" stroke="#000000" points="175.9467,-488.4345 185.905,-492.0518 180.376,-483.014 175.9467,-488.4345"/>
</g>
<!-- request -->
<g id="node9" class="node">
<title>request</title>
<path fill="#e5e5e5" stroke="#000000" d="M226.837,-455.7008C226.837,-455.7008 186.3848,-455.7008 186.3848,-455.7008 182.2846,-455.7008 178.1843,-451.6005 178.1843,-447.5003 178.1843,-447.5003 178.1843,-439.2997 178.1843,-439.2997 178.1843,-435.1995 182.2846,-431.0992 186.3848,-431.0992 186.3848,-431.0992 226.837,-431.0992 226.837,-431.0992 230.9372,-431.0992 235.0375,-435.1995 235.0375,-439.2997 235.0375,-439.2997 235.0375,-447.5003 235.0375,-447.5003 235.0375,-451.6005 230.9372,-455.7008 226.837,-455.7008"/>
<text text-anchor="middle" x="206.6109" y="-439.2" font-family="Times,serif" font-size="14.00" fill="#000000">request</text>
</g>
<!-- exports&#45;&gt;request -->
<g id="edge9" class="edge">
<title>exports&#45;&gt;request</title>
<path fill="none" stroke="#000000" d="M102.6311,-330.0239C115.2045,-334.9442 129.3542,-342.2065 139.5078,-352.4 160.2753,-373.2491 149.2672,-389.3077 167.5078,-412.4 170.9983,-416.8189 175.2371,-420.9923 179.6193,-424.76"/>
<polygon fill="#000000" stroke="#000000" points="177.5307,-427.5711 187.5314,-431.0692 181.895,-422.0981 177.5307,-427.5711"/>
</g>
<!-- response -->
<g id="node11" class="node">
<title>response</title>
<path fill="#e5e5e5" stroke="#000000" d="M230.8894,-394.7008C230.8894,-394.7008 182.3324,-394.7008 182.3324,-394.7008 178.2322,-394.7008 174.1319,-390.6005 174.1319,-386.5003 174.1319,-386.5003 174.1319,-378.2997 174.1319,-378.2997 174.1319,-374.1995 178.2322,-370.0992 182.3324,-370.0992 182.3324,-370.0992 230.8894,-370.0992 230.8894,-370.0992 234.9896,-370.0992 239.0899,-374.1995 239.0899,-378.2997 239.0899,-378.2997 239.0899,-386.5003 239.0899,-386.5003 239.0899,-390.6005 234.9896,-394.7008 230.8894,-394.7008"/>
<text text-anchor="middle" x="206.6109" y="-378.2" font-family="Times,serif" font-size="14.00" fill="#000000">response</text>
</g>
<!-- exports&#45;&gt;response -->
<g id="edge11" class="edge">
<title>exports&#45;&gt;response</title>
<path fill="none" stroke="#000000" d="M100.6395,-333.7443C120.7183,-342.9632 148.3753,-355.6617 170.4002,-365.7742"/>
<polygon fill="#000000" stroke="#000000" points="169.217,-369.0822 179.7653,-370.0741 172.1378,-362.7207 169.217,-369.0822"/>
</g>
<!-- Route -->
<g id="node13" class="node">
<title>Route</title>
<path fill="#e5e5e5" stroke="#000000" d="M223.3542,-333.7008C223.3542,-333.7008 189.8676,-333.7008 189.8676,-333.7008 185.7674,-333.7008 181.6671,-329.6005 181.6671,-325.5003 181.6671,-325.5003 181.6671,-317.2997 181.6671,-317.2997 181.6671,-313.1995 185.7674,-309.0992 189.8676,-309.0992 189.8676,-309.0992 223.3542,-309.0992 223.3542,-309.0992 227.4544,-309.0992 231.5547,-313.1995 231.5547,-317.2997 231.5547,-317.2997 231.5547,-325.5003 231.5547,-325.5003 231.5547,-329.6005 227.4544,-333.7008 223.3542,-333.7008"/>
<text text-anchor="middle" x="206.6109" y="-317.2" font-family="Times,serif" font-size="14.00" fill="#000000">Route</text>
</g>
<!-- exports&#45;&gt;Route -->
<g id="edge13" class="edge">
<title>exports&#45;&gt;Route</title>
<path fill="none" stroke="#000000" d="M102.5819,-321.4C122.9132,-321.4 150.2513,-321.4 171.8002,-321.4"/>
<polygon fill="#000000" stroke="#000000" points="171.8576,-324.9001 181.8576,-321.4 171.8576,-317.9001 171.8576,-324.9001"/>
</g>
<!-- Router -->
<g id="node15" class="node">
<title>Router</title>
<path fill="#e5e5e5" stroke="#000000" d="M225.5129,-272.7008C225.5129,-272.7008 187.7089,-272.7008 187.7089,-272.7008 183.6087,-272.7008 179.5084,-268.6005 179.5084,-264.5003 179.5084,-264.5003 179.5084,-256.2997 179.5084,-256.2997 179.5084,-252.1995 183.6087,-248.0992 187.7089,-248.0992 187.7089,-248.0992 225.5129,-248.0992 225.5129,-248.0992 229.6131,-248.0992 233.7134,-252.1995 233.7134,-256.2997 233.7134,-256.2997 233.7134,-264.5003 233.7134,-264.5003 233.7134,-268.6005 229.6131,-272.7008 225.5129,-272.7008"/>
<text text-anchor="middle" x="206.6109" y="-256.2" font-family="Times,serif" font-size="14.00" fill="#000000">Router</text>
</g>
<!-- exports&#45;&gt;Router -->
<g id="edge15" class="edge">
<title>exports&#45;&gt;Router</title>
<path fill="none" stroke="#000000" d="M100.6395,-309.0557C120.7183,-299.8368 148.3753,-287.1383 170.4002,-277.0258"/>
<polygon fill="#000000" stroke="#000000" points="172.1378,-280.0793 179.7653,-272.7259 169.217,-273.7178 172.1378,-280.0793"/>
</g>
<!-- json -->
<g id="node17" class="node">
<title>json</title>
<path fill="#e5e5e5" stroke="#000000" d="M218.247,-211.7008C218.247,-211.7008 194.9748,-211.7008 194.9748,-211.7008 190.8745,-211.7008 186.7743,-207.6005 186.7743,-203.5003 186.7743,-203.5003 186.7743,-195.2997 186.7743,-195.2997 186.7743,-191.1995 190.8745,-187.0992 194.9748,-187.0992 194.9748,-187.0992 218.247,-187.0992 218.247,-187.0992 222.3473,-187.0992 226.4475,-191.1995 226.4475,-195.2997 226.4475,-195.2997 226.4475,-203.5003 226.4475,-203.5003 226.4475,-207.6005 222.3473,-211.7008 218.247,-211.7008"/>
<text text-anchor="middle" x="206.6109" y="-195.2" font-family="Times,serif" font-size="14.00" fill="#000000">json</text>
</g>
<!-- exports&#45;&gt;json -->
<g id="edge17" class="edge">
<title>exports&#45;&gt;json</title>
<path fill="none" stroke="#000000" d="M85.8152,-308.9241C103.3144,-291.0036 136.9932,-257.1854 167.5078,-230.4 172.1793,-226.2994 177.3038,-222.0623 182.2606,-218.0872"/>
<polygon fill="#000000" stroke="#000000" points="184.6528,-220.658 190.3343,-211.7153 180.3161,-215.1631 184.6528,-220.658"/>
</g>
<!-- query -->
<g id="node19" class="node">
<title>query</title>
<path fill="#e5e5e5" stroke="#000000" d="M222.2857,-148.7008C222.2857,-148.7008 190.9361,-148.7008 190.9361,-148.7008 186.8358,-148.7008 182.7355,-144.6005 182.7355,-140.5003 182.7355,-140.5003 182.7355,-132.2997 182.7355,-132.2997 182.7355,-128.1995 186.8358,-124.0992 190.9361,-124.0992 190.9361,-124.0992 222.2857,-124.0992 222.2857,-124.0992 226.386,-124.0992 230.4863,-128.1995 230.4863,-132.2997 230.4863,-132.2997 230.4863,-140.5003 230.4863,-140.5003 230.4863,-144.6005 226.386,-148.7008 222.2857,-148.7008"/>
<text text-anchor="middle" x="206.6109" y="-132.2" font-family="Times,serif" font-size="14.00" fill="#000000">query</text>
</g>
<!-- exports&#45;&gt;query -->
<g id="edge19" class="edge">
<title>exports&#45;&gt;query</title>
<path fill="none" stroke="#000000" d="M79.8394,-308.6901C93.2649,-281.3999 127.4332,-215.9051 167.5078,-169.4 171.7699,-164.4539 176.808,-159.6278 181.8251,-155.2603"/>
<polygon fill="#000000" stroke="#000000" points="184.1196,-157.9045 189.5774,-148.8235 179.6479,-152.5189 184.1196,-157.9045"/>
</g>
<!-- static -->
<g id="node21" class="node">
<title>static</title>
<path fill="#e5e5e5" stroke="#000000" d="M220.9582,-86.7008C220.9582,-86.7008 192.2636,-86.7008 192.2636,-86.7008 188.1633,-86.7008 184.0631,-82.6005 184.0631,-78.5003 184.0631,-78.5003 184.0631,-70.2997 184.0631,-70.2997 184.0631,-66.1995 188.1633,-62.0992 192.2636,-62.0992 192.2636,-62.0992 220.9582,-62.0992 220.9582,-62.0992 225.0585,-62.0992 229.1587,-66.1995 229.1587,-70.2997 229.1587,-70.2997 229.1587,-78.5003 229.1587,-78.5003 229.1587,-82.6005 225.0585,-86.7008 220.9582,-86.7008"/>
<text text-anchor="middle" x="206.6109" y="-70.2" font-family="Times,serif" font-size="14.00" fill="#000000">static</text>
</g>
<!-- exports&#45;&gt;static -->
<g id="edge21" class="edge">
<title>exports&#45;&gt;static</title>
<path fill="none" stroke="#000000" d="M77.0134,-308.6806C86.4419,-273.6558 116.378,-173.9259 167.5078,-106.4 171.016,-101.7668 175.3273,-97.3885 179.791,-93.4435"/>
<polygon fill="#000000" stroke="#000000" points="182.3271,-95.8907 187.8497,-86.8491 177.894,-90.4733 182.3271,-95.8907"/>
</g>
<!-- urlencoded -->
<g id="node23" class="node">
<title>urlencoded</title>
<path fill="#e5e5e5" stroke="#000000" d="M237.6056,-25.7008C237.6056,-25.7008 175.6162,-25.7008 175.6162,-25.7008 171.5159,-25.7008 167.4157,-21.6005 167.4157,-17.5003 167.4157,-17.5003 167.4157,-9.2997 167.4157,-9.2997 167.4157,-5.1995 171.5159,-1.0992 175.6162,-1.0992 175.6162,-1.0992 237.6056,-1.0992 237.6056,-1.0992 241.7059,-1.0992 245.8061,-5.1995 245.8061,-9.2997 245.8061,-9.2997 245.8061,-17.5003 245.8061,-17.5003 245.8061,-21.6005 241.7059,-25.7008 237.6056,-25.7008"/>
<text text-anchor="middle" x="206.6109" y="-9.2" font-family="Times,serif" font-size="14.00" fill="#000000">urlencoded</text>
</g>
<!-- exports&#45;&gt;urlencoded -->
<g id="edge23" class="edge">
<title>exports&#45;&gt;urlencoded</title>
<path fill="none" stroke="#000000" d="M75.404,-308.9423C81.3613,-267.7417 104.8167,-133.4475 167.5078,-44.4 170.6076,-39.997 174.5073,-35.9045 178.6358,-32.2315"/>
<polygon fill="#000000" stroke="#000000" points="181.1259,-34.7194 186.7067,-25.7135 176.7278,-29.2735 181.1259,-34.7194"/>
</g>
<!-- 基于merge&#45;descriptors模块 -->
<g id="node4" class="node">
<title>基于merge&#45;descriptors模块</title>
<path fill="#e5e5e5" stroke="#000000" d="M461.9853,-699.7008C461.9853,-699.7008 309.0831,-699.7008 309.0831,-699.7008 304.9828,-699.7008 300.8825,-695.6005 300.8825,-691.5003 300.8825,-691.5003 300.8825,-683.2997 300.8825,-683.2997 300.8825,-679.1995 304.9828,-675.0992 309.0831,-675.0992 309.0831,-675.0992 461.9853,-675.0992 461.9853,-675.0992 466.0856,-675.0992 470.1859,-679.1995 470.1859,-683.2997 470.1859,-683.2997 470.1859,-691.5003 470.1859,-691.5003 470.1859,-695.6005 466.0856,-699.7008 461.9853,-699.7008"/>
<text text-anchor="middle" x="385.5342" y="-683.2" font-family="Times,serif" font-size="14.00" fill="#000000">基于merge&#45;descriptors模块</text>
</g>
<!-- mixin&#45;&gt;基于merge&#45;descriptors模块 -->
<g id="edge1" class="edge">
<title>mixin&#45;&gt;基于merge&#45;descriptors模块</title>
<path fill="none" stroke="#000000" d="M231.0935,-636.8264C245.6726,-642.8724 264.6092,-650.4436 281.714,-656.4 297.6756,-661.9583 315.2222,-667.4338 331.2749,-672.1998"/>
<polygon fill="#000000" stroke="#000000" points="330.4683,-675.6107 341.0494,-675.07 332.4406,-668.8942 330.4683,-675.6107"/>
</g>
<!-- EventEmitter -->
<g id="node5" class="node">
<title>EventEmitter</title>
<path fill="#e5e5e5" stroke="#000000" d="M422.4823,-638.7008C422.4823,-638.7008 348.5861,-638.7008 348.5861,-638.7008 344.4858,-638.7008 340.3855,-634.6005 340.3855,-630.5003 340.3855,-630.5003 340.3855,-622.2997 340.3855,-622.2997 340.3855,-618.1995 344.4858,-614.0992 348.5861,-614.0992 348.5861,-614.0992 422.4823,-614.0992 422.4823,-614.0992 426.5826,-614.0992 430.6829,-618.1995 430.6829,-622.2997 430.6829,-622.2997 430.6829,-630.5003 430.6829,-630.5003 430.6829,-634.6005 426.5826,-638.7008 422.4823,-638.7008"/>
<text text-anchor="middle" x="385.5342" y="-622.2" font-family="Times,serif" font-size="14.00" fill="#000000">EventEmitter</text>
</g>
<!-- mixin&#45;&gt;EventEmitter -->
<g id="edge3" class="edge">
<title>mixin&#45;&gt;EventEmitter</title>
<path fill="none" stroke="#000000" d="M231.1143,-626.4C256.5278,-626.4 297.1147,-626.4 330.3015,-626.4"/>
<polygon fill="#000000" stroke="#000000" points="330.3383,-629.9001 340.3382,-626.4 330.3382,-622.9001 330.3383,-629.9001"/>
</g>
<!-- app -->
<g id="node6" class="node">
<title>app</title>
<path fill="#e5e5e5" stroke="#000000" d="M395.5489,-573.7008C395.5489,-573.7008 375.5195,-573.7008 375.5195,-573.7008 371.4192,-573.7008 367.319,-569.6005 367.319,-565.5003 367.319,-565.5003 367.319,-557.2997 367.319,-557.2997 367.319,-553.1995 371.4192,-549.0992 375.5195,-549.0992 375.5195,-549.0992 395.5489,-549.0992 395.5489,-549.0992 399.6492,-549.0992 403.7494,-553.1995 403.7494,-557.2997 403.7494,-557.2997 403.7494,-565.5003 403.7494,-565.5003 403.7494,-569.6005 399.6492,-573.7008 395.5489,-573.7008"/>
<text text-anchor="middle" x="385.5342" y="-557.2" font-family="Times,serif" font-size="14.00" fill="#000000">app</text>
</g>
<!-- mixin&#45;&gt;app -->
<g id="edge4" class="edge">
<title>mixin&#45;&gt;app</title>
<path fill="none" stroke="#000000" d="M230.8335,-616.3324C245.4848,-610.341 264.5843,-602.7033 281.714,-596.4 307.3328,-586.973 336.8561,-577.1159 357.8546,-570.2736"/>
<polygon fill="#000000" stroke="#000000" points="358.9902,-573.5849 367.4238,-567.1719 356.8318,-566.9259 358.9902,-573.5849"/>
</g>
<!-- app.init()&#45;&gt;app -->
<g id="edge6" class="edge">
<title>app.init()&#45;&gt;app</title>
<path fill="none" stroke="#000000" d="M240.6862,-564.6382C274.2447,-563.888 324.9457,-562.7545 356.6025,-562.0468"/>
<polygon fill="#000000" stroke="#000000" points="357.0271,-565.5383 366.9464,-561.8155 356.8706,-558.54 357.0271,-565.5383"/>
</g>
<!-- application&#45;&gt;app -->
<g id="edge8" class="edge">
<title>application&#45;&gt;app</title>
<path fill="none" stroke="#000000" d="M236.6805,-516.8431C250.3095,-522.2668 266.7018,-528.4923 281.714,-533.4 307.064,-541.6873 336.4531,-549.445 357.4785,-554.6834"/>
<polygon fill="#000000" stroke="#000000" points="356.8127,-558.1238 367.3592,-557.1131 358.4843,-551.3263 356.8127,-558.1238"/>
</g>
<!-- req -->
<g id="node10" class="node">
<title>req</title>
<path fill="#e5e5e5" stroke="#000000" d="M394.2091,-491.7008C394.2091,-491.7008 376.8593,-491.7008 376.8593,-491.7008 372.759,-491.7008 368.6588,-487.6005 368.6588,-483.5003 368.6588,-483.5003 368.6588,-475.2997 368.6588,-475.2997 368.6588,-471.1995 372.759,-467.0992 376.8593,-467.0992 376.8593,-467.0992 394.2091,-467.0992 394.2091,-467.0992 398.3094,-467.0992 402.4096,-471.1995 402.4096,-475.2997 402.4096,-475.2997 402.4096,-483.5003 402.4096,-483.5003 402.4096,-487.6005 398.3094,-491.7008 394.2091,-491.7008"/>
<text text-anchor="middle" x="385.5342" y="-475.2" font-family="Times,serif" font-size="14.00" fill="#000000">req</text>
</g>
<!-- request&#45;&gt;req -->
<g id="edge10" class="edge">
<title>request&#45;&gt;req</title>
<path fill="none" stroke="#000000" d="M235.0811,-450.1376C249.0951,-453.3792 266.2592,-457.2381 281.714,-460.4 307.7021,-465.7169 337.4977,-471.0963 358.4842,-474.7673"/>
<polygon fill="#000000" stroke="#000000" points="358.1376,-478.2594 368.5889,-476.5219 359.3352,-471.3626 358.1376,-478.2594"/>
</g>
<!-- res -->
<g id="node12" class="node">
<title>res</title>
<path fill="#e5e5e5" stroke="#000000" d="M393.6551,-418.7008C393.6551,-418.7008 377.4133,-418.7008 377.4133,-418.7008 373.3131,-418.7008 369.2128,-414.6005 369.2128,-410.5003 369.2128,-410.5003 369.2128,-402.2997 369.2128,-402.2997 369.2128,-398.1995 373.3131,-394.0992 377.4133,-394.0992 377.4133,-394.0992 393.6551,-394.0992 393.6551,-394.0992 397.7553,-394.0992 401.8556,-398.1995 401.8556,-402.2997 401.8556,-402.2997 401.8556,-410.5003 401.8556,-410.5003 401.8556,-414.6005 397.7553,-418.7008 393.6551,-418.7008"/>
<text text-anchor="middle" x="385.5342" y="-402.2" font-family="Times,serif" font-size="14.00" fill="#000000">res</text>
</g>
<!-- response&#45;&gt;res -->
<g id="edge12" class="edge">
<title>response&#45;&gt;res</title>
<path fill="none" stroke="#000000" d="M239.4282,-386.802C273.7216,-391.4019 326.8796,-398.5323 358.7377,-402.8056"/>
<polygon fill="#000000" stroke="#000000" points="358.6756,-406.3286 369.0522,-404.1892 359.6063,-399.3907 358.6756,-406.3286"/>
</g>
<!-- exports.Route -->
<g id="node14" class="node">
<title>exports.Route</title>
<path fill="#e5e5e5" stroke="#000000" d="M424.486,-345.7008C424.486,-345.7008 346.5824,-345.7008 346.5824,-345.7008 342.4821,-345.7008 338.3819,-341.6005 338.3819,-337.5003 338.3819,-337.5003 338.3819,-329.2997 338.3819,-329.2997 338.3819,-325.1995 342.4821,-321.0992 346.5824,-321.0992 346.5824,-321.0992 424.486,-321.0992 424.486,-321.0992 428.5863,-321.0992 432.6865,-325.1995 432.6865,-329.2997 432.6865,-329.2997 432.6865,-337.5003 432.6865,-337.5003 432.6865,-341.6005 428.5863,-345.7008 424.486,-345.7008"/>
<text text-anchor="middle" x="385.5342" y="-329.2" font-family="Times,serif" font-size="14.00" fill="#000000">exports.Route</text>
</g>
<!-- Route&#45;&gt;exports.Route -->
<g id="edge14" class="edge">
<title>Route&#45;&gt;exports.Route</title>
<path fill="none" stroke="#000000" d="M231.4894,-323.0685C256.3565,-324.7363 295.4785,-327.3602 328.073,-329.5462"/>
<polygon fill="#000000" stroke="#000000" points="328.1881,-333.0617 338.3999,-330.2388 328.6566,-326.0774 328.1881,-333.0617"/>
</g>
<!-- exports.proto -->
<g id="node16" class="node">
<title>exports.proto</title>
<path fill="#e5e5e5" stroke="#000000" d="M422.5956,-272.7008C422.5956,-272.7008 348.4728,-272.7008 348.4728,-272.7008 344.3725,-272.7008 340.2722,-268.6005 340.2722,-264.5003 340.2722,-264.5003 340.2722,-256.2997 340.2722,-256.2997 340.2722,-252.1995 344.3725,-248.0992 348.4728,-248.0992 348.4728,-248.0992 422.5956,-248.0992 422.5956,-248.0992 426.6959,-248.0992 430.7962,-252.1995 430.7962,-256.2997 430.7962,-256.2997 430.7962,-264.5003 430.7962,-264.5003 430.7962,-268.6005 426.6959,-272.7008 422.5956,-272.7008"/>
<text text-anchor="middle" x="385.5342" y="-256.2" font-family="Times,serif" font-size="14.00" fill="#000000">exports.proto</text>
</g>
<!-- Router&#45;&gt;exports.proto -->
<g id="edge16" class="edge">
<title>Router&#45;&gt;exports.proto</title>
<path fill="none" stroke="#000000" d="M233.7855,-260.4C259.2792,-260.4 298.1697,-260.4 330.1968,-260.4"/>
<polygon fill="#000000" stroke="#000000" points="330.3283,-263.9001 340.3283,-260.4 330.3283,-256.9001 330.3283,-263.9001"/>
</g>
<!-- 基于body&#45;parser模块的json -->
<g id="node18" class="node">
<title>基于body&#45;parser模块的json</title>
<path fill="#e5e5e5" stroke="#000000" d="M461.6144,-211.7008C461.6144,-211.7008 309.454,-211.7008 309.454,-211.7008 305.3537,-211.7008 301.2535,-207.6005 301.2535,-203.5003 301.2535,-203.5003 301.2535,-195.2997 301.2535,-195.2997 301.2535,-191.1995 305.3537,-187.0992 309.454,-187.0992 309.454,-187.0992 461.6144,-187.0992 461.6144,-187.0992 465.7147,-187.0992 469.8149,-191.1995 469.8149,-195.2997 469.8149,-195.2997 469.8149,-203.5003 469.8149,-203.5003 469.8149,-207.6005 465.7147,-211.7008 461.6144,-211.7008"/>
<text text-anchor="middle" x="385.5342" y="-195.2" font-family="Times,serif" font-size="14.00" fill="#000000">基于body&#45;parser模块的json</text>
</g>
<!-- json&#45;&gt;基于body&#45;parser模块的json -->
<g id="edge18" class="edge">
<title>json&#45;&gt;基于body&#45;parser模块的json</title>
<path fill="none" stroke="#000000" d="M226.4425,-199.4C242.5161,-199.4 266.4378,-199.4 290.8783,-199.4"/>
<polygon fill="#000000" stroke="#000000" points="290.9908,-202.9001 300.9908,-199.4 290.9907,-195.9001 290.9908,-202.9001"/>
</g>
<!-- exports.query -->
<g id="node20" class="node">
<title>exports.query</title>
<path fill="#e5e5e5" stroke="#000000" d="M423.4202,-146.7008C423.4202,-146.7008 347.6482,-146.7008 347.6482,-146.7008 343.5479,-146.7008 339.4477,-142.6005 339.4477,-138.5003 339.4477,-138.5003 339.4477,-130.2997 339.4477,-130.2997 339.4477,-126.1995 343.5479,-122.0992 347.6482,-122.0992 347.6482,-122.0992 423.4202,-122.0992 423.4202,-122.0992 427.5205,-122.0992 431.6207,-126.1995 431.6207,-130.2997 431.6207,-130.2997 431.6207,-138.5003 431.6207,-138.5003 431.6207,-142.6005 427.5205,-146.7008 423.4202,-146.7008"/>
<text text-anchor="middle" x="385.5342" y="-130.2" font-family="Times,serif" font-size="14.00" fill="#000000">exports.query</text>
</g>
<!-- query&#45;&gt;exports.query -->
<g id="edge20" class="edge">
<title>query&#45;&gt;exports.query</title>
<path fill="none" stroke="#000000" d="M230.7413,-136.1303C255.8968,-135.8491 296.2053,-135.3985 329.3831,-135.0277"/>
<polygon fill="#000000" stroke="#000000" points="329.4659,-138.527 339.4261,-134.9154 329.3876,-131.5275 329.4659,-138.527"/>
</g>
<!-- 基于serve&#45;static模块 -->
<g id="node22" class="node">
<title>基于serve&#45;static模块</title>
<path fill="#e5e5e5" stroke="#000000" d="M443.1642,-85.7008C443.1642,-85.7008 327.9042,-85.7008 327.9042,-85.7008 323.804,-85.7008 319.7037,-81.6005 319.7037,-77.5003 319.7037,-77.5003 319.7037,-69.2997 319.7037,-69.2997 319.7037,-65.1995 323.804,-61.0992 327.9042,-61.0992 327.9042,-61.0992 443.1642,-61.0992 443.1642,-61.0992 447.2644,-61.0992 451.3647,-65.1995 451.3647,-69.2997 451.3647,-69.2997 451.3647,-77.5003 451.3647,-77.5003 451.3647,-81.6005 447.2644,-85.7008 443.1642,-85.7008"/>
<text text-anchor="middle" x="385.5342" y="-69.2" font-family="Times,serif" font-size="14.00" fill="#000000">基于serve&#45;static模块</text>
</g>
<!-- static&#45;&gt;基于serve&#45;static模块 -->
<g id="edge22" class="edge">
<title>static&#45;&gt;基于serve&#45;static模块</title>
<path fill="none" stroke="#000000" d="M229.2717,-74.2733C249.5438,-74.16 280.4483,-73.9873 309.4374,-73.8253"/>
<polygon fill="#000000" stroke="#000000" points="309.6105,-77.3245 319.5907,-73.7686 309.5713,-70.3246 309.6105,-77.3245"/>
</g>
<!-- 基于body&#45;parser模块的urlencoded -->
<g id="node24" class="node">
<title>基于body&#45;parser模块的urlencoded</title>
<path fill="#e5e5e5" stroke="#000000" d="M480.9744,-24.7008C480.9744,-24.7008 290.094,-24.7008 290.094,-24.7008 285.9938,-24.7008 281.8935,-20.6005 281.8935,-16.5003 281.8935,-16.5003 281.8935,-8.2997 281.8935,-8.2997 281.8935,-4.1995 285.9938,-.0992 290.094,-.0992 290.094,-.0992 480.9744,-.0992 480.9744,-.0992 485.0746,-.0992 489.1749,-4.1995 489.1749,-8.2997 489.1749,-8.2997 489.1749,-16.5003 489.1749,-16.5003 489.1749,-20.6005 485.0746,-24.7008 480.9744,-24.7008"/>
<text text-anchor="middle" x="385.5342" y="-8.2" font-family="Times,serif" font-size="14.00" fill="#000000">基于body&#45;parser模块的urlencoded</text>
</g>
<!-- urlencoded&#45;&gt;基于body&#45;parser模块的urlencoded -->
<g id="edge24" class="edge">
<title>urlencoded&#45;&gt;基于body&#45;parser模块的urlencoded</title>
<path fill="none" stroke="#000000" d="M245.8764,-13.1805C253.7242,-13.1367 262.3339,-13.0886 271.3043,-13.0384"/>
<polygon fill="#000000" stroke="#000000" points="271.5838,-16.537 281.564,-12.9811 271.5446,-9.5371 271.5838,-16.537"/>
</g>
</g>
</svg>
