<?xml version="1.0" encoding="UTF-8" standalone="no"?>
<!DOCTYPE svg PUBLIC "-//W3C//DTD SVG 1.1//EN"
 "http://www.w3.org/Graphics/SVG/1.1/DTD/svg11.dtd">
<!-- Generated by graphviz version 2.40.1 (20161225.0304)
 -->
<!-- Title: tree Pages: 1 -->
<svg width="1087pt" height="1199pt"
 viewBox="0.00 0.00 1087.49 1199.00" xmlns="http://www.w3.org/2000/svg" xmlns:xlink="http://www.w3.org/1999/xlink">
<g id="graph0" class="graph" transform="scale(1 1) rotate(0) translate(4 1195)">
<title>tree</title>
<polygon fill="#ffffff" stroke="transparent" points="-4,4 -4,-1195 1083.4864,-1195 1083.4864,4 -4,4"/>
<g id="clust1" class="cluster">
<title>cluster_request</title>
<polygon fill="none" stroke="#000000" points="8,-203 8,-1183 1071.4864,-1183 1071.4864,-203 8,-203"/>
<text text-anchor="middle" x="539.7432" y="-1166.4" font-family="Times,serif" font-size="14.00" fill="#000000">request.js</text>
</g>
<g id="clust2" class="cluster">
<title>cluster_http_header</title>
<polygon fill="none" stroke="#000000" points="594.604,-8 594.604,-195 737.0052,-195 737.0052,-8 594.604,-8"/>
<text text-anchor="middle" x="665.8046" y="-178.4" font-family="Times,serif" font-size="14.00" fill="#000000">http头</text>
</g>
<!-- req -->
<g id="node1" class="node">
<title>req</title>
<path fill="#e5e5e5" stroke="#000000" d="M98.9404,-1150.3008C98.9404,-1150.3008 81.5906,-1150.3008 81.5906,-1150.3008 77.4903,-1150.3008 73.3901,-1146.2005 73.3901,-1142.1003 73.3901,-1142.1003 73.3901,-1133.8997 73.3901,-1133.8997 73.3901,-1129.7995 77.4903,-1125.6992 81.5906,-1125.6992 81.5906,-1125.6992 98.9404,-1125.6992 98.9404,-1125.6992 103.0407,-1125.6992 107.1409,-1129.7995 107.1409,-1133.8997 107.1409,-1133.8997 107.1409,-1142.1003 107.1409,-1142.1003 107.1409,-1146.2005 103.0407,-1150.3008 98.9404,-1150.3008"/>
<text text-anchor="middle" x="90.2655" y="-1133.8" font-family="Times,serif" font-size="14.00" fill="#000000">req</text>
</g>
<!-- 基于原生http模块IncomingMessage -->
<g id="node2" class="node">
<title>基于原生http模块IncomingMessage</title>
<path fill="#e5e5e5" stroke="#000000" d="M539.6537,-1150.3008C539.6537,-1150.3008 343.0437,-1150.3008 343.0437,-1150.3008 338.9434,-1150.3008 334.8431,-1146.2005 334.8431,-1142.1003 334.8431,-1142.1003 334.8431,-1133.8997 334.8431,-1133.8997 334.8431,-1129.7995 338.9434,-1125.6992 343.0437,-1125.6992 343.0437,-1125.6992 539.6537,-1125.6992 539.6537,-1125.6992 543.754,-1125.6992 547.8543,-1129.7995 547.8543,-1133.8997 547.8543,-1133.8997 547.8543,-1142.1003 547.8543,-1142.1003 547.8543,-1146.2005 543.754,-1150.3008 539.6537,-1150.3008"/>
<text text-anchor="middle" x="441.3487" y="-1133.8" font-family="Times,serif" font-size="14.00" fill="#000000">基于原生http模块IncomingMessage</text>
</g>
<!-- req&#45;&gt;基于原生http模块IncomingMessage -->
<g id="edge1" class="edge">
<title>req&#45;&gt;基于原生http模块IncomingMessage</title>
<path fill="none" stroke="#000000" d="M107.199,-1138C146.0801,-1138 244.5576,-1138 324.5985,-1138"/>
<polygon fill="#000000" stroke="#000000" points="324.7613,-1141.5001 334.7612,-1138 324.7612,-1134.5001 324.7613,-1141.5001"/>
</g>
<!-- req.accepts() -->
<g id="node3" class="node">
<title>req.accepts()</title>
<path fill="#e5e5e5" stroke="#000000" d="M125.955,-1028.3008C125.955,-1028.3008 54.576,-1028.3008 54.576,-1028.3008 50.4757,-1028.3008 46.3754,-1024.2005 46.3754,-1020.1003 46.3754,-1020.1003 46.3754,-1011.8997 46.3754,-1011.8997 46.3754,-1007.7995 50.4757,-1003.6992 54.576,-1003.6992 54.576,-1003.6992 125.955,-1003.6992 125.955,-1003.6992 130.0553,-1003.6992 134.1556,-1007.7995 134.1556,-1011.8997 134.1556,-1011.8997 134.1556,-1020.1003 134.1556,-1020.1003 134.1556,-1024.2005 130.0553,-1028.3008 125.955,-1028.3008"/>
<text text-anchor="middle" x="90.2655" y="-1011.8" font-family="Times,serif" font-size="14.00" fill="#000000">req.accepts()</text>
</g>
<!-- 基于accepts模块 -->
<g id="node4" class="node">
<title>基于accepts模块</title>
<path fill="#e5e5e5" stroke="#000000" d="M487.9319,-1028.3008C487.9319,-1028.3008 394.7655,-1028.3008 394.7655,-1028.3008 390.6652,-1028.3008 386.5649,-1024.2005 386.5649,-1020.1003 386.5649,-1020.1003 386.5649,-1011.8997 386.5649,-1011.8997 386.5649,-1007.7995 390.6652,-1003.6992 394.7655,-1003.6992 394.7655,-1003.6992 487.9319,-1003.6992 487.9319,-1003.6992 492.0322,-1003.6992 496.1325,-1007.7995 496.1325,-1011.8997 496.1325,-1011.8997 496.1325,-1020.1003 496.1325,-1020.1003 496.1325,-1024.2005 492.0322,-1028.3008 487.9319,-1028.3008"/>
<text text-anchor="middle" x="441.3487" y="-1011.8" font-family="Times,serif" font-size="14.00" fill="#000000">基于accepts模块</text>
</g>
<!-- req.accepts()&#45;&gt;基于accepts模块 -->
<g id="edge2" class="edge">
<title>req.accepts()&#45;&gt;基于accepts模块</title>
<path fill="none" stroke="#000000" d="M134.3749,-1016C195.3732,-1016 305.9132,-1016 376.3719,-1016"/>
<polygon fill="#000000" stroke="#000000" points="376.466,-1019.5001 386.466,-1016 376.4659,-1012.5001 376.466,-1019.5001"/>
</g>
<!-- req.acceptsEncodings() -->
<g id="node5" class="node">
<title>req.acceptsEncodings()</title>
<path fill="#e5e5e5" stroke="#000000" d="M155.5574,-967.3008C155.5574,-967.3008 24.9736,-967.3008 24.9736,-967.3008 20.8734,-967.3008 16.7731,-963.2005 16.7731,-959.1003 16.7731,-959.1003 16.7731,-950.8997 16.7731,-950.8997 16.7731,-946.7995 20.8734,-942.6992 24.9736,-942.6992 24.9736,-942.6992 155.5574,-942.6992 155.5574,-942.6992 159.6576,-942.6992 163.7579,-946.7995 163.7579,-950.8997 163.7579,-950.8997 163.7579,-959.1003 163.7579,-959.1003 163.7579,-963.2005 159.6576,-967.3008 155.5574,-967.3008"/>
<text text-anchor="middle" x="90.2655" y="-950.8" font-family="Times,serif" font-size="14.00" fill="#000000">req.acceptsEncodings()</text>
</g>
<!-- req.acceptsEncodings()&#45;&gt;基于accepts模块 -->
<g id="edge3" class="edge">
<title>req.acceptsEncodings()&#45;&gt;基于accepts模块</title>
<path fill="none" stroke="#000000" d="M161.3124,-967.3443C224.3261,-978.2928 315.5844,-994.1487 376.6145,-1004.7526"/>
<polygon fill="#000000" stroke="#000000" points="376.0645,-1008.2094 386.5161,-1006.4729 377.2628,-1001.3127 376.0645,-1008.2094"/>
</g>
<!-- req.acceptsCharsets() -->
<g id="node6" class="node">
<title>req.acceptsCharsets()</title>
<path fill="#e5e5e5" stroke="#000000" d="M150.1612,-906.3008C150.1612,-906.3008 30.3698,-906.3008 30.3698,-906.3008 26.2695,-906.3008 22.1693,-902.2005 22.1693,-898.1003 22.1693,-898.1003 22.1693,-889.8997 22.1693,-889.8997 22.1693,-885.7995 26.2695,-881.6992 30.3698,-881.6992 30.3698,-881.6992 150.1612,-881.6992 150.1612,-881.6992 154.2615,-881.6992 158.3617,-885.7995 158.3617,-889.8997 158.3617,-889.8997 158.3617,-898.1003 158.3617,-898.1003 158.3617,-902.2005 154.2615,-906.3008 150.1612,-906.3008"/>
<text text-anchor="middle" x="90.2655" y="-889.8" font-family="Times,serif" font-size="14.00" fill="#000000">req.acceptsCharsets()</text>
</g>
<!-- req.acceptsCharsets()&#45;&gt;基于accepts模块 -->
<g id="edge4" class="edge">
<title>req.acceptsCharsets()&#45;&gt;基于accepts模块</title>
<path fill="none" stroke="#000000" d="M127.9828,-906.3889C166.738,-919.5157 228.5241,-941.5529 280.0934,-965 297.1102,-972.7371 299.6655,-978.2399 317.0934,-985 335.9807,-992.3262 357.1641,-998.3644 376.6165,-1003.1034"/>
<polygon fill="#000000" stroke="#000000" points="376.0729,-1006.5712 386.6097,-1005.4631 377.6817,-999.7586 376.0729,-1006.5712"/>
</g>
<!-- req.acceptsLanguages() -->
<g id="node7" class="node">
<title>req.acceptsLanguages()</title>
<path fill="#e5e5e5" stroke="#000000" d="M156.0967,-1089.3008C156.0967,-1089.3008 24.4343,-1089.3008 24.4343,-1089.3008 20.334,-1089.3008 16.2338,-1085.2005 16.2338,-1081.1003 16.2338,-1081.1003 16.2338,-1072.8997 16.2338,-1072.8997 16.2338,-1068.7995 20.334,-1064.6992 24.4343,-1064.6992 24.4343,-1064.6992 156.0967,-1064.6992 156.0967,-1064.6992 160.197,-1064.6992 164.2972,-1068.7995 164.2972,-1072.8997 164.2972,-1072.8997 164.2972,-1081.1003 164.2972,-1081.1003 164.2972,-1085.2005 160.197,-1089.3008 156.0967,-1089.3008"/>
<text text-anchor="middle" x="90.2655" y="-1072.8" font-family="Times,serif" font-size="14.00" fill="#000000">req.acceptsLanguages()</text>
</g>
<!-- req.acceptsLanguages()&#45;&gt;基于accepts模块 -->
<g id="edge5" class="edge">
<title>req.acceptsLanguages()&#45;&gt;基于accepts模块</title>
<path fill="none" stroke="#000000" d="M161.3124,-1064.6557C224.3261,-1053.7072 315.5844,-1037.8513 376.6145,-1027.2474"/>
<polygon fill="#000000" stroke="#000000" points="377.2628,-1030.6873 386.5161,-1025.5271 376.0645,-1023.7906 377.2628,-1030.6873"/>
</g>
<!-- req.get() -->
<g id="node8" class="node">
<title>req.get()</title>
<path fill="#e5e5e5" stroke="#000000" d="M464.9501,-967.3008C464.9501,-967.3008 417.7473,-967.3008 417.7473,-967.3008 413.6471,-967.3008 409.5468,-963.2005 409.5468,-959.1003 409.5468,-959.1003 409.5468,-950.8997 409.5468,-950.8997 409.5468,-946.7995 413.6471,-942.6992 417.7473,-942.6992 417.7473,-942.6992 464.9501,-942.6992 464.9501,-942.6992 469.0503,-942.6992 473.1506,-946.7995 473.1506,-950.8997 473.1506,-950.8997 473.1506,-959.1003 473.1506,-959.1003 473.1506,-963.2005 469.0503,-967.3008 464.9501,-967.3008"/>
<text text-anchor="middle" x="441.3487" y="-950.8" font-family="Times,serif" font-size="14.00" fill="#000000">req.get()</text>
</g>
<!-- req.header() -->
<g id="node9" class="node">
<title>req.header()</title>
<path fill="#e5e5e5" stroke="#000000" d="M869.8087,-1000.3008C869.8087,-1000.3008 802.2081,-1000.3008 802.2081,-1000.3008 798.1079,-1000.3008 794.0076,-996.2005 794.0076,-992.1003 794.0076,-992.1003 794.0076,-983.8997 794.0076,-983.8997 794.0076,-979.7995 798.1079,-975.6992 802.2081,-975.6992 802.2081,-975.6992 869.8087,-975.6992 869.8087,-975.6992 873.9089,-975.6992 878.0092,-979.7995 878.0092,-983.8997 878.0092,-983.8997 878.0092,-992.1003 878.0092,-992.1003 878.0092,-996.2005 873.9089,-1000.3008 869.8087,-1000.3008"/>
<text text-anchor="middle" x="836.0084" y="-983.8" font-family="Times,serif" font-size="14.00" fill="#000000">req.header()</text>
</g>
<!-- req.get()&#45;&gt;req.header() -->
<g id="edge17" class="edge">
<title>req.get()&#45;&gt;req.header()</title>
<path fill="none" stroke="#0000ff" d="M473.3111,-957.6726C541.3081,-963.3582 700.854,-976.6989 783.8222,-983.6364"/>
<polygon fill="#0000ff" stroke="#0000ff" points="783.535,-987.1245 793.7919,-984.47 784.1184,-980.1488 783.535,-987.1245"/>
</g>
<!-- 基于range&#45;parser模块 -->
<g id="node11" class="node">
<title>基于range&#45;parser模块</title>
<path fill="#e5e5e5" stroke="#000000" d="M896.8431,-939.3008C896.8431,-939.3008 775.1737,-939.3008 775.1737,-939.3008 771.0735,-939.3008 766.9732,-935.2005 766.9732,-931.1003 766.9732,-931.1003 766.9732,-922.8997 766.9732,-922.8997 766.9732,-918.7995 771.0735,-914.6992 775.1737,-914.6992 775.1737,-914.6992 896.8431,-914.6992 896.8431,-914.6992 900.9433,-914.6992 905.0436,-918.7995 905.0436,-922.8997 905.0436,-922.8997 905.0436,-931.1003 905.0436,-931.1003 905.0436,-935.2005 900.9433,-939.3008 896.8431,-939.3008"/>
<text text-anchor="middle" x="836.0084" y="-922.8" font-family="Times,serif" font-size="14.00" fill="#000000">基于range&#45;parser模块</text>
</g>
<!-- req.get()&#45;&gt;基于range&#45;parser模块 -->
<g id="edge7" class="edge">
<title>req.get()&#45;&gt;基于range&#45;parser模块</title>
<path fill="none" stroke="#ff0000" d="M473.3111,-952.7324C534.4741,-948.393 669.7083,-938.7985 756.656,-932.6298"/>
<polygon fill="#ff0000" stroke="#ff0000" points="757.022,-936.1128 766.7492,-931.9137 756.5265,-929.1303 757.022,-936.1128"/>
</g>
<!-- this.headers -->
<g id="node18" class="node">
<title>this.headers</title>
<path fill="#e5e5e5" stroke="#000000" d="M1055.5246,-1000.3008C1055.5246,-1000.3008 988.9734,-1000.3008 988.9734,-1000.3008 984.8731,-1000.3008 980.7728,-996.2005 980.7728,-992.1003 980.7728,-992.1003 980.7728,-983.8997 980.7728,-983.8997 980.7728,-979.7995 984.8731,-975.6992 988.9734,-975.6992 988.9734,-975.6992 1055.5246,-975.6992 1055.5246,-975.6992 1059.6249,-975.6992 1063.7252,-979.7995 1063.7252,-983.8997 1063.7252,-983.8997 1063.7252,-992.1003 1063.7252,-992.1003 1063.7252,-996.2005 1059.6249,-1000.3008 1055.5246,-1000.3008"/>
<text text-anchor="middle" x="1022.249" y="-983.8" font-family="Times,serif" font-size="14.00" fill="#000000">this.headers</text>
</g>
<!-- req.header()&#45;&gt;this.headers -->
<g id="edge18" class="edge">
<title>req.header()&#45;&gt;this.headers</title>
<path fill="none" stroke="#0000ff" d="M878.2693,-988C905.6062,-988 941.3785,-988 970.4271,-988"/>
<polygon fill="#0000ff" stroke="#0000ff" points="970.7969,-991.5001 980.7969,-988 970.7969,-984.5001 970.7969,-991.5001"/>
</g>
<!-- req.range() -->
<g id="node10" class="node">
<title>req.range()</title>
<path fill="#e5e5e5" stroke="#000000" d="M120.8515,-845.3008C120.8515,-845.3008 59.6795,-845.3008 59.6795,-845.3008 55.5793,-845.3008 51.479,-841.2005 51.479,-837.1003 51.479,-837.1003 51.479,-828.8997 51.479,-828.8997 51.479,-824.7995 55.5793,-820.6992 59.6795,-820.6992 59.6795,-820.6992 120.8515,-820.6992 120.8515,-820.6992 124.9517,-820.6992 129.052,-824.7995 129.052,-828.8997 129.052,-828.8997 129.052,-837.1003 129.052,-837.1003 129.052,-841.2005 124.9517,-845.3008 120.8515,-845.3008"/>
<text text-anchor="middle" x="90.2655" y="-828.8" font-family="Times,serif" font-size="14.00" fill="#000000">req.range()</text>
</g>
<!-- req.range()&#45;&gt;req.get() -->
<g id="edge6" class="edge">
<title>req.range()&#45;&gt;req.get()</title>
<path fill="none" stroke="#ff0000" d="M120.2895,-845.3123C177.3471,-868.6712 297.5144,-917.6632 317.0934,-924 344.1164,-932.746 375.1118,-940.4829 399.3855,-946.0398"/>
<polygon fill="#ff0000" stroke="#ff0000" points="398.821,-949.5002 409.3459,-948.2844 400.36,-942.6715 398.821,-949.5002"/>
</g>
<!-- req.param() -->
<g id="node12" class="node">
<title>req.param()</title>
<path fill="#e5e5e5" stroke="#000000" d="M122.7424,-784.3008C122.7424,-784.3008 57.7886,-784.3008 57.7886,-784.3008 53.6883,-784.3008 49.5881,-780.2005 49.5881,-776.1003 49.5881,-776.1003 49.5881,-767.8997 49.5881,-767.8997 49.5881,-763.7995 53.6883,-759.6992 57.7886,-759.6992 57.7886,-759.6992 122.7424,-759.6992 122.7424,-759.6992 126.8427,-759.6992 130.9429,-763.7995 130.9429,-767.8997 130.9429,-767.8997 130.9429,-776.1003 130.9429,-776.1003 130.9429,-780.2005 126.8427,-784.3008 122.7424,-784.3008"/>
<text text-anchor="middle" x="90.2655" y="-767.8" font-family="Times,serif" font-size="14.00" fill="#000000">req.param()</text>
</g>
<!-- this.params -->
<g id="node19" class="node">
<title>this.params</title>
<path fill="#e5e5e5" stroke="#000000" d="M473.2991,-845.3008C473.2991,-845.3008 409.3983,-845.3008 409.3983,-845.3008 405.298,-845.3008 401.1978,-841.2005 401.1978,-837.1003 401.1978,-837.1003 401.1978,-828.8997 401.1978,-828.8997 401.1978,-824.7995 405.298,-820.6992 409.3983,-820.6992 409.3983,-820.6992 473.2991,-820.6992 473.2991,-820.6992 477.3994,-820.6992 481.4996,-824.7995 481.4996,-828.8997 481.4996,-828.8997 481.4996,-837.1003 481.4996,-837.1003 481.4996,-841.2005 477.3994,-845.3008 473.2991,-845.3008"/>
<text text-anchor="middle" x="441.3487" y="-828.8" font-family="Times,serif" font-size="14.00" fill="#000000">this.params</text>
</g>
<!-- req.param()&#45;&gt;this.params -->
<g id="edge19" class="edge">
<title>req.param()&#45;&gt;this.params</title>
<path fill="none" stroke="#000000" d="M131.2263,-779.1169C195.8777,-790.3499 321.3958,-812.1584 391.2933,-824.303"/>
<polygon fill="#000000" stroke="#000000" points="390.7371,-827.7587 401.1886,-826.0223 391.9354,-820.862 390.7371,-827.7587"/>
</g>
<!-- this.body -->
<g id="node20" class="node">
<title>this.body</title>
<path fill="#e5e5e5" stroke="#000000" d="M466.8745,-906.3008C466.8745,-906.3008 415.8229,-906.3008 415.8229,-906.3008 411.7226,-906.3008 407.6223,-902.2005 407.6223,-898.1003 407.6223,-898.1003 407.6223,-889.8997 407.6223,-889.8997 407.6223,-885.7995 411.7226,-881.6992 415.8229,-881.6992 415.8229,-881.6992 466.8745,-881.6992 466.8745,-881.6992 470.9748,-881.6992 475.0751,-885.7995 475.0751,-889.8997 475.0751,-889.8997 475.0751,-898.1003 475.0751,-898.1003 475.0751,-902.2005 470.9748,-906.3008 466.8745,-906.3008"/>
<text text-anchor="middle" x="441.3487" y="-889.8" font-family="Times,serif" font-size="14.00" fill="#000000">this.body</text>
</g>
<!-- req.param()&#45;&gt;this.body -->
<g id="edge20" class="edge">
<title>req.param()&#45;&gt;this.body</title>
<path fill="none" stroke="#000000" d="M120.2895,-784.3123C177.3471,-807.6712 297.5144,-856.6632 317.0934,-863 343.4686,-871.5364 373.628,-879.1113 397.6284,-884.6364"/>
<polygon fill="#000000" stroke="#000000" points="396.9819,-888.0785 407.5082,-886.8756 398.5292,-881.2517 396.9819,-888.0785"/>
</g>
<!-- this.query -->
<g id="node21" class="node">
<title>this.query</title>
<path fill="#e5e5e5" stroke="#000000" d="M468.7503,-784.3008C468.7503,-784.3008 413.9471,-784.3008 413.9471,-784.3008 409.8469,-784.3008 405.7466,-780.2005 405.7466,-776.1003 405.7466,-776.1003 405.7466,-767.8997 405.7466,-767.8997 405.7466,-763.7995 409.8469,-759.6992 413.9471,-759.6992 413.9471,-759.6992 468.7503,-759.6992 468.7503,-759.6992 472.8505,-759.6992 476.9508,-763.7995 476.9508,-767.8997 476.9508,-767.8997 476.9508,-776.1003 476.9508,-776.1003 476.9508,-780.2005 472.8505,-784.3008 468.7503,-784.3008"/>
<text text-anchor="middle" x="441.3487" y="-767.8" font-family="Times,serif" font-size="14.00" fill="#000000">this.query</text>
</g>
<!-- req.param()&#45;&gt;this.query -->
<g id="edge21" class="edge">
<title>req.param()&#45;&gt;this.query</title>
<path fill="none" stroke="#000000" d="M131.2263,-772C197.2077,-772 326.5857,-772 395.5353,-772"/>
<polygon fill="#000000" stroke="#000000" points="395.6594,-775.5001 405.6593,-772 395.6593,-768.5001 395.6594,-775.5001"/>
</g>
<!-- req.is() -->
<g id="node13" class="node">
<title>req.is()</title>
<path fill="#e5e5e5" stroke="#000000" d="M110.0966,-723.3008C110.0966,-723.3008 70.4344,-723.3008 70.4344,-723.3008 66.3342,-723.3008 62.2339,-719.2005 62.2339,-715.1003 62.2339,-715.1003 62.2339,-706.8997 62.2339,-706.8997 62.2339,-702.7995 66.3342,-698.6992 70.4344,-698.6992 70.4344,-698.6992 110.0966,-698.6992 110.0966,-698.6992 114.1968,-698.6992 118.2971,-702.7995 118.2971,-706.8997 118.2971,-706.8997 118.2971,-715.1003 118.2971,-715.1003 118.2971,-719.2005 114.1968,-723.3008 110.0966,-723.3008"/>
<text text-anchor="middle" x="90.2655" y="-706.8" font-family="Times,serif" font-size="14.00" fill="#000000">req.is()</text>
</g>
<!-- 基于type&#45;is模块 -->
<g id="node14" class="node">
<title>基于type&#45;is模块</title>
<path fill="#e5e5e5" stroke="#000000" d="M486.3391,-723.3008C486.3391,-723.3008 396.3583,-723.3008 396.3583,-723.3008 392.258,-723.3008 388.1577,-719.2005 388.1577,-715.1003 388.1577,-715.1003 388.1577,-706.8997 388.1577,-706.8997 388.1577,-702.7995 392.258,-698.6992 396.3583,-698.6992 396.3583,-698.6992 486.3391,-698.6992 486.3391,-698.6992 490.4394,-698.6992 494.5397,-702.7995 494.5397,-706.8997 494.5397,-706.8997 494.5397,-715.1003 494.5397,-715.1003 494.5397,-719.2005 490.4394,-723.3008 486.3391,-723.3008"/>
<text text-anchor="middle" x="441.3487" y="-706.8" font-family="Times,serif" font-size="14.00" fill="#000000">基于type&#45;is模块</text>
</g>
<!-- req.is()&#45;&gt;基于type&#45;is模块 -->
<g id="edge8" class="edge">
<title>req.is()&#45;&gt;基于type&#45;is模块</title>
<path fill="none" stroke="#000000" d="M118.4026,-711C174.3856,-711 300.9577,-711 377.9708,-711"/>
<polygon fill="#000000" stroke="#000000" points="378.0335,-714.5001 388.0334,-711 378.0334,-707.5001 378.0335,-714.5001"/>
</g>
<!-- defineGetter() -->
<g id="node15" class="node">
<title>defineGetter()</title>
<path fill="#e5e5e5" stroke="#000000" d="M129.8446,-662.3008C129.8446,-662.3008 50.6864,-662.3008 50.6864,-662.3008 46.5862,-662.3008 42.4859,-658.2005 42.4859,-654.1003 42.4859,-654.1003 42.4859,-645.8997 42.4859,-645.8997 42.4859,-641.7995 46.5862,-637.6992 50.6864,-637.6992 50.6864,-637.6992 129.8446,-637.6992 129.8446,-637.6992 133.9448,-637.6992 138.0451,-641.7995 138.0451,-645.8997 138.0451,-645.8997 138.0451,-654.1003 138.0451,-654.1003 138.0451,-658.2005 133.9448,-662.3008 129.8446,-662.3008"/>
<text text-anchor="middle" x="90.2655" y="-645.8" font-family="Times,serif" font-size="14.00" fill="#000000">defineGetter()</text>
</g>
<!-- 通用方法用来给req定义属性及对应get -->
<g id="node16" class="node">
<title>通用方法用来给req定义属性及对应get</title>
<path fill="#e5e5e5" stroke="#000000" d="M557.1592,-662.3008C557.1592,-662.3008 325.5382,-662.3008 325.5382,-662.3008 321.4379,-662.3008 317.3376,-658.2005 317.3376,-654.1003 317.3376,-654.1003 317.3376,-645.8997 317.3376,-645.8997 317.3376,-641.7995 321.4379,-637.6992 325.5382,-637.6992 325.5382,-637.6992 557.1592,-637.6992 557.1592,-637.6992 561.2595,-637.6992 565.3598,-641.7995 565.3598,-645.8997 565.3598,-645.8997 565.3598,-654.1003 565.3598,-654.1003 565.3598,-658.2005 561.2595,-662.3008 557.1592,-662.3008"/>
<text text-anchor="middle" x="441.3487" y="-645.8" font-family="Times,serif" font-size="14.00" fill="#000000">通用方法用来给req定义属性及对应get</text>
</g>
<!-- defineGetter()&#45;&gt;通用方法用来给req定义属性及对应get -->
<g id="edge9" class="edge">
<title>defineGetter()&#45;&gt;通用方法用来给req定义属性及对应get</title>
<path fill="none" stroke="#000000" d="M137.9795,-650C181.3129,-650 247.3444,-650 306.7505,-650"/>
<polygon fill="#000000" stroke="#000000" points="306.9885,-653.5001 316.9885,-650 306.9884,-646.5001 306.9885,-653.5001"/>
</g>
<!-- Object.defineProperty -->
<g id="node17" class="node">
<title>Object.defineProperty</title>
<path fill="#e5e5e5" stroke="#000000" d="M897.8143,-662.3008C897.8143,-662.3008 774.2025,-662.3008 774.2025,-662.3008 770.1023,-662.3008 766.002,-658.2005 766.002,-654.1003 766.002,-654.1003 766.002,-645.8997 766.002,-645.8997 766.002,-641.7995 770.1023,-637.6992 774.2025,-637.6992 774.2025,-637.6992 897.8143,-637.6992 897.8143,-637.6992 901.9145,-637.6992 906.0148,-641.7995 906.0148,-645.8997 906.0148,-645.8997 906.0148,-654.1003 906.0148,-654.1003 906.0148,-658.2005 901.9145,-662.3008 897.8143,-662.3008"/>
<text text-anchor="middle" x="836.0084" y="-645.8" font-family="Times,serif" font-size="14.00" fill="#000000">Object.defineProperty</text>
</g>
<!-- 通用方法用来给req定义属性及对应get&#45;&gt;Object.defineProperty -->
<g id="edge10" class="edge">
<title>通用方法用来给req定义属性及对应get&#45;&gt;Object.defineProperty</title>
<path fill="none" stroke="#000000" d="M565.4092,-650C627.5116,-650 700.8984,-650 755.5686,-650"/>
<polygon fill="#000000" stroke="#000000" points="755.8977,-653.5001 765.8977,-650 755.8977,-646.5001 755.8977,-653.5001"/>
</g>
<!-- req.fresh -->
<g id="node22" class="node">
<title>req.fresh</title>
<path fill="#e5e5e5" stroke="#000000" d="M114.9215,-601.3008C114.9215,-601.3008 65.6095,-601.3008 65.6095,-601.3008 61.5092,-601.3008 57.4089,-597.2005 57.4089,-593.1003 57.4089,-593.1003 57.4089,-584.8997 57.4089,-584.8997 57.4089,-580.7995 61.5092,-576.6992 65.6095,-576.6992 65.6095,-576.6992 114.9215,-576.6992 114.9215,-576.6992 119.0218,-576.6992 123.1221,-580.7995 123.1221,-584.8997 123.1221,-584.8997 123.1221,-593.1003 123.1221,-593.1003 123.1221,-597.2005 119.0218,-601.3008 114.9215,-601.3008"/>
<text text-anchor="middle" x="90.2655" y="-584.8" font-family="Times,serif" font-size="14.00" fill="#000000">req.fresh</text>
</g>
<!-- 基于fresh模块 -->
<g id="node23" class="node">
<title>基于fresh模块</title>
<path fill="#e5e5e5" stroke="#000000" d="M481.2184,-601.3008C481.2184,-601.3008 401.479,-601.3008 401.479,-601.3008 397.3787,-601.3008 393.2785,-597.2005 393.2785,-593.1003 393.2785,-593.1003 393.2785,-584.8997 393.2785,-584.8997 393.2785,-580.7995 397.3787,-576.6992 401.479,-576.6992 401.479,-576.6992 481.2184,-576.6992 481.2184,-576.6992 485.3187,-576.6992 489.4189,-580.7995 489.4189,-584.8997 489.4189,-584.8997 489.4189,-593.1003 489.4189,-593.1003 489.4189,-597.2005 485.3187,-601.3008 481.2184,-601.3008"/>
<text text-anchor="middle" x="441.3487" y="-584.8" font-family="Times,serif" font-size="14.00" fill="#000000">基于fresh模块</text>
</g>
<!-- req.fresh&#45;&gt;基于fresh模块 -->
<g id="edge11" class="edge">
<title>req.fresh&#45;&gt;基于fresh模块</title>
<path fill="none" stroke="#000000" d="M122.9793,-589C182.3212,-589 308.4446,-589 382.9013,-589"/>
<polygon fill="#000000" stroke="#000000" points="383.0523,-592.5001 393.0523,-589 383.0522,-585.5001 383.0523,-592.5001"/>
</g>
<!-- req.hostname -->
<g id="node24" class="node">
<title>req.hostname</title>
<path fill="#e5e5e5" stroke="#000000" d="M478.6784,-334.3008C478.6784,-334.3008 404.019,-334.3008 404.019,-334.3008 399.9188,-334.3008 395.8185,-330.2005 395.8185,-326.1003 395.8185,-326.1003 395.8185,-317.8997 395.8185,-317.8997 395.8185,-313.7995 399.9188,-309.6992 404.019,-309.6992 404.019,-309.6992 478.6784,-309.6992 478.6784,-309.6992 482.7786,-309.6992 486.8789,-313.7995 486.8789,-317.8997 486.8789,-317.8997 486.8789,-326.1003 486.8789,-326.1003 486.8789,-330.2005 482.7786,-334.3008 478.6784,-334.3008"/>
<text text-anchor="middle" x="441.3487" y="-317.8" font-family="Times,serif" font-size="14.00" fill="#000000">req.hostname</text>
</g>
<!-- Host -->
<g id="node35" class="node">
<title>Host</title>
<path fill="#e5e5e5" stroke="#000000" d="M679.0482,-162.3008C679.0482,-162.3008 652.561,-162.3008 652.561,-162.3008 648.4607,-162.3008 644.3605,-158.2005 644.3605,-154.1003 644.3605,-154.1003 644.3605,-145.8997 644.3605,-145.8997 644.3605,-141.7995 648.4607,-137.6992 652.561,-137.6992 652.561,-137.6992 679.0482,-137.6992 679.0482,-137.6992 683.1485,-137.6992 687.2487,-141.7995 687.2487,-145.8997 687.2487,-145.8997 687.2487,-154.1003 687.2487,-154.1003 687.2487,-158.2005 683.1485,-162.3008 679.0482,-162.3008"/>
<text text-anchor="middle" x="665.8046" y="-145.8" font-family="Times,serif" font-size="14.00" fill="#000000">Host</text>
</g>
<!-- req.hostname&#45;&gt;Host -->
<g id="edge23" class="edge">
<title>req.hostname&#45;&gt;Host</title>
<path fill="none" stroke="#000000" d="M487.1388,-310.5834C513.0763,-302.0639 544.4623,-288.0163 565.604,-266 589.4986,-241.1169 572.3775,-220.3838 594.604,-194 605.4816,-181.0878 621.1518,-170.8328 635.0237,-163.4828"/>
<polygon fill="#000000" stroke="#000000" points="636.8824,-166.4665 644.2589,-158.8614 633.7498,-160.2065 636.8824,-166.4665"/>
</g>
<!-- req.ip -->
<g id="node25" class="node">
<title>req.ip</title>
<path fill="#e5e5e5" stroke="#000000" d="M106.3315,-479.3008C106.3315,-479.3008 74.1995,-479.3008 74.1995,-479.3008 70.0992,-479.3008 65.999,-475.2005 65.999,-471.1003 65.999,-471.1003 65.999,-462.8997 65.999,-462.8997 65.999,-458.7995 70.0992,-454.6992 74.1995,-454.6992 74.1995,-454.6992 106.3315,-454.6992 106.3315,-454.6992 110.4318,-454.6992 114.532,-458.7995 114.532,-462.8997 114.532,-462.8997 114.532,-471.1003 114.532,-471.1003 114.532,-475.2005 110.4318,-479.3008 106.3315,-479.3008"/>
<text text-anchor="middle" x="90.2655" y="-462.8" font-family="Times,serif" font-size="14.00" fill="#000000">req.ip</text>
</g>
<!-- 基于proxy&#45;addr模块 -->
<g id="node26" class="node">
<title>基于proxy&#45;addr模块</title>
<path fill="#e5e5e5" stroke="#000000" d="M498.4347,-509.3008C498.4347,-509.3008 384.2627,-509.3008 384.2627,-509.3008 380.1625,-509.3008 376.0622,-505.2005 376.0622,-501.1003 376.0622,-501.1003 376.0622,-492.8997 376.0622,-492.8997 376.0622,-488.7995 380.1625,-484.6992 384.2627,-484.6992 384.2627,-484.6992 498.4347,-484.6992 498.4347,-484.6992 502.5349,-484.6992 506.6352,-488.7995 506.6352,-492.8997 506.6352,-492.8997 506.6352,-501.1003 506.6352,-501.1003 506.6352,-505.2005 502.5349,-509.3008 498.4347,-509.3008"/>
<text text-anchor="middle" x="441.3487" y="-492.8" font-family="Times,serif" font-size="14.00" fill="#000000">基于proxy&#45;addr模块</text>
</g>
<!-- req.ip&#45;&gt;基于proxy&#45;addr模块 -->
<g id="edge12" class="edge">
<title>req.ip&#45;&gt;基于proxy&#45;addr模块</title>
<path fill="none" stroke="#000000" d="M114.6742,-469.0857C165.869,-473.4603 286.2922,-483.7504 365.7486,-490.54"/>
<polygon fill="#000000" stroke="#000000" points="365.9314,-494.0683 376.1932,-491.4325 366.5275,-487.0937 365.9314,-494.0683"/>
</g>
<!-- req.ips -->
<g id="node27" class="node">
<title>req.ips</title>
<path fill="#e5e5e5" stroke="#000000" d="M108.7761,-540.3008C108.7761,-540.3008 71.7549,-540.3008 71.7549,-540.3008 67.6546,-540.3008 63.5543,-536.2005 63.5543,-532.1003 63.5543,-532.1003 63.5543,-523.8997 63.5543,-523.8997 63.5543,-519.7995 67.6546,-515.6992 71.7549,-515.6992 71.7549,-515.6992 108.7761,-515.6992 108.7761,-515.6992 112.8764,-515.6992 116.9767,-519.7995 116.9767,-523.8997 116.9767,-523.8997 116.9767,-532.1003 116.9767,-532.1003 116.9767,-536.2005 112.8764,-540.3008 108.7761,-540.3008"/>
<text text-anchor="middle" x="90.2655" y="-523.8" font-family="Times,serif" font-size="14.00" fill="#000000">req.ips</text>
</g>
<!-- req.ips&#45;&gt;基于proxy&#45;addr模块 -->
<g id="edge13" class="edge">
<title>req.ips&#45;&gt;基于proxy&#45;addr模块</title>
<path fill="none" stroke="#000000" d="M117.2315,-525.619C169.7859,-520.9785 287.6022,-510.5755 365.7638,-503.674"/>
<polygon fill="#000000" stroke="#000000" points="366.389,-507.1325 376.0424,-502.7664 365.7733,-500.1596 366.389,-507.1325"/>
</g>
<!-- req.path -->
<g id="node28" class="node">
<title>req.path</title>
<path fill="#e5e5e5" stroke="#000000" d="M113.0473,-418.3008C113.0473,-418.3008 67.4837,-418.3008 67.4837,-418.3008 63.3835,-418.3008 59.2832,-414.2005 59.2832,-410.1003 59.2832,-410.1003 59.2832,-401.8997 59.2832,-401.8997 59.2832,-397.7995 63.3835,-393.6992 67.4837,-393.6992 67.4837,-393.6992 113.0473,-393.6992 113.0473,-393.6992 117.1475,-393.6992 121.2478,-397.7995 121.2478,-401.8997 121.2478,-401.8997 121.2478,-410.1003 121.2478,-410.1003 121.2478,-414.2005 117.1475,-418.3008 113.0473,-418.3008"/>
<text text-anchor="middle" x="90.2655" y="-401.8" font-family="Times,serif" font-size="14.00" fill="#000000">req.path</text>
</g>
<!-- 基于parseurl模块 -->
<g id="node29" class="node">
<title>基于parseurl模块</title>
<path fill="#e5e5e5" stroke="#000000" d="M489.8237,-418.3008C489.8237,-418.3008 392.8737,-418.3008 392.8737,-418.3008 388.7734,-418.3008 384.6732,-414.2005 384.6732,-410.1003 384.6732,-410.1003 384.6732,-401.8997 384.6732,-401.8997 384.6732,-397.7995 388.7734,-393.6992 392.8737,-393.6992 392.8737,-393.6992 489.8237,-393.6992 489.8237,-393.6992 493.924,-393.6992 498.0242,-397.7995 498.0242,-401.8997 498.0242,-401.8997 498.0242,-410.1003 498.0242,-410.1003 498.0242,-414.2005 493.924,-418.3008 489.8237,-418.3008"/>
<text text-anchor="middle" x="441.3487" y="-401.8" font-family="Times,serif" font-size="14.00" fill="#000000">基于parseurl模块</text>
</g>
<!-- req.path&#45;&gt;基于parseurl模块 -->
<g id="edge14" class="edge">
<title>req.path&#45;&gt;基于parseurl模块</title>
<path fill="none" stroke="#000000" d="M121.1141,-406C177.4468,-406 298.1565,-406 374.2246,-406"/>
<polygon fill="#000000" stroke="#000000" points="374.6505,-409.5001 384.6505,-406 374.6504,-402.5001 374.6505,-409.5001"/>
</g>
<!-- req.protocol -->
<g id="node30" class="node">
<title>req.protocol</title>
<path fill="#e5e5e5" stroke="#000000" d="M475.1798,-248.3008C475.1798,-248.3008 407.5176,-248.3008 407.5176,-248.3008 403.4174,-248.3008 399.3171,-244.2005 399.3171,-240.1003 399.3171,-240.1003 399.3171,-231.8997 399.3171,-231.8997 399.3171,-227.7995 403.4174,-223.6992 407.5176,-223.6992 407.5176,-223.6992 475.1798,-223.6992 475.1798,-223.6992 479.28,-223.6992 483.3803,-227.7995 483.3803,-231.8997 483.3803,-231.8997 483.3803,-240.1003 483.3803,-240.1003 483.3803,-244.2005 479.28,-248.3008 475.1798,-248.3008"/>
<text text-anchor="middle" x="441.3487" y="-231.8" font-family="Times,serif" font-size="14.00" fill="#000000">req.protocol</text>
</g>
<!-- X&#45;Forwarded&#45;Proto -->
<g id="node34" class="node">
<title>X&#45;Forwarded&#45;Proto</title>
<path fill="#e5e5e5" stroke="#000000" d="M721.0059,-101.3008C721.0059,-101.3008 610.6033,-101.3008 610.6033,-101.3008 606.503,-101.3008 602.4028,-97.2005 602.4028,-93.1003 602.4028,-93.1003 602.4028,-84.8997 602.4028,-84.8997 602.4028,-80.7995 606.503,-76.6992 610.6033,-76.6992 610.6033,-76.6992 721.0059,-76.6992 721.0059,-76.6992 725.1062,-76.6992 729.2064,-80.7995 729.2064,-84.8997 729.2064,-84.8997 729.2064,-93.1003 729.2064,-93.1003 729.2064,-97.2005 725.1062,-101.3008 721.0059,-101.3008"/>
<text text-anchor="middle" x="665.8046" y="-84.8" font-family="Times,serif" font-size="14.00" fill="#000000">X&#45;Forwarded&#45;Proto</text>
</g>
<!-- req.protocol&#45;&gt;X&#45;Forwarded&#45;Proto -->
<g id="edge22" class="edge">
<title>req.protocol&#45;&gt;X&#45;Forwarded&#45;Proto</title>
<path fill="none" stroke="#000000" d="M455.3317,-223.5864C481.3565,-200.9136 539.5896,-152.1801 594.604,-120 603.7757,-114.6351 614.0484,-109.6354 623.875,-105.2844"/>
<polygon fill="#000000" stroke="#000000" points="625.3004,-108.4815 633.1092,-101.321 622.5394,-102.049 625.3004,-108.4815"/>
</g>
<!-- req.secure -->
<g id="node31" class="node">
<title>req.secure</title>
<path fill="#e5e5e5" stroke="#000000" d="M118.6893,-296.3008C118.6893,-296.3008 61.8417,-296.3008 61.8417,-296.3008 57.7415,-296.3008 53.6412,-292.2005 53.6412,-288.1003 53.6412,-288.1003 53.6412,-279.8997 53.6412,-279.8997 53.6412,-275.7995 57.7415,-271.6992 61.8417,-271.6992 61.8417,-271.6992 118.6893,-271.6992 118.6893,-271.6992 122.7895,-271.6992 126.8898,-275.7995 126.8898,-279.8997 126.8898,-279.8997 126.8898,-288.1003 126.8898,-288.1003 126.8898,-292.2005 122.7895,-296.3008 118.6893,-296.3008"/>
<text text-anchor="middle" x="90.2655" y="-279.8" font-family="Times,serif" font-size="14.00" fill="#000000">req.secure</text>
</g>
<!-- req.secure&#45;&gt;req.protocol -->
<g id="edge15" class="edge">
<title>req.secure&#45;&gt;req.protocol</title>
<path fill="none" stroke="#ff0000" d="M126.844,-278.999C189.3659,-270.451 316.9888,-253.0025 388.9581,-243.1628"/>
<polygon fill="#ff0000" stroke="#ff0000" points="389.7247,-246.5907 399.1584,-241.7683 388.7764,-239.6552 389.7247,-246.5907"/>
<text text-anchor="middle" x="240.8122" y="-272.2" font-family="Times,serif" font-size="14.00" fill="#000000">判断是否安全</text>
</g>
<!-- req.subdomains -->
<g id="node32" class="node">
<title>req.subdomains</title>
<path fill="#e5e5e5" stroke="#000000" d="M134.3255,-357.3008C134.3255,-357.3008 46.2055,-357.3008 46.2055,-357.3008 42.1052,-357.3008 38.005,-353.2005 38.005,-349.1003 38.005,-349.1003 38.005,-340.8997 38.005,-340.8997 38.005,-336.7995 42.1052,-332.6992 46.2055,-332.6992 46.2055,-332.6992 134.3255,-332.6992 134.3255,-332.6992 138.4258,-332.6992 142.526,-336.7995 142.526,-340.8997 142.526,-340.8997 142.526,-349.1003 142.526,-349.1003 142.526,-353.2005 138.4258,-357.3008 134.3255,-357.3008"/>
<text text-anchor="middle" x="90.2655" y="-340.8" font-family="Times,serif" font-size="14.00" fill="#000000">req.subdomains</text>
</g>
<!-- req.subdomains&#45;&gt;req.hostname -->
<g id="edge16" class="edge">
<title>req.subdomains&#45;&gt;req.hostname</title>
<path fill="none" stroke="#ff0000" d="M142.4471,-341.5815C207.54,-337.3172 318.3924,-330.0551 385.2577,-325.6746"/>
<polygon fill="#ff0000" stroke="#ff0000" points="385.848,-329.1435 395.5978,-324.9972 385.3903,-322.1585 385.848,-329.1435"/>
<text text-anchor="middle" x="240.8122" y="-341.2" font-family="Times,serif" font-size="14.00" fill="#000000">字符串解析</text>
</g>
<!-- req.xhr -->
<g id="node33" class="node">
<title>req.xhr</title>
<path fill="#e5e5e5" stroke="#000000" d="M110.1008,-235.3008C110.1008,-235.3008 70.4302,-235.3008 70.4302,-235.3008 66.33,-235.3008 62.2297,-231.2005 62.2297,-227.1003 62.2297,-227.1003 62.2297,-218.8997 62.2297,-218.8997 62.2297,-214.7995 66.33,-210.6992 70.4302,-210.6992 70.4302,-210.6992 110.1008,-210.6992 110.1008,-210.6992 114.201,-210.6992 118.3013,-214.7995 118.3013,-218.8997 118.3013,-218.8997 118.3013,-227.1003 118.3013,-227.1003 118.3013,-231.2005 114.201,-235.3008 110.1008,-235.3008"/>
<text text-anchor="middle" x="90.2655" y="-218.8" font-family="Times,serif" font-size="14.00" fill="#000000">req.xhr</text>
</g>
<!-- X&#45;Requested&#45;With -->
<g id="node36" class="node">
<title>X&#45;Requested&#45;With</title>
<path fill="#e5e5e5" stroke="#000000" d="M718.3435,-40.3008C718.3435,-40.3008 613.2657,-40.3008 613.2657,-40.3008 609.1654,-40.3008 605.0651,-36.2005 605.0651,-32.1003 605.0651,-32.1003 605.0651,-23.8997 605.0651,-23.8997 605.0651,-19.7995 609.1654,-15.6992 613.2657,-15.6992 613.2657,-15.6992 718.3435,-15.6992 718.3435,-15.6992 722.4438,-15.6992 726.5441,-19.7995 726.5441,-23.8997 726.5441,-23.8997 726.5441,-32.1003 726.5441,-32.1003 726.5441,-36.2005 722.4438,-40.3008 718.3435,-40.3008"/>
<text text-anchor="middle" x="665.8046" y="-23.8" font-family="Times,serif" font-size="14.00" fill="#000000">X&#45;Requested&#45;With</text>
</g>
<!-- req.xhr&#45;&gt;X&#45;Requested&#45;With -->
<g id="edge24" class="edge">
<title>req.xhr&#45;&gt;X&#45;Requested&#45;With</title>
<path fill="none" stroke="#000000" d="M118.4146,-213.4627C210.8468,-182.1455 505.6671,-82.2566 619.9379,-43.5402"/>
<polygon fill="#000000" stroke="#000000" points="621.1119,-46.838 629.4599,-40.3141 618.8655,-40.2082 621.1119,-46.838"/>
</g>
</g>
</svg>
