<?xml version="1.0" encoding="UTF-8" standalone="no"?>
<!DOCTYPE svg PUBLIC "-//W3C//DTD SVG 1.1//EN"
 "http://www.w3.org/Graphics/SVG/1.1/DTD/svg11.dtd">
<!-- Generated by graphviz version 2.40.1 (20161225.0304)
 -->
<!-- Title: tree Pages: 1 -->
<svg width="1735pt" height="1263pt"
 viewBox="0.00 0.00 1735.16 1263.40" xmlns="http://www.w3.org/2000/svg" xmlns:xlink="http://www.w3.org/1999/xlink">
<g id="graph0" class="graph" transform="scale(1 1) rotate(0) translate(4 1259.4)">
<title>tree</title>
<polygon fill="#ffffff" stroke="transparent" points="-4,4 -4,-1259.4 1731.157,-1259.4 1731.157,4 -4,4"/>
<g id="clust1" class="cluster">
<title>cluster_response</title>
<polygon fill="none" stroke="#000000" points="8,-388.4 8,-1246.4 1428.8122,-1246.4 1428.8122,-388.4 8,-388.4"/>
<text text-anchor="middle" x="718.4061" y="-1229.8" font-family="Times,serif" font-size="14.00" fill="#000000">response.js</text>
</g>
<g id="clust2" class="cluster">
<title>cluster_http_ServerResponse</title>
<polygon fill="none" stroke="#000000" points="1504.8406,-938.4 1504.8406,-1247.4 1727.157,-1247.4 1727.157,-938.4 1504.8406,-938.4"/>
<text text-anchor="middle" x="1615.9988" y="-1230.8" font-family="Times,serif" font-size="14.00" fill="#000000">原生http模块的ServerResponse对象</text>
</g>
<g id="clust3" class="cluster">
<title>cluster_http_header</title>
<polygon fill="none" stroke="#000000" points="1087.9878,-10.4 1087.9878,-380.4 1227.3104,-380.4 1227.3104,-10.4 1087.9878,-10.4"/>
<text text-anchor="middle" x="1157.6491" y="-363.8" font-family="Times,serif" font-size="14.00" fill="#000000">http头</text>
</g>
<!-- res -->
<g id="node1" class="node">
<title>res</title>
<path fill="#e5e5e5" stroke="#000000" d="M81.6802,-1213.7008C81.6802,-1213.7008 65.4384,-1213.7008 65.4384,-1213.7008 61.3382,-1213.7008 57.2379,-1209.6005 57.2379,-1205.5003 57.2379,-1205.5003 57.2379,-1197.2997 57.2379,-1197.2997 57.2379,-1193.1995 61.3382,-1189.0992 65.4384,-1189.0992 65.4384,-1189.0992 81.6802,-1189.0992 81.6802,-1189.0992 85.7804,-1189.0992 89.8807,-1193.1995 89.8807,-1197.2997 89.8807,-1197.2997 89.8807,-1205.5003 89.8807,-1205.5003 89.8807,-1209.6005 85.7804,-1213.7008 81.6802,-1213.7008"/>
<text text-anchor="middle" x="73.5593" y="-1197.2" font-family="Times,serif" font-size="14.00" fill="#000000">res</text>
</g>
<!-- ServerResponse -->
<g id="node26" class="node">
<title>ServerResponse</title>
<path fill="#e5e5e5" stroke="#000000" d="M1660.4864,-1214.7008C1660.4864,-1214.7008 1570.5112,-1214.7008 1570.5112,-1214.7008 1566.4109,-1214.7008 1562.3106,-1210.6005 1562.3106,-1206.5003 1562.3106,-1206.5003 1562.3106,-1198.2997 1562.3106,-1198.2997 1562.3106,-1194.1995 1566.4109,-1190.0992 1570.5112,-1190.0992 1570.5112,-1190.0992 1660.4864,-1190.0992 1660.4864,-1190.0992 1664.5867,-1190.0992 1668.687,-1194.1995 1668.687,-1198.2997 1668.687,-1198.2997 1668.687,-1206.5003 1668.687,-1206.5003 1668.687,-1210.6005 1664.5867,-1214.7008 1660.4864,-1214.7008"/>
<text text-anchor="middle" x="1615.4988" y="-1198.2" font-family="Times,serif" font-size="14.00" fill="#000000">ServerResponse</text>
</g>
<!-- res&#45;&gt;ServerResponse -->
<g id="edge4" class="edge">
<title>res&#45;&gt;ServerResponse</title>
<path fill="none" stroke="#000000" d="M89.7982,-1206.7343C115.2363,-1214.603 166.1633,-1228.4 210.5117,-1228.4 210.5117,-1228.4 210.5117,-1228.4 1388.1344,-1228.4 1443.7241,-1228.4 1506.467,-1220.6332 1551.9379,-1213.5896"/>
<polygon fill="#000000" stroke="#000000" points="1552.6169,-1217.0258 1561.9479,-1212.0076 1551.524,-1210.1117 1552.6169,-1217.0258"/>
<text text-anchor="middle" x="628.8687" y="-1232.6" font-family="Times,serif" font-size="14.00" fill="#000000">基于</text>
</g>
<!-- res.get() -->
<g id="node2" class="node">
<title>res.get()</title>
<path fill="#e5e5e5" stroke="#000000" d="M96.6055,-1152.7008C96.6055,-1152.7008 50.5131,-1152.7008 50.5131,-1152.7008 46.4129,-1152.7008 42.3126,-1148.6005 42.3126,-1144.5003 42.3126,-1144.5003 42.3126,-1136.2997 42.3126,-1136.2997 42.3126,-1132.1995 46.4129,-1128.0992 50.5131,-1128.0992 50.5131,-1128.0992 96.6055,-1128.0992 96.6055,-1128.0992 100.7057,-1128.0992 104.806,-1132.1995 104.806,-1136.2997 104.806,-1136.2997 104.806,-1144.5003 104.806,-1144.5003 104.806,-1148.6005 100.7057,-1152.7008 96.6055,-1152.7008"/>
<text text-anchor="middle" x="73.5593" y="-1136.2" font-family="Times,serif" font-size="14.00" fill="#000000">res.get()</text>
</g>
<!-- response.getHeader() -->
<g id="node28" class="node">
<title>response.getHeader()</title>
<path fill="#e5e5e5" stroke="#000000" d="M1675.115,-1153.7008C1675.115,-1153.7008 1555.8826,-1153.7008 1555.8826,-1153.7008 1551.7823,-1153.7008 1547.682,-1149.6005 1547.682,-1145.5003 1547.682,-1145.5003 1547.682,-1137.2997 1547.682,-1137.2997 1547.682,-1133.1995 1551.7823,-1129.0992 1555.8826,-1129.0992 1555.8826,-1129.0992 1675.115,-1129.0992 1675.115,-1129.0992 1679.2153,-1129.0992 1683.3156,-1133.1995 1683.3156,-1137.2997 1683.3156,-1137.2997 1683.3156,-1145.5003 1683.3156,-1145.5003 1683.3156,-1149.6005 1679.2153,-1153.7008 1675.115,-1153.7008"/>
<text text-anchor="middle" x="1615.4988" y="-1137.2" font-family="Times,serif" font-size="14.00" fill="#000000">response.getHeader()</text>
</g>
<!-- res.get()&#45;&gt;response.getHeader() -->
<g id="edge6" class="edge">
<title>res.get()&#45;&gt;response.getHeader()</title>
<path fill="none" stroke="#000000" d="M104.7425,-1145.4148C132.4408,-1149.4319 174.0636,-1154.4 210.5117,-1154.4 210.5117,-1154.4 210.5117,-1154.4 1388.1344,-1154.4 1437.9278,-1154.4 1493.7554,-1151.2538 1537.6292,-1148.0569"/>
<polygon fill="#000000" stroke="#000000" points="1537.9433,-1151.5433 1547.6558,-1147.3104 1537.4235,-1144.5626 1537.9433,-1151.5433"/>
<text text-anchor="middle" x="628.8687" y="-1158.6" font-family="Times,serif" font-size="14.00" fill="#000000">调用</text>
</g>
<!-- res.status() -->
<g id="node3" class="node">
<title>res.status()</title>
<path fill="#e5e5e5" stroke="#000000" d="M103.8848,-1091.7008C103.8848,-1091.7008 43.2338,-1091.7008 43.2338,-1091.7008 39.1336,-1091.7008 35.0333,-1087.6005 35.0333,-1083.5003 35.0333,-1083.5003 35.0333,-1075.2997 35.0333,-1075.2997 35.0333,-1071.1995 39.1336,-1067.0992 43.2338,-1067.0992 43.2338,-1067.0992 103.8848,-1067.0992 103.8848,-1067.0992 107.985,-1067.0992 112.0853,-1071.1995 112.0853,-1075.2997 112.0853,-1075.2997 112.0853,-1083.5003 112.0853,-1083.5003 112.0853,-1087.6005 107.985,-1091.7008 103.8848,-1091.7008"/>
<text text-anchor="middle" x="73.5593" y="-1075.2" font-family="Times,serif" font-size="14.00" fill="#000000">res.status()</text>
</g>
<!-- response.statusCode -->
<g id="node27" class="node">
<title>response.statusCode</title>
<path fill="#e5e5e5" stroke="#000000" d="M1672.2135,-1092.7008C1672.2135,-1092.7008 1558.7841,-1092.7008 1558.7841,-1092.7008 1554.6838,-1092.7008 1550.5836,-1088.6005 1550.5836,-1084.5003 1550.5836,-1084.5003 1550.5836,-1076.2997 1550.5836,-1076.2997 1550.5836,-1072.1995 1554.6838,-1068.0992 1558.7841,-1068.0992 1558.7841,-1068.0992 1672.2135,-1068.0992 1672.2135,-1068.0992 1676.3138,-1068.0992 1680.414,-1072.1995 1680.414,-1076.2997 1680.414,-1076.2997 1680.414,-1084.5003 1680.414,-1084.5003 1680.414,-1088.6005 1676.3138,-1092.7008 1672.2135,-1092.7008"/>
<text text-anchor="middle" x="1615.4988" y="-1076.2" font-family="Times,serif" font-size="14.00" fill="#000000">response.statusCode</text>
</g>
<!-- res.status()&#45;&gt;response.statusCode -->
<g id="edge5" class="edge">
<title>res.status()&#45;&gt;response.statusCode</title>
<path fill="none" stroke="#ffc0cb" d="M112.2246,-1079.8328C139.6561,-1080.1031 177.3427,-1080.4 210.5117,-1080.4 210.5117,-1080.4 210.5117,-1080.4 1388.1344,-1080.4 1438.8537,-1080.4 1495.9373,-1080.4 1540.2191,-1080.4"/>
<polygon fill="#ffc0cb" stroke="#ffc0cb" points="1540.325,-1083.9001 1550.325,-1080.4 1540.3249,-1076.9001 1540.325,-1083.9001"/>
<text text-anchor="middle" x="628.8687" y="-1084.6" font-family="Times,serif" font-size="14.00" fill="#000000">设置</text>
</g>
<!-- res.links() -->
<g id="node4" class="node">
<title>res.links()</title>
<path fill="#e5e5e5" stroke="#000000" d="M101.7265,-664.7008C101.7265,-664.7008 45.3921,-664.7008 45.3921,-664.7008 41.2918,-664.7008 37.1916,-660.6005 37.1916,-656.5003 37.1916,-656.5003 37.1916,-648.2997 37.1916,-648.2997 37.1916,-644.1995 41.2918,-640.0992 45.3921,-640.0992 45.3921,-640.0992 101.7265,-640.0992 101.7265,-640.0992 105.8268,-640.0992 109.927,-644.1995 109.927,-648.2997 109.927,-648.2997 109.927,-656.5003 109.927,-656.5003 109.927,-660.6005 105.8268,-664.7008 101.7265,-664.7008"/>
<text text-anchor="middle" x="73.5593" y="-648.2" font-family="Times,serif" font-size="14.00" fill="#000000">res.links()</text>
</g>
<!-- Link -->
<g id="node29" class="node">
<title>Link</title>
<path fill="#e5e5e5" stroke="#000000" d="M1170.8941,-164.7008C1170.8941,-164.7008 1144.4041,-164.7008 1144.4041,-164.7008 1140.3038,-164.7008 1136.2036,-160.6005 1136.2036,-156.5003 1136.2036,-156.5003 1136.2036,-148.2997 1136.2036,-148.2997 1136.2036,-144.1995 1140.3038,-140.0992 1144.4041,-140.0992 1144.4041,-140.0992 1170.8941,-140.0992 1170.8941,-140.0992 1174.9944,-140.0992 1179.0946,-144.1995 1179.0946,-148.2997 1179.0946,-148.2997 1179.0946,-156.5003 1179.0946,-156.5003 1179.0946,-160.6005 1174.9944,-164.7008 1170.8941,-164.7008"/>
<text text-anchor="middle" x="1157.6491" y="-148.2" font-family="Times,serif" font-size="14.00" fill="#000000">Link</text>
</g>
<!-- res.links()&#45;&gt;Link -->
<g id="edge7" class="edge">
<title>res.links()&#45;&gt;Link</title>
<path fill="none" stroke="#0000ff" d="M109.9886,-639.969C118.2593,-635.4176 126.0809,-629.3604 131.1186,-621.4 172.5286,-555.9656 112.694,-341.7351 149.1186,-273.4 165.1563,-243.3121 176.4164,-227.4 210.5117,-227.4 210.5117,-227.4 210.5117,-227.4 806.9605,-227.4 927.3197,-227.4 1065.8789,-184.632 1126.5173,-163.6879"/>
<polygon fill="#0000ff" stroke="#0000ff" points="1127.9581,-166.8918 1136.2403,-160.2846 1125.6455,-160.2849 1127.9581,-166.8918"/>
<text text-anchor="middle" x="461.2644" y="-231.6" font-family="Times,serif" font-size="14.00" fill="#000000">获取，拼接</text>
</g>
<!-- res.send() -->
<g id="node5" class="node">
<title>res.send()</title>
<path fill="#e5e5e5" stroke="#000000" d="M834.0604,-1025.7008C834.0604,-1025.7008 779.8606,-1025.7008 779.8606,-1025.7008 775.7603,-1025.7008 771.66,-1021.6005 771.66,-1017.5003 771.66,-1017.5003 771.66,-1009.2997 771.66,-1009.2997 771.66,-1005.1995 775.7603,-1001.0992 779.8606,-1001.0992 779.8606,-1001.0992 834.0604,-1001.0992 834.0604,-1001.0992 838.1607,-1001.0992 842.261,-1005.1995 842.261,-1009.2997 842.261,-1009.2997 842.261,-1017.5003 842.261,-1017.5003 842.261,-1021.6005 838.1607,-1025.7008 834.0604,-1025.7008"/>
<text text-anchor="middle" x="806.9605" y="-1009.2" font-family="Times,serif" font-size="14.00" fill="#000000">res.send()</text>
</g>
<!-- res.end() -->
<g id="node22" class="node">
<title>res.end()</title>
<path fill="#e5e5e5" stroke="#000000" d="M1412.7904,-951.7008C1412.7904,-951.7008 1363.4784,-951.7008 1363.4784,-951.7008 1359.3781,-951.7008 1355.2778,-947.6005 1355.2778,-943.5003 1355.2778,-943.5003 1355.2778,-935.2997 1355.2778,-935.2997 1355.2778,-931.1995 1359.3781,-927.0992 1363.4784,-927.0992 1363.4784,-927.0992 1412.7904,-927.0992 1412.7904,-927.0992 1416.8907,-927.0992 1420.991,-931.1995 1420.991,-935.2997 1420.991,-935.2997 1420.991,-943.5003 1420.991,-943.5003 1420.991,-947.6005 1416.8907,-951.7008 1412.7904,-951.7008"/>
<text text-anchor="middle" x="1388.1344" y="-935.2" font-family="Times,serif" font-size="14.00" fill="#000000">res.end()</text>
</g>
<!-- res.send()&#45;&gt;res.end() -->
<g id="edge27" class="edge">
<title>res.send()&#45;&gt;res.end()</title>
<path fill="none" stroke="#000000" d="M842.4407,-1008.8824C943.908,-995.9627 1235.0542,-958.8915 1345.2106,-944.8654"/>
<polygon fill="#000000" stroke="#000000" points="1345.8157,-948.3167 1355.2935,-943.5816 1344.9315,-941.3728 1345.8157,-948.3167"/>
</g>
<!-- res.json() -->
<g id="node6" class="node">
<title>res.json()</title>
<path fill="#e5e5e5" stroke="#000000" d="M99.8366,-1030.7008C99.8366,-1030.7008 47.282,-1030.7008 47.282,-1030.7008 43.1817,-1030.7008 39.0814,-1026.6005 39.0814,-1022.5003 39.0814,-1022.5003 39.0814,-1014.2997 39.0814,-1014.2997 39.0814,-1010.1995 43.1817,-1006.0992 47.282,-1006.0992 47.282,-1006.0992 99.8366,-1006.0992 99.8366,-1006.0992 103.9369,-1006.0992 108.0372,-1010.1995 108.0372,-1014.2997 108.0372,-1014.2997 108.0372,-1022.5003 108.0372,-1022.5003 108.0372,-1026.6005 103.9369,-1030.7008 99.8366,-1030.7008"/>
<text text-anchor="middle" x="73.5593" y="-1014.2" font-family="Times,serif" font-size="14.00" fill="#000000">res.json()</text>
</g>
<!-- stringify() -->
<g id="node24" class="node">
<title>stringify()</title>
<path fill="#e5e5e5" stroke="#000000" d="M373.7805,-1025.7008C373.7805,-1025.7008 317.6631,-1025.7008 317.6631,-1025.7008 313.5629,-1025.7008 309.4626,-1021.6005 309.4626,-1017.5003 309.4626,-1017.5003 309.4626,-1009.2997 309.4626,-1009.2997 309.4626,-1005.1995 313.5629,-1001.0992 317.6631,-1001.0992 317.6631,-1001.0992 373.7805,-1001.0992 373.7805,-1001.0992 377.8807,-1001.0992 381.981,-1005.1995 381.981,-1009.2997 381.981,-1009.2997 381.981,-1017.5003 381.981,-1017.5003 381.981,-1021.6005 377.8807,-1025.7008 373.7805,-1025.7008"/>
<text text-anchor="middle" x="345.7218" y="-1009.2" font-family="Times,serif" font-size="14.00" fill="#000000">stringify()</text>
</g>
<!-- res.json()&#45;&gt;stringify() -->
<g id="edge8" class="edge">
<title>res.json()&#45;&gt;stringify()</title>
<path fill="none" stroke="#ff0000" d="M108.0289,-1017.7667C156.5389,-1016.8756 245.0736,-1015.249 299.3251,-1014.2524"/>
<polygon fill="#ff0000" stroke="#ff0000" points="299.4334,-1017.7511 309.3674,-1014.0679 299.3048,-1010.7523 299.4334,-1017.7511"/>
</g>
<!-- res.jsonp() -->
<g id="node7" class="node">
<title>res.jsonp()</title>
<path fill="#e5e5e5" stroke="#000000" d="M103.3365,-969.7008C103.3365,-969.7008 43.7821,-969.7008 43.7821,-969.7008 39.6819,-969.7008 35.5816,-965.6005 35.5816,-961.5003 35.5816,-961.5003 35.5816,-953.2997 35.5816,-953.2997 35.5816,-949.1995 39.6819,-945.0992 43.7821,-945.0992 43.7821,-945.0992 103.3365,-945.0992 103.3365,-945.0992 107.4367,-945.0992 111.537,-949.1995 111.537,-953.2997 111.537,-953.2997 111.537,-961.5003 111.537,-961.5003 111.537,-965.6005 107.4367,-969.7008 103.3365,-969.7008"/>
<text text-anchor="middle" x="73.5593" y="-953.2" font-family="Times,serif" font-size="14.00" fill="#000000">res.jsonp()</text>
</g>
<!-- 支持jsonp -->
<g id="node8" class="node">
<title>支持jsonp</title>
<path fill="#e5e5e5" stroke="#000000" d="M373.1401,-964.7008C373.1401,-964.7008 318.3035,-964.7008 318.3035,-964.7008 314.2033,-964.7008 310.103,-960.6005 310.103,-956.5003 310.103,-956.5003 310.103,-948.2997 310.103,-948.2997 310.103,-944.1995 314.2033,-940.0992 318.3035,-940.0992 318.3035,-940.0992 373.1401,-940.0992 373.1401,-940.0992 377.2403,-940.0992 381.3406,-944.1995 381.3406,-948.2997 381.3406,-948.2997 381.3406,-956.5003 381.3406,-956.5003 381.3406,-960.6005 377.2403,-964.7008 373.1401,-964.7008"/>
<text text-anchor="middle" x="345.7218" y="-948.2" font-family="Times,serif" font-size="14.00" fill="#000000">支持jsonp</text>
</g>
<!-- res.jsonp()&#45;&gt;支持jsonp -->
<g id="edge1" class="edge">
<title>res.jsonp()&#45;&gt;支持jsonp</title>
<path fill="none" stroke="#000000" d="M111.4023,-956.7048C160.6976,-955.7991 246.82,-954.217 299.7984,-953.2437"/>
<polygon fill="#000000" stroke="#000000" points="299.9975,-956.7407 309.9315,-953.0575 299.8688,-949.7419 299.9975,-956.7407"/>
</g>
<!-- res.sendStatus() -->
<g id="node9" class="node">
<title>res.sendStatus()</title>
<path fill="#e5e5e5" stroke="#000000" d="M117.882,-908.7008C117.882,-908.7008 29.2366,-908.7008 29.2366,-908.7008 25.1364,-908.7008 21.0361,-904.6005 21.0361,-900.5003 21.0361,-900.5003 21.0361,-892.2997 21.0361,-892.2997 21.0361,-888.1995 25.1364,-884.0992 29.2366,-884.0992 29.2366,-884.0992 117.882,-884.0992 117.882,-884.0992 121.9822,-884.0992 126.0825,-888.1995 126.0825,-892.2997 126.0825,-892.2997 126.0825,-900.5003 126.0825,-900.5003 126.0825,-904.6005 121.9822,-908.7008 117.882,-908.7008"/>
<text text-anchor="middle" x="73.5593" y="-892.2" font-family="Times,serif" font-size="14.00" fill="#000000">res.sendStatus()</text>
</g>
<!-- 基于statuses模块 -->
<g id="node10" class="node">
<title>基于statuses模块</title>
<path fill="#e5e5e5" stroke="#000000" d="M393.1559,-903.7008C393.1559,-903.7008 298.2877,-903.7008 298.2877,-903.7008 294.1875,-903.7008 290.0872,-899.6005 290.0872,-895.5003 290.0872,-895.5003 290.0872,-887.2997 290.0872,-887.2997 290.0872,-883.1995 294.1875,-879.0992 298.2877,-879.0992 298.2877,-879.0992 393.1559,-879.0992 393.1559,-879.0992 397.2561,-879.0992 401.3564,-883.1995 401.3564,-887.2997 401.3564,-887.2997 401.3564,-895.5003 401.3564,-895.5003 401.3564,-899.6005 397.2561,-903.7008 393.1559,-903.7008"/>
<text text-anchor="middle" x="345.7218" y="-887.2" font-family="Times,serif" font-size="14.00" fill="#000000">基于statuses模块</text>
</g>
<!-- res.sendStatus()&#45;&gt;基于statuses模块 -->
<g id="edge2" class="edge">
<title>res.sendStatus()&#45;&gt;基于statuses模块</title>
<path fill="none" stroke="#000000" d="M126.3577,-895.43C170.1384,-894.6257 232.6062,-893.4781 279.6908,-892.6131"/>
<polygon fill="#000000" stroke="#000000" points="279.8594,-896.1107 289.7934,-892.4275 279.7308,-889.1119 279.8594,-896.1107"/>
</g>
<!-- res.set() -->
<g id="node11" class="node">
<title>res.set()</title>
<path fill="#e5e5e5" stroke="#000000" d="M367.7129,-842.7008C367.7129,-842.7008 323.7307,-842.7008 323.7307,-842.7008 319.6305,-842.7008 315.5302,-838.6005 315.5302,-834.5003 315.5302,-834.5003 315.5302,-826.2997 315.5302,-826.2997 315.5302,-822.1995 319.6305,-818.0992 323.7307,-818.0992 323.7307,-818.0992 367.7129,-818.0992 367.7129,-818.0992 371.8131,-818.0992 375.9134,-822.1995 375.9134,-826.2997 375.9134,-826.2997 375.9134,-834.5003 375.9134,-834.5003 375.9134,-838.6005 371.8131,-842.7008 367.7129,-842.7008"/>
<text text-anchor="middle" x="345.7218" y="-826.2" font-family="Times,serif" font-size="14.00" fill="#000000">res.set()</text>
</g>
<!-- res.header() -->
<g id="node17" class="node">
<title>res.header()</title>
<path fill="#e5e5e5" stroke="#000000" d="M840.2066,-873.7008C840.2066,-873.7008 773.7144,-873.7008 773.7144,-873.7008 769.6142,-873.7008 765.5139,-869.6005 765.5139,-865.5003 765.5139,-865.5003 765.5139,-857.2997 765.5139,-857.2997 765.5139,-853.1995 769.6142,-849.0992 773.7144,-849.0992 773.7144,-849.0992 840.2066,-849.0992 840.2066,-849.0992 844.3068,-849.0992 848.4071,-853.1995 848.4071,-857.2997 848.4071,-857.2997 848.4071,-865.5003 848.4071,-865.5003 848.4071,-869.6005 844.3068,-873.7008 840.2066,-873.7008"/>
<text text-anchor="middle" x="806.9605" y="-857.2" font-family="Times,serif" font-size="14.00" fill="#000000">res.header()</text>
</g>
<!-- res.set()&#45;&gt;res.header() -->
<g id="edge18" class="edge">
<title>res.set()&#45;&gt;res.header()</title>
<path fill="none" stroke="#ff0000" d="M375.985,-832.434C453.3332,-837.6326 658.9499,-851.4522 755.5131,-857.9422"/>
<polygon fill="#ff0000" stroke="#ff0000" points="755.4105,-861.4431 765.6227,-858.6217 755.88,-854.4589 755.4105,-861.4431"/>
</g>
<!-- res.contentType() -->
<g id="node12" class="node">
<title>res.contentType()</title>
<path fill="#e5e5e5" stroke="#000000" d="M122.9774,-786.7008C122.9774,-786.7008 24.1412,-786.7008 24.1412,-786.7008 20.0409,-786.7008 15.9406,-782.6005 15.9406,-778.5003 15.9406,-778.5003 15.9406,-770.2997 15.9406,-770.2997 15.9406,-766.1995 20.0409,-762.0992 24.1412,-762.0992 24.1412,-762.0992 122.9774,-762.0992 122.9774,-762.0992 127.0777,-762.0992 131.178,-766.1995 131.178,-770.2997 131.178,-770.2997 131.178,-778.5003 131.178,-778.5003 131.178,-782.6005 127.0777,-786.7008 122.9774,-786.7008"/>
<text text-anchor="middle" x="73.5593" y="-770.2" font-family="Times,serif" font-size="14.00" fill="#000000">res.contentType()</text>
</g>
<!-- res.type() -->
<g id="node13" class="node">
<title>res.type()</title>
<path fill="#e5e5e5" stroke="#000000" d="M372.2679,-494.7008C372.2679,-494.7008 319.1757,-494.7008 319.1757,-494.7008 315.0754,-494.7008 310.9752,-490.6005 310.9752,-486.5003 310.9752,-486.5003 310.9752,-478.2997 310.9752,-478.2997 310.9752,-474.1995 315.0754,-470.0992 319.1757,-470.0992 319.1757,-470.0992 372.2679,-470.0992 372.2679,-470.0992 376.3682,-470.0992 380.4684,-474.1995 380.4684,-478.2997 380.4684,-478.2997 380.4684,-486.5003 380.4684,-486.5003 380.4684,-490.6005 376.3682,-494.7008 372.2679,-494.7008"/>
<text text-anchor="middle" x="345.7218" y="-478.2" font-family="Times,serif" font-size="14.00" fill="#000000">res.type()</text>
</g>
<!-- res.contentType()&#45;&gt;res.type() -->
<g id="edge10" class="edge">
<title>res.contentType()&#45;&gt;res.type()</title>
<path fill="none" stroke="#ff0000" d="M101.5732,-762.0773C111.4384,-757.0437 122.2652,-750.6823 131.1186,-743.4 222.013,-668.6354 302.2444,-550.7566 332.701,-503.2584"/>
<polygon fill="#ff0000" stroke="#ff0000" points="335.7102,-505.0486 338.1171,-494.7308 329.8012,-501.2957 335.7102,-505.0486"/>
<text text-anchor="middle" x="210.5117" y="-712.6" font-family="Times,serif" font-size="14.00" fill="#000000">设置</text>
</g>
<!-- res.contentType()&#45;&gt;res.type() -->
<g id="edge12" class="edge">
<title>res.contentType()&#45;&gt;res.type()</title>
<path fill="none" stroke="#0000ff" d="M107.5148,-762.0935C116.3167,-757.448 125.023,-751.3123 131.1186,-743.4 174.0255,-687.7053 126.5897,-646.3297 168.1186,-589.6 201.5015,-543.9979 260.69,-514.0228 301.5051,-497.6511"/>
<polygon fill="#0000ff" stroke="#0000ff" points="302.8963,-500.8654 310.9443,-493.9748 300.3559,-494.3426 302.8963,-500.8654"/>
<text text-anchor="middle" x="210.5117" y="-593.6" font-family="Times,serif" font-size="14.00" fill="#000000">基于</text>
</g>
<!-- Content&#45;Type -->
<g id="node30" class="node">
<title>Content&#45;Type</title>
<path fill="#e5e5e5" stroke="#000000" d="M1196.2091,-286.7008C1196.2091,-286.7008 1119.0891,-286.7008 1119.0891,-286.7008 1114.9889,-286.7008 1110.8886,-282.6005 1110.8886,-278.5003 1110.8886,-278.5003 1110.8886,-270.2997 1110.8886,-270.2997 1110.8886,-266.1995 1114.9889,-262.0992 1119.0891,-262.0992 1119.0891,-262.0992 1196.2091,-262.0992 1196.2091,-262.0992 1200.3093,-262.0992 1204.4096,-266.1995 1204.4096,-270.2997 1204.4096,-270.2997 1204.4096,-278.5003 1204.4096,-278.5003 1204.4096,-282.6005 1200.3093,-286.7008 1196.2091,-286.7008"/>
<text text-anchor="middle" x="1157.6491" y="-270.2" font-family="Times,serif" font-size="14.00" fill="#000000">Content&#45;Type</text>
</g>
<!-- res.type()&#45;&gt;Content&#45;Type -->
<g id="edge11" class="edge">
<title>res.type()&#45;&gt;Content&#45;Type</title>
<path fill="none" stroke="#ff0000" d="M380.688,-485.6689C495.1496,-494.4062 863.5589,-506.7335 1077.9878,-329.4 1086.8927,-322.0356 1079.915,-313.6681 1087.9878,-305.4 1093.4497,-299.8059 1100.0994,-295.143 1107.0979,-291.2793"/>
<polygon fill="#ff0000" stroke="#ff0000" points="1108.6952,-294.3939 1116.0862,-286.8029 1105.5746,-288.128 1108.6952,-294.3939"/>
<text text-anchor="middle" x="628.8687" y="-489.6" font-family="Times,serif" font-size="14.00" fill="#000000">设置</text>
</g>
<!-- send模块 -->
<g id="node31" class="node">
<title>send模块</title>
<path fill="#e5e5e5" stroke="#000000" d="M580.2699,-380.7008C580.2699,-380.7008 529.0299,-380.7008 529.0299,-380.7008 524.9296,-380.7008 520.8293,-376.6005 520.8293,-372.5003 520.8293,-372.5003 520.8293,-364.2997 520.8293,-364.2997 520.8293,-360.1995 524.9296,-356.0992 529.0299,-356.0992 529.0299,-356.0992 580.2699,-356.0992 580.2699,-356.0992 584.3702,-356.0992 588.4705,-360.1995 588.4705,-364.2997 588.4705,-364.2997 588.4705,-372.5003 588.4705,-372.5003 588.4705,-376.6005 584.3702,-380.7008 580.2699,-380.7008"/>
<text text-anchor="middle" x="554.6499" y="-364.2" font-family="Times,serif" font-size="14.00" fill="#000000">send模块</text>
</g>
<!-- res.type()&#45;&gt;send模块 -->
<g id="edge13" class="edge">
<title>res.type()&#45;&gt;send模块</title>
<path fill="none" stroke="#0000ff" d="M358.1236,-470.0823C372.09,-456.7378 395.9309,-435.4975 419.5388,-421.6 448.4651,-404.5717 483.8513,-390.8652 511.1526,-381.6315"/>
<polygon fill="#0000ff" stroke="#0000ff" points="512.4235,-384.8977 520.8182,-378.4341 510.225,-378.2519 512.4235,-384.8977"/>
<text text-anchor="middle" x="461.2644" y="-425.6" font-family="Times,serif" font-size="14.00" fill="#000000">基于</text>
</g>
<!-- res.format() -->
<g id="node14" class="node">
<title>res.format()</title>
<path fill="#e5e5e5" stroke="#000000" d="M840.2192,-677.7008C840.2192,-677.7008 773.7018,-677.7008 773.7018,-677.7008 769.6015,-677.7008 765.5012,-673.6005 765.5012,-669.5003 765.5012,-669.5003 765.5012,-661.2997 765.5012,-661.2997 765.5012,-657.1995 769.6015,-653.0992 773.7018,-653.0992 773.7018,-653.0992 840.2192,-653.0992 840.2192,-653.0992 844.3195,-653.0992 848.4198,-657.1995 848.4198,-661.2997 848.4198,-661.2997 848.4198,-669.5003 848.4198,-669.5003 848.4198,-673.6005 844.3195,-677.7008 840.2192,-677.7008"/>
<text text-anchor="middle" x="806.9605" y="-661.2" font-family="Times,serif" font-size="14.00" fill="#000000">res.format()</text>
</g>
<!-- res.format()&#45;&gt;res.end() -->
<g id="edge24" class="edge">
<title>res.format()&#45;&gt;res.end()</title>
<path fill="none" stroke="#ff0000" d="M833.0614,-677.7055C926.6474,-721.8276 1245.4839,-872.146 1352.66,-922.6752"/>
<polygon fill="#ff0000" stroke="#ff0000" points="1351.2359,-925.8733 1361.7736,-926.972 1354.221,-919.5417 1351.2359,-925.8733"/>
</g>
<!-- Accept -->
<g id="node32" class="node">
<title>Accept</title>
<path fill="#e5e5e5" stroke="#000000" d="M1177.0907,-347.7008C1177.0907,-347.7008 1138.2075,-347.7008 1138.2075,-347.7008 1134.1072,-347.7008 1130.0069,-343.6005 1130.0069,-339.5003 1130.0069,-339.5003 1130.0069,-331.2997 1130.0069,-331.2997 1130.0069,-327.1995 1134.1072,-323.0992 1138.2075,-323.0992 1138.2075,-323.0992 1177.0907,-323.0992 1177.0907,-323.0992 1181.191,-323.0992 1185.2913,-327.1995 1185.2913,-331.2997 1185.2913,-331.2997 1185.2913,-339.5003 1185.2913,-339.5003 1185.2913,-343.6005 1181.191,-347.7008 1177.0907,-347.7008"/>
<text text-anchor="middle" x="1157.6491" y="-331.2" font-family="Times,serif" font-size="14.00" fill="#000000">Accept</text>
</g>
<!-- res.format()&#45;&gt;Accept -->
<g id="edge14" class="edge">
<title>res.format()&#45;&gt;Accept</title>
<path fill="none" stroke="#000000" d="M846.8255,-653.0867C908.3243,-631.7737 1024.7849,-581.6964 1077.9878,-494.4 1104.6873,-450.5909 1061.2992,-423.2157 1087.9878,-379.4 1095.6523,-366.8169 1108.4261,-357.2366 1120.957,-350.2796"/>
<polygon fill="#000000" stroke="#000000" points="1122.6539,-353.343 1129.962,-345.6721 1119.4654,-347.1113 1122.6539,-353.343"/>
<text text-anchor="middle" x="1020.2406" y="-602.6" font-family="Times,serif" font-size="14.00" fill="#000000">根据情况来做不同处理</text>
</g>
<!-- res.attachment() -->
<g id="node15" class="node">
<title>res.attachment()</title>
<path fill="#e5e5e5" stroke="#000000" d="M118.4215,-542.7008C118.4215,-542.7008 28.6971,-542.7008 28.6971,-542.7008 24.5969,-542.7008 20.4966,-538.6005 20.4966,-534.5003 20.4966,-534.5003 20.4966,-526.2997 20.4966,-526.2997 20.4966,-522.1995 24.5969,-518.0992 28.6971,-518.0992 28.6971,-518.0992 118.4215,-518.0992 118.4215,-518.0992 122.5217,-518.0992 126.622,-522.1995 126.622,-526.2997 126.622,-526.2997 126.622,-534.5003 126.622,-534.5003 126.622,-538.6005 122.5217,-542.7008 118.4215,-542.7008"/>
<text text-anchor="middle" x="73.5593" y="-526.2" font-family="Times,serif" font-size="14.00" fill="#000000">res.attachment()</text>
</g>
<!-- content&#45;disposition -->
<g id="node33" class="node">
<title>content&#45;disposition</title>
<path fill="#e5e5e5" stroke="#000000" d="M1211.2716,-103.7008C1211.2716,-103.7008 1104.0266,-103.7008 1104.0266,-103.7008 1099.9263,-103.7008 1095.8261,-99.6005 1095.8261,-95.5003 1095.8261,-95.5003 1095.8261,-87.2997 1095.8261,-87.2997 1095.8261,-83.1995 1099.9263,-79.0992 1104.0266,-79.0992 1104.0266,-79.0992 1211.2716,-79.0992 1211.2716,-79.0992 1215.3719,-79.0992 1219.4721,-83.1995 1219.4721,-87.2997 1219.4721,-87.2997 1219.4721,-95.5003 1219.4721,-95.5003 1219.4721,-99.6005 1215.3719,-103.7008 1211.2716,-103.7008"/>
<text text-anchor="middle" x="1157.6491" y="-87.2" font-family="Times,serif" font-size="14.00" fill="#000000">content&#45;disposition</text>
</g>
<!-- res.attachment()&#45;&gt;content&#45;disposition -->
<g id="edge15" class="edge">
<title>res.attachment()&#45;&gt;content&#45;disposition</title>
<path fill="none" stroke="#ff0000" d="M109.9436,-517.9405C118.215,-513.3895 126.0481,-507.3396 131.1186,-499.4 167.0658,-443.1129 117.4607,-258.2067 149.1186,-199.4 165.2803,-169.3785 176.4164,-153.4 210.5117,-153.4 210.5117,-153.4 210.5117,-153.4 806.9605,-153.4 914.4334,-153.4 1037.6426,-124.8146 1105.667,-106.4633"/>
<polygon fill="#ff0000" stroke="#ff0000" points="1106.973,-109.7349 1115.6972,-103.7233 1105.1283,-102.9823 1106.973,-109.7349"/>
<text text-anchor="middle" x="461.2644" y="-157.6" font-family="Times,serif" font-size="14.00" fill="#000000">设置</text>
</g>
<!-- res.append() -->
<g id="node16" class="node">
<title>res.append()</title>
<path fill="#e5e5e5" stroke="#000000" d="M107.93,-847.7008C107.93,-847.7008 39.1886,-847.7008 39.1886,-847.7008 35.0883,-847.7008 30.988,-843.6005 30.988,-839.5003 30.988,-839.5003 30.988,-831.2997 30.988,-831.2997 30.988,-827.1995 35.0883,-823.0992 39.1886,-823.0992 39.1886,-823.0992 107.93,-823.0992 107.93,-823.0992 112.0303,-823.0992 116.1306,-827.1995 116.1306,-831.2997 116.1306,-831.2997 116.1306,-839.5003 116.1306,-839.5003 116.1306,-843.6005 112.0303,-847.7008 107.93,-847.7008"/>
<text text-anchor="middle" x="73.5593" y="-831.2" font-family="Times,serif" font-size="14.00" fill="#000000">res.append()</text>
</g>
<!-- res.append()&#45;&gt;res.set() -->
<g id="edge17" class="edge">
<title>res.append()&#45;&gt;res.set()</title>
<path fill="none" stroke="#000000" d="M116.3841,-834.6132C168.0938,-833.6633 254.4188,-832.0774 305.1145,-831.146"/>
<polygon fill="#000000" stroke="#000000" points="305.4324,-834.6409 315.3663,-830.9577 305.3037,-827.642 305.4324,-834.6409"/>
</g>
<!-- response.setHeader() -->
<g id="node35" class="node">
<title>response.setHeader()</title>
<path fill="#e5e5e5" stroke="#000000" d="M1674.0595,-1031.7008C1674.0595,-1031.7008 1556.9381,-1031.7008 1556.9381,-1031.7008 1552.8379,-1031.7008 1548.7376,-1027.6005 1548.7376,-1023.5003 1548.7376,-1023.5003 1548.7376,-1015.2997 1548.7376,-1015.2997 1548.7376,-1011.1995 1552.8379,-1007.0992 1556.9381,-1007.0992 1556.9381,-1007.0992 1674.0595,-1007.0992 1674.0595,-1007.0992 1678.1597,-1007.0992 1682.26,-1011.1995 1682.26,-1015.2997 1682.26,-1015.2997 1682.26,-1023.5003 1682.26,-1023.5003 1682.26,-1027.6005 1678.1597,-1031.7008 1674.0595,-1031.7008"/>
<text text-anchor="middle" x="1615.4988" y="-1015.2" font-family="Times,serif" font-size="14.00" fill="#000000">response.setHeader()</text>
</g>
<!-- res.header()&#45;&gt;response.setHeader() -->
<g id="edge19" class="edge">
<title>res.header()&#45;&gt;response.setHeader()</title>
<path fill="none" stroke="#ff0000" d="M848.2179,-872.7617C924.5355,-893.4665 1093.127,-937.7495 1237.3104,-965.4 1340.9471,-985.2747 1461.8458,-1001.3036 1538.5173,-1010.59"/>
<polygon fill="#ff0000" stroke="#ff0000" points="1538.2249,-1014.08 1548.5715,-1011.7998 1539.0612,-1007.1301 1538.2249,-1014.08"/>
</g>
<!-- res.clearCookie() -->
<g id="node18" class="node">
<title>res.clearCookie()</title>
<path fill="#e5e5e5" stroke="#000000" d="M121.6368,-603.7008C121.6368,-603.7008 25.4818,-603.7008 25.4818,-603.7008 21.3815,-603.7008 17.2813,-599.6005 17.2813,-595.5003 17.2813,-595.5003 17.2813,-587.2997 17.2813,-587.2997 17.2813,-583.1995 21.3815,-579.0992 25.4818,-579.0992 25.4818,-579.0992 121.6368,-579.0992 121.6368,-579.0992 125.7371,-579.0992 129.8373,-583.1995 129.8373,-587.2997 129.8373,-587.2997 129.8373,-595.5003 129.8373,-595.5003 129.8373,-599.6005 125.7371,-603.7008 121.6368,-603.7008"/>
<text text-anchor="middle" x="73.5593" y="-587.2" font-family="Times,serif" font-size="14.00" fill="#000000">res.clearCookie()</text>
</g>
<!-- res.cookie() -->
<g id="node19" class="node">
<title>res.cookie()</title>
<path fill="#e5e5e5" stroke="#000000" d="M106.8209,-481.7008C106.8209,-481.7008 40.2977,-481.7008 40.2977,-481.7008 36.1975,-481.7008 32.0972,-477.6005 32.0972,-473.5003 32.0972,-473.5003 32.0972,-465.2997 32.0972,-465.2997 32.0972,-461.1995 36.1975,-457.0992 40.2977,-457.0992 40.2977,-457.0992 106.8209,-457.0992 106.8209,-457.0992 110.9211,-457.0992 115.0214,-461.1995 115.0214,-465.2997 115.0214,-465.2997 115.0214,-473.5003 115.0214,-473.5003 115.0214,-477.6005 110.9211,-481.7008 106.8209,-481.7008"/>
<text text-anchor="middle" x="73.5593" y="-465.2" font-family="Times,serif" font-size="14.00" fill="#000000">res.cookie()</text>
</g>
<!-- Set&#45;Cookie -->
<g id="node36" class="node">
<title>Set&#45;Cookie</title>
<path fill="#e5e5e5" stroke="#000000" d="M1188.9388,-42.7008C1188.9388,-42.7008 1126.3594,-42.7008 1126.3594,-42.7008 1122.2592,-42.7008 1118.1589,-38.6005 1118.1589,-34.5003 1118.1589,-34.5003 1118.1589,-26.2997 1118.1589,-26.2997 1118.1589,-22.1995 1122.2592,-18.0992 1126.3594,-18.0992 1126.3594,-18.0992 1188.9388,-18.0992 1188.9388,-18.0992 1193.039,-18.0992 1197.1393,-22.1995 1197.1393,-26.2997 1197.1393,-26.2997 1197.1393,-34.5003 1197.1393,-34.5003 1197.1393,-38.6005 1193.039,-42.7008 1188.9388,-42.7008"/>
<text text-anchor="middle" x="1157.6491" y="-26.2" font-family="Times,serif" font-size="14.00" fill="#000000">Set&#45;Cookie</text>
</g>
<!-- res.cookie()&#45;&gt;Set&#45;Cookie -->
<g id="edge20" class="edge">
<title>res.cookie()&#45;&gt;Set&#45;Cookie</title>
<path fill="none" stroke="#00ff00" d="M109.5796,-457.0626C117.9614,-452.4936 125.9391,-446.4044 131.1186,-438.4 161.3781,-391.637 135.892,-242.5062 149.1186,-188.4 162.3216,-134.3902 154.9115,-79.4 210.5117,-79.4 210.5117,-79.4 210.5117,-79.4 806.9605,-79.4 915.1359,-79.4 1040.2908,-56.2486 1107.9723,-41.7729"/>
<polygon fill="#00ff00" stroke="#00ff00" points="1108.8983,-45.1536 1117.9311,-39.6165 1107.4169,-38.3122 1108.8983,-45.1536"/>
</g>
<!-- res.location() -->
<g id="node20" class="node">
<title>res.location()</title>
<path fill="#e5e5e5" stroke="#000000" d="M110.6011,-725.7008C110.6011,-725.7008 36.5175,-725.7008 36.5175,-725.7008 32.4172,-725.7008 28.317,-721.6005 28.317,-717.5003 28.317,-717.5003 28.317,-709.2997 28.317,-709.2997 28.317,-705.1995 32.4172,-701.0992 36.5175,-701.0992 36.5175,-701.0992 110.6011,-701.0992 110.6011,-701.0992 114.7014,-701.0992 118.8016,-705.1995 118.8016,-709.2997 118.8016,-709.2997 118.8016,-717.5003 118.8016,-717.5003 118.8016,-721.6005 114.7014,-725.7008 110.6011,-725.7008"/>
<text text-anchor="middle" x="73.5593" y="-709.2" font-family="Times,serif" font-size="14.00" fill="#000000">res.location()</text>
</g>
<!-- Location -->
<g id="node38" class="node">
<title>Location</title>
<path fill="#e5e5e5" stroke="#000000" d="M1182.212,-225.7008C1182.212,-225.7008 1133.0862,-225.7008 1133.0862,-225.7008 1128.9859,-225.7008 1124.8857,-221.6005 1124.8857,-217.5003 1124.8857,-217.5003 1124.8857,-209.2997 1124.8857,-209.2997 1124.8857,-205.1995 1128.9859,-201.0992 1133.0862,-201.0992 1133.0862,-201.0992 1182.212,-201.0992 1182.212,-201.0992 1186.3123,-201.0992 1190.4125,-205.1995 1190.4125,-209.2997 1190.4125,-209.2997 1190.4125,-217.5003 1190.4125,-217.5003 1190.4125,-221.6005 1186.3123,-225.7008 1182.212,-225.7008"/>
<text text-anchor="middle" x="1157.6491" y="-209.2" font-family="Times,serif" font-size="14.00" fill="#000000">Location</text>
</g>
<!-- res.location()&#45;&gt;Location -->
<g id="edge22" class="edge">
<title>res.location()&#45;&gt;Location</title>
<path fill="none" stroke="#ffff00" d="M107.9724,-701.0541C116.6734,-696.429 125.2128,-690.3138 131.1186,-682.4 156.9812,-647.7438 167.269,-301.4 210.5117,-301.4 210.5117,-301.4 210.5117,-301.4 806.9605,-301.4 923.4461,-301.4 1055.3285,-255.1588 1119.0761,-229.7162"/>
<polygon fill="#ffff00" stroke="#ffff00" points="1120.7503,-232.8146 1128.7094,-225.8216 1118.1266,-226.3249 1120.7503,-232.8146"/>
<text text-anchor="middle" x="461.2644" y="-305.6" font-family="Times,serif" font-size="14.00" fill="#000000">设置</text>
</g>
<!-- res.redirect() -->
<g id="node21" class="node">
<title>res.redirect()</title>
<path fill="#e5e5e5" stroke="#000000" d="M381.4085,-677.7008C381.4085,-677.7008 310.0351,-677.7008 310.0351,-677.7008 305.9348,-677.7008 301.8345,-673.6005 301.8345,-669.5003 301.8345,-669.5003 301.8345,-661.2997 301.8345,-661.2997 301.8345,-657.1995 305.9348,-653.0992 310.0351,-653.0992 310.0351,-653.0992 381.4085,-653.0992 381.4085,-653.0992 385.5088,-653.0992 389.6091,-657.1995 389.6091,-661.2997 389.6091,-661.2997 389.6091,-669.5003 389.6091,-669.5003 389.6091,-673.6005 385.5088,-677.7008 381.4085,-677.7008"/>
<text text-anchor="middle" x="345.7218" y="-661.2" font-family="Times,serif" font-size="14.00" fill="#000000">res.redirect()</text>
</g>
<!-- res.redirect()&#45;&gt;res.format() -->
<g id="edge23" class="edge">
<title>res.redirect()&#45;&gt;res.format()</title>
<path fill="none" stroke="#ff0000" d="M389.9473,-665.4C475.7057,-665.4 664.1739,-665.4 755.4305,-665.4"/>
<polygon fill="#ff0000" stroke="#ff0000" points="755.5369,-668.9001 765.5369,-665.4 755.5369,-661.9001 755.5369,-668.9001"/>
</g>
<!-- response.end() -->
<g id="node39" class="node">
<title>response.end()</title>
<path fill="#e5e5e5" stroke="#000000" d="M1656.3131,-970.7008C1656.3131,-970.7008 1574.6845,-970.7008 1574.6845,-970.7008 1570.5843,-970.7008 1566.484,-966.6005 1566.484,-962.5003 1566.484,-962.5003 1566.484,-954.2997 1566.484,-954.2997 1566.484,-950.1995 1570.5843,-946.0992 1574.6845,-946.0992 1574.6845,-946.0992 1656.3131,-946.0992 1656.3131,-946.0992 1660.4133,-946.0992 1664.5136,-950.1995 1664.5136,-954.2997 1664.5136,-954.2997 1664.5136,-962.5003 1664.5136,-962.5003 1664.5136,-966.6005 1660.4133,-970.7008 1656.3131,-970.7008"/>
<text text-anchor="middle" x="1615.4988" y="-954.2" font-family="Times,serif" font-size="14.00" fill="#000000">response.end()</text>
</g>
<!-- res.end()&#45;&gt;response.end() -->
<g id="edge25" class="edge">
<title>res.end()&#45;&gt;response.end()</title>
<path fill="none" stroke="#000000" d="M1421.1951,-942.1628C1456.5417,-945.1165 1513.3119,-949.8606 1556.3827,-953.4599"/>
<polygon fill="#000000" stroke="#000000" points="1556.2026,-956.9569 1566.4593,-954.302 1556.7856,-949.9813 1556.2026,-956.9569"/>
</g>
<!-- res.render() -->
<g id="node23" class="node">
<title>res.render()</title>
<path fill="#e5e5e5" stroke="#000000" d="M105.7502,-420.7008C105.7502,-420.7008 41.3684,-420.7008 41.3684,-420.7008 37.2681,-420.7008 33.1678,-416.6005 33.1678,-412.5003 33.1678,-412.5003 33.1678,-404.2997 33.1678,-404.2997 33.1678,-400.1995 37.2681,-396.0992 41.3684,-396.0992 41.3684,-396.0992 105.7502,-396.0992 105.7502,-396.0992 109.8505,-396.0992 113.9508,-400.1995 113.9508,-404.2997 113.9508,-404.2997 113.9508,-412.5003 113.9508,-412.5003 113.9508,-416.6005 109.8505,-420.7008 105.7502,-420.7008"/>
<text text-anchor="middle" x="73.5593" y="-404.2" font-family="Times,serif" font-size="14.00" fill="#000000">res.render()</text>
</g>
<!-- app.render() -->
<g id="node40" class="node">
<title>app.render()</title>
<path fill="#e5e5e5" stroke="#000000" d="M244.5976,-24.7008C244.5976,-24.7008 176.4258,-24.7008 176.4258,-24.7008 172.3255,-24.7008 168.2252,-20.6005 168.2252,-16.5003 168.2252,-16.5003 168.2252,-8.2997 168.2252,-8.2997 168.2252,-4.1995 172.3255,-.0992 176.4258,-.0992 176.4258,-.0992 244.5976,-.0992 244.5976,-.0992 248.6979,-.0992 252.7982,-4.1995 252.7982,-8.2997 252.7982,-8.2997 252.7982,-16.5003 252.7982,-16.5003 252.7982,-20.6005 248.6979,-24.7008 244.5976,-24.7008"/>
<text text-anchor="middle" x="210.5117" y="-8.2" font-family="Times,serif" font-size="14.00" fill="#000000">app.render()</text>
</g>
<!-- res.render()&#45;&gt;app.render() -->
<g id="edge26" class="edge">
<title>res.render()&#45;&gt;app.render()</title>
<path fill="none" stroke="#000000" d="M74.9096,-395.7925C81.1544,-339.3008 108.6623,-109.6908 149.1186,-51.4 155.0584,-42.8418 163.5458,-35.7492 172.3219,-30.0665"/>
<polygon fill="#000000" stroke="#000000" points="174.2966,-32.9646 181.1106,-24.8517 170.7245,-26.9446 174.2966,-32.9646"/>
</g>
<!-- stringify()&#45;&gt;res.send() -->
<g id="edge9" class="edge">
<title>stringify()&#45;&gt;res.send()</title>
<path fill="none" stroke="#ff0000" d="M382.3,-1013.4C465.8021,-1013.4 670.2721,-1013.4 761.6053,-1013.4"/>
<polygon fill="#ff0000" stroke="#ff0000" points="761.6476,-1016.9001 771.6476,-1013.4 761.6475,-1009.9001 761.6476,-1016.9001"/>
</g>
<!-- 基于JSON.stringify()，并兼容html转码 -->
<g id="node25" class="node">
<title>基于JSON.stringify()，并兼容html转码</title>
<path fill="#e5e5e5" stroke="#000000" d="M936.3258,-964.7008C936.3258,-964.7008 677.5952,-964.7008 677.5952,-964.7008 673.495,-964.7008 669.3947,-960.6005 669.3947,-956.5003 669.3947,-956.5003 669.3947,-948.2997 669.3947,-948.2997 669.3947,-944.1995 673.495,-940.0992 677.5952,-940.0992 677.5952,-940.0992 936.3258,-940.0992 936.3258,-940.0992 940.426,-940.0992 944.5263,-944.1995 944.5263,-948.2997 944.5263,-948.2997 944.5263,-956.5003 944.5263,-956.5003 944.5263,-960.6005 940.426,-964.7008 936.3258,-964.7008"/>
<text text-anchor="middle" x="806.9605" y="-948.2" font-family="Times,serif" font-size="14.00" fill="#000000">基于JSON.stringify()，并兼容html转码</text>
</g>
<!-- stringify()&#45;&gt;基于JSON.stringify()，并兼容html转码 -->
<g id="edge3" class="edge">
<title>stringify()&#45;&gt;基于JSON.stringify()，并兼容html转码</title>
<path fill="none" stroke="#000000" d="M382.3,-1008.5624C450.9663,-999.4811 601.4346,-979.5813 703.523,-966.0799"/>
<polygon fill="#000000" stroke="#000000" points="704.101,-969.534 713.5558,-964.753 703.1832,-962.5944 704.101,-969.534"/>
</g>
<!-- 基于content&#45;disposition模块 -->
<g id="node34" class="node">
<title>基于content&#45;disposition模块</title>
<path fill="#e5e5e5" stroke="#000000" d="M1467.8468,-103.7008C1467.8468,-103.7008 1308.422,-103.7008 1308.422,-103.7008 1304.3218,-103.7008 1300.2215,-99.6005 1300.2215,-95.5003 1300.2215,-95.5003 1300.2215,-87.2997 1300.2215,-87.2997 1300.2215,-83.1995 1304.3218,-79.0992 1308.422,-79.0992 1308.422,-79.0992 1467.8468,-79.0992 1467.8468,-79.0992 1471.947,-79.0992 1476.0473,-83.1995 1476.0473,-87.2997 1476.0473,-87.2997 1476.0473,-95.5003 1476.0473,-95.5003 1476.0473,-99.6005 1471.947,-103.7008 1467.8468,-103.7008"/>
<text text-anchor="middle" x="1388.1344" y="-87.2" font-family="Times,serif" font-size="14.00" fill="#000000">基于content&#45;disposition模块</text>
</g>
<!-- content&#45;disposition&#45;&gt;基于content&#45;disposition模块 -->
<g id="edge16" class="edge">
<title>content&#45;disposition&#45;&gt;基于content&#45;disposition模块</title>
<path fill="none" stroke="#ff0000" d="M1219.4149,-91.4C1241.1168,-91.4 1266.0696,-91.4 1290.0138,-91.4"/>
<polygon fill="#ff0000" stroke="#ff0000" points="1290.2015,-94.9001 1300.2015,-91.4 1290.2015,-87.9001 1290.2015,-94.9001"/>
<text text-anchor="middle" x="1259.8693" y="-95.6" font-family="Times,serif" font-size="14.00" fill="#000000">设置</text>
</g>
<!-- 基于cookie模块 -->
<g id="node37" class="node">
<title>基于cookie模块</title>
<path fill="#e5e5e5" stroke="#000000" d="M1432.8443,-42.7008C1432.8443,-42.7008 1343.4245,-42.7008 1343.4245,-42.7008 1339.3243,-42.7008 1335.224,-38.6005 1335.224,-34.5003 1335.224,-34.5003 1335.224,-26.2997 1335.224,-26.2997 1335.224,-22.1995 1339.3243,-18.0992 1343.4245,-18.0992 1343.4245,-18.0992 1432.8443,-18.0992 1432.8443,-18.0992 1436.9445,-18.0992 1441.0448,-22.1995 1441.0448,-26.2997 1441.0448,-26.2997 1441.0448,-34.5003 1441.0448,-34.5003 1441.0448,-38.6005 1436.9445,-42.7008 1432.8443,-42.7008"/>
<text text-anchor="middle" x="1388.1344" y="-26.2" font-family="Times,serif" font-size="14.00" fill="#000000">基于cookie模块</text>
</g>
<!-- Set&#45;Cookie&#45;&gt;基于cookie模块 -->
<g id="edge21" class="edge">
<title>Set&#45;Cookie&#45;&gt;基于cookie模块</title>
<path fill="none" stroke="#00ff00" d="M1197.2709,-30.4C1232.3925,-30.4 1284.2912,-30.4 1325.1079,-30.4"/>
<polygon fill="#00ff00" stroke="#00ff00" points="1325.2293,-33.9001 1335.2293,-30.4 1325.2293,-26.9001 1325.2293,-33.9001"/>
</g>
</g>
</svg>
