<?xml version="1.0" encoding="UTF-8" standalone="no"?>
<!DOCTYPE svg PUBLIC "-//W3C//DTD SVG 1.1//EN"
 "http://www.w3.org/Graphics/SVG/1.1/DTD/svg11.dtd">
<!-- Generated by graphviz version 2.40.1 (20161225.0304)
 -->
<!-- Title: tree Pages: 1 -->
<svg width="1167pt" height="1051pt"
 viewBox="0.00 0.00 1166.59 1051.00" xmlns="http://www.w3.org/2000/svg" xmlns:xlink="http://www.w3.org/1999/xlink">
<g id="graph0" class="graph" transform="scale(1 1) rotate(0) translate(4 1047)">
<title>tree</title>
<polygon fill="#ffffff" stroke="transparent" points="-4,4 -4,-1047 1162.5944,-1047 1162.5944,4 -4,4"/>
<g id="clust1" class="cluster">
<title>cluster_router</title>
<polygon fill="none" stroke="#000000" points="8,-604 8,-1035 949.1897,-1035 949.1897,-604 8,-604"/>
<text text-anchor="middle" x="478.5949" y="-1018.4" font-family="Times,serif" font-size="14.00" fill="#000000">router/index.js</text>
</g>
<g id="clust2" class="cluster">
<title>cluster_layer</title>
<polygon fill="none" stroke="#000000" points="800.5844,-242 800.5844,-551 1150.5944,-551 1150.5944,-242 800.5844,-242"/>
<text text-anchor="middle" x="975.5894" y="-534.4" font-family="Times,serif" font-size="14.00" fill="#000000">router/layer.js</text>
</g>
<g id="clust3" class="cluster">
<title>cluster_route</title>
<polygon fill="none" stroke="#000000" points="228.329,-47 228.329,-539 743.6398,-539 743.6398,-47 228.329,-47"/>
<text text-anchor="middle" x="485.9844" y="-522.4" font-family="Times,serif" font-size="14.00" fill="#000000">router/route.js</text>
</g>
<!-- proto -->
<g id="node1" class="node">
<title>proto</title>
<path fill="#e5e5e5" stroke="#000000" d="M104.2411,-1002.3008C104.2411,-1002.3008 75.5353,-1002.3008 75.5353,-1002.3008 71.4351,-1002.3008 67.3348,-998.2005 67.3348,-994.1003 67.3348,-994.1003 67.3348,-985.8997 67.3348,-985.8997 67.3348,-981.7995 71.4351,-977.6992 75.5353,-977.6992 75.5353,-977.6992 104.2411,-977.6992 104.2411,-977.6992 108.3413,-977.6992 112.4416,-981.7995 112.4416,-985.8997 112.4416,-985.8997 112.4416,-994.1003 112.4416,-994.1003 112.4416,-998.2005 108.3413,-1002.3008 104.2411,-1002.3008"/>
<text text-anchor="middle" x="89.8882" y="-985.8" font-family="Times,serif" font-size="14.00" fill="#000000">proto</text>
</g>
<!-- 初始化Router -->
<g id="node2" class="node">
<title>初始化Router</title>
<path fill="#e5e5e5" stroke="#000000" d="M515.4922,-1002.3008C515.4922,-1002.3008 442.6884,-1002.3008 442.6884,-1002.3008 438.5881,-1002.3008 434.4878,-998.2005 434.4878,-994.1003 434.4878,-994.1003 434.4878,-985.8997 434.4878,-985.8997 434.4878,-981.7995 438.5881,-977.6992 442.6884,-977.6992 442.6884,-977.6992 515.4922,-977.6992 515.4922,-977.6992 519.5925,-977.6992 523.6928,-981.7995 523.6928,-985.8997 523.6928,-985.8997 523.6928,-994.1003 523.6928,-994.1003 523.6928,-998.2005 519.5925,-1002.3008 515.4922,-1002.3008"/>
<text text-anchor="middle" x="479.0903" y="-985.8" font-family="Times,serif" font-size="14.00" fill="#000000">初始化Router</text>
</g>
<!-- proto&#45;&gt;初始化Router -->
<g id="edge1" class="edge">
<title>proto&#45;&gt;初始化Router</title>
<path fill="none" stroke="#000000" d="M112.4956,-990C172.5949,-990 337.6328,-990 424.2987,-990"/>
<polygon fill="#000000" stroke="#000000" points="424.4669,-993.5001 434.4668,-990 424.4668,-986.5001 424.4669,-993.5001"/>
</g>
<!-- proto.params -->
<g id="node3" class="node">
<title>proto.params</title>
<path fill="#e5e5e5" stroke="#000000" d="M515.8672,-941.3008C515.8672,-941.3008 442.3134,-941.3008 442.3134,-941.3008 438.2131,-941.3008 434.1128,-937.2005 434.1128,-933.1003 434.1128,-933.1003 434.1128,-924.8997 434.1128,-924.8997 434.1128,-920.7995 438.2131,-916.6992 442.3134,-916.6992 442.3134,-916.6992 515.8672,-916.6992 515.8672,-916.6992 519.9675,-916.6992 524.0678,-920.7995 524.0678,-924.8997 524.0678,-924.8997 524.0678,-933.1003 524.0678,-933.1003 524.0678,-937.2005 519.9675,-941.3008 515.8672,-941.3008"/>
<text text-anchor="middle" x="479.0903" y="-924.8" font-family="Times,serif" font-size="14.00" fill="#000000">proto.params</text>
</g>
<!-- proto.stack -->
<g id="node4" class="node">
<title>proto.stack</title>
<path fill="#e5e5e5" stroke="#000000" d="M509.7056,-775.3008C509.7056,-775.3008 448.475,-775.3008 448.475,-775.3008 444.3747,-775.3008 440.2745,-771.2005 440.2745,-767.1003 440.2745,-767.1003 440.2745,-758.8997 440.2745,-758.8997 440.2745,-754.7995 444.3747,-750.6992 448.475,-750.6992 448.475,-750.6992 509.7056,-750.6992 509.7056,-750.6992 513.8059,-750.6992 517.9061,-754.7995 517.9061,-758.8997 517.9061,-758.8997 517.9061,-767.1003 517.9061,-767.1003 517.9061,-771.2005 513.8059,-775.3008 509.7056,-775.3008"/>
<text text-anchor="middle" x="479.0903" y="-758.8" font-family="Times,serif" font-size="14.00" fill="#000000">proto.stack</text>
</g>
<!-- 路由，中间件 -->
<g id="node5" class="node">
<title>路由，中间件</title>
<path fill="#e5e5e5" stroke="#000000" d="M932.9903,-864.3008C932.9903,-864.3008 830.3869,-864.3008 830.3869,-864.3008 826.2867,-864.3008 822.1864,-860.2005 822.1864,-856.1003 822.1864,-856.1003 822.1864,-847.8997 822.1864,-847.8997 822.1864,-843.7995 826.2867,-839.6992 830.3869,-839.6992 830.3869,-839.6992 932.9903,-839.6992 932.9903,-839.6992 937.0905,-839.6992 941.1908,-843.7995 941.1908,-847.8997 941.1908,-847.8997 941.1908,-856.1003 941.1908,-856.1003 941.1908,-860.2005 937.0905,-864.3008 932.9903,-864.3008"/>
<text text-anchor="middle" x="881.6886" y="-847.8" font-family="Times,serif" font-size="14.00" fill="#000000">路由，中间件</text>
</g>
<!-- proto.stack&#45;&gt;路由，中间件 -->
<g id="edge2" class="edge">
<title>proto.stack&#45;&gt;路由，中间件</title>
<path fill="none" stroke="#000000" d="M502.9935,-775.31C514.4838,-780.7979 528.605,-786.9286 541.8284,-791 633.158,-819.1199 742.5274,-835.8723 812.0568,-844.5106"/>
<polygon fill="#000000" stroke="#000000" points="811.6688,-847.9892 822.0193,-845.7267 812.517,-841.0407 811.6688,-847.9892"/>
<text text-anchor="middle" x="701.3947" y="-838.2" font-family="Times,serif" font-size="14.00" fill="#000000">set</text>
</g>
<!-- Layer.handle_error() -->
<g id="node12" class="node">
<title>Layer.handle_error()</title>
<path fill="#e5e5e5" stroke="#000000" d="M939.9679,-518.3008C939.9679,-518.3008 823.4093,-518.3008 823.4093,-518.3008 819.3091,-518.3008 815.2088,-514.2005 815.2088,-510.1003 815.2088,-510.1003 815.2088,-501.8997 815.2088,-501.8997 815.2088,-497.7995 819.3091,-493.6992 823.4093,-493.6992 823.4093,-493.6992 939.9679,-493.6992 939.9679,-493.6992 944.0681,-493.6992 948.1684,-497.7995 948.1684,-501.8997 948.1684,-501.8997 948.1684,-510.1003 948.1684,-510.1003 948.1684,-514.2005 944.0681,-518.3008 939.9679,-518.3008"/>
<text text-anchor="middle" x="881.6886" y="-501.8" font-family="Times,serif" font-size="14.00" fill="#000000">Layer.handle_error()</text>
</g>
<!-- proto.stack&#45;&gt;Layer.handle_error() -->
<g id="edge5" class="edge">
<title>proto.stack&#45;&gt;Layer.handle_error()</title>
<path fill="none" stroke="#ffc0cb" d="M518.1049,-768.5812C584.9533,-775.6977 720.9041,-779.0367 790.5844,-702 806.6043,-684.2889 790.9316,-616.8436 800.5844,-595 813.1532,-566.5575 838.4985,-541.1197 857.529,-524.7977"/>
<polygon fill="#ffc0cb" stroke="#ffc0cb" points="859.7949,-527.4655 865.2427,-518.3785 855.3173,-522.0849 859.7949,-527.4655"/>
<text text-anchor="middle" x="701.3947" y="-768.2" font-family="Times,serif" font-size="14.00" fill="#000000">异常</text>
</g>
<!-- Layer.handle_request() -->
<g id="node13" class="node">
<title>Layer.handle_request()</title>
<path fill="#e5e5e5" stroke="#000000" d="M946.6966,-457.3008C946.6966,-457.3008 816.6806,-457.3008 816.6806,-457.3008 812.5803,-457.3008 808.4801,-453.2005 808.4801,-449.1003 808.4801,-449.1003 808.4801,-440.8997 808.4801,-440.8997 808.4801,-436.7995 812.5803,-432.6992 816.6806,-432.6992 816.6806,-432.6992 946.6966,-432.6992 946.6966,-432.6992 950.7969,-432.6992 954.8971,-436.7995 954.8971,-440.8997 954.8971,-440.8997 954.8971,-449.1003 954.8971,-449.1003 954.8971,-453.2005 950.7969,-457.3008 946.6966,-457.3008"/>
<text text-anchor="middle" x="881.6886" y="-440.8" font-family="Times,serif" font-size="14.00" fill="#000000">Layer.handle_request()</text>
</g>
<!-- proto.stack&#45;&gt;Layer.handle_request() -->
<g id="edge6" class="edge">
<title>proto.stack&#45;&gt;Layer.handle_request()</title>
<path fill="none" stroke="#ffc0cb" d="M518.0113,-756.7229C586.3086,-743.4364 726.5498,-705.5337 790.5844,-611 807.4552,-586.0939 782.6237,-500.132 800.5844,-476 804.5416,-470.6831 809.532,-466.2781 815.0839,-462.6286"/>
<polygon fill="#ffc0cb" stroke="#ffc0cb" points="817.207,-465.4499 824.2028,-457.4931 813.772,-459.3506 817.207,-465.4499"/>
<text text-anchor="middle" x="701.3947" y="-711.2" font-family="Times,serif" font-size="14.00" fill="#000000">请求</text>
</g>
<!-- proto.param() -->
<g id="node6" class="node">
<title>proto.param()</title>
<path fill="#e5e5e5" stroke="#000000" d="M128.5411,-941.3008C128.5411,-941.3008 51.2353,-941.3008 51.2353,-941.3008 47.135,-941.3008 43.0347,-937.2005 43.0347,-933.1003 43.0347,-933.1003 43.0347,-924.8997 43.0347,-924.8997 43.0347,-920.7995 47.135,-916.6992 51.2353,-916.6992 51.2353,-916.6992 128.5411,-916.6992 128.5411,-916.6992 132.6414,-916.6992 136.7417,-920.7995 136.7417,-924.8997 136.7417,-924.8997 136.7417,-933.1003 136.7417,-933.1003 136.7417,-937.2005 132.6414,-941.3008 128.5411,-941.3008"/>
<text text-anchor="middle" x="89.8882" y="-924.8" font-family="Times,serif" font-size="14.00" fill="#000000">proto.param()</text>
</g>
<!-- proto.param()&#45;&gt;proto.params -->
<g id="edge3" class="edge">
<title>proto.param()&#45;&gt;proto.params</title>
<path fill="none" stroke="#000000" d="M136.8351,-929C208.9569,-929 346.7191,-929 423.6459,-929"/>
<polygon fill="#000000" stroke="#000000" points="424.0838,-932.5001 434.0837,-929 424.0837,-925.5001 424.0838,-932.5001"/>
<text text-anchor="middle" x="316.8406" y="-933.2" font-family="Times,serif" font-size="14.00" fill="#000000">set</text>
</g>
<!-- proto.handle() -->
<g id="node7" class="node">
<title>proto.handle()</title>
<path fill="#e5e5e5" stroke="#000000" d="M129.3804,-880.3008C129.3804,-880.3008 50.396,-880.3008 50.396,-880.3008 46.2958,-880.3008 42.1955,-876.2005 42.1955,-872.1003 42.1955,-872.1003 42.1955,-863.8997 42.1955,-863.8997 42.1955,-859.7995 46.2958,-855.6992 50.396,-855.6992 50.396,-855.6992 129.3804,-855.6992 129.3804,-855.6992 133.4806,-855.6992 137.5809,-859.7995 137.5809,-863.8997 137.5809,-863.8997 137.5809,-872.1003 137.5809,-872.1003 137.5809,-876.2005 133.4806,-880.3008 129.3804,-880.3008"/>
<text text-anchor="middle" x="89.8882" y="-863.8" font-family="Times,serif" font-size="14.00" fill="#000000">proto.handle()</text>
</g>
<!-- proto.handle()&#45;&gt;proto.stack -->
<g id="edge4" class="edge">
<title>proto.handle()&#45;&gt;proto.stack</title>
<path fill="none" stroke="#ffc0cb" d="M135.6791,-855.6464C209.6215,-835.698 354.664,-796.5681 430.4118,-776.1326"/>
<polygon fill="#ffc0cb" stroke="#ffc0cb" points="431.4397,-779.4805 440.1828,-773.4966 429.6163,-772.7222 431.4397,-779.4805"/>
<text text-anchor="middle" x="316.8406" y="-833.2" font-family="Times,serif" font-size="14.00" fill="#000000">消费</text>
</g>
<!-- proto.process_params() -->
<g id="node8" class="node">
<title>proto.process_params()</title>
<path fill="#e5e5e5" stroke="#000000" d="M155.4642,-819.3008C155.4642,-819.3008 24.3122,-819.3008 24.3122,-819.3008 20.2119,-819.3008 16.1116,-815.2005 16.1116,-811.1003 16.1116,-811.1003 16.1116,-802.8997 16.1116,-802.8997 16.1116,-798.7995 20.2119,-794.6992 24.3122,-794.6992 24.3122,-794.6992 155.4642,-794.6992 155.4642,-794.6992 159.5645,-794.6992 163.6648,-798.7995 163.6648,-802.8997 163.6648,-802.8997 163.6648,-811.1003 163.6648,-811.1003 163.6648,-815.2005 159.5645,-819.3008 155.4642,-819.3008"/>
<text text-anchor="middle" x="89.8882" y="-802.8" font-family="Times,serif" font-size="14.00" fill="#000000">proto.process_params()</text>
</g>
<!-- proto.use() -->
<g id="node9" class="node">
<title>proto.use()</title>
<path fill="#e5e5e5" stroke="#000000" d="M120.2193,-636.3008C120.2193,-636.3008 59.5571,-636.3008 59.5571,-636.3008 55.4569,-636.3008 51.3566,-632.2005 51.3566,-628.1003 51.3566,-628.1003 51.3566,-619.8997 51.3566,-619.8997 51.3566,-615.7995 55.4569,-611.6992 59.5571,-611.6992 59.5571,-611.6992 120.2193,-611.6992 120.2193,-611.6992 124.3195,-611.6992 128.4198,-615.7995 128.4198,-619.8997 128.4198,-619.8997 128.4198,-628.1003 128.4198,-628.1003 128.4198,-632.2005 124.3195,-636.3008 120.2193,-636.3008"/>
<text text-anchor="middle" x="89.8882" y="-619.8" font-family="Times,serif" font-size="14.00" fill="#000000">proto.use()</text>
</g>
<!-- proto.use()&#45;&gt;proto.stack -->
<g id="edge8" class="edge">
<title>proto.use()&#45;&gt;proto.stack</title>
<path fill="none" stroke="#00ff00" d="M128.6846,-635.5006C187.4439,-653.231 302.239,-689.0932 397.3522,-726.2 412.7838,-732.2204 429.5131,-739.596 443.7934,-746.1592"/>
<polygon fill="#00ff00" stroke="#00ff00" points="442.6984,-749.5097 453.2424,-750.5466 445.6464,-743.1607 442.6984,-749.5097"/>
<text text-anchor="middle" x="316.8406" y="-730.2" font-family="Times,serif" font-size="14.00" fill="#000000">2.push</text>
</g>
<!-- Layer -->
<g id="node14" class="node">
<title>Layer</title>
<path fill="#e5e5e5" stroke="#000000" d="M897.6318,-396.3008C897.6318,-396.3008 865.7454,-396.3008 865.7454,-396.3008 861.6452,-396.3008 857.5449,-392.2005 857.5449,-388.1003 857.5449,-388.1003 857.5449,-379.8997 857.5449,-379.8997 857.5449,-375.7995 861.6452,-371.6992 865.7454,-371.6992 865.7454,-371.6992 897.6318,-371.6992 897.6318,-371.6992 901.732,-371.6992 905.8323,-375.7995 905.8323,-379.8997 905.8323,-379.8997 905.8323,-388.1003 905.8323,-388.1003 905.8323,-392.2005 901.732,-396.3008 897.6318,-396.3008"/>
<text text-anchor="middle" x="881.6886" y="-379.8" font-family="Times,serif" font-size="14.00" fill="#000000">Layer</text>
</g>
<!-- proto.use()&#45;&gt;Layer -->
<g id="edge7" class="edge">
<title>proto.use()&#45;&gt;Layer</title>
<path fill="none" stroke="#00ff00" d="M91.3111,-611.4715C100.2226,-534.9376 150.5046,-130.6534 228.329,-38 255.8636,-5.2189 274.03,0 316.8406,0 316.8406,0 316.8406,0 701.3947,0 726.6486,0 731.3435,-15.9419 743.6398,-38 752.2988,-53.5332 789.2333,-339.3102 800.5844,-353 812.2176,-367.0299 830.9532,-374.7223 847.4876,-378.9339"/>
<polygon fill="#00ff00" stroke="#00ff00" points="846.8948,-382.3873 857.415,-381.1319 848.4081,-375.5528 846.8948,-382.3873"/>
<text text-anchor="middle" x="479.0903" y="-4.2" font-family="Times,serif" font-size="14.00" fill="#000000">1.new</text>
</g>
<!-- proto.route() -->
<g id="node10" class="node">
<title>proto.route()</title>
<path fill="#e5e5e5" stroke="#000000" d="M125.326,-758.3008C125.326,-758.3008 54.4504,-758.3008 54.4504,-758.3008 50.3502,-758.3008 46.2499,-754.2005 46.2499,-750.1003 46.2499,-750.1003 46.2499,-741.8997 46.2499,-741.8997 46.2499,-737.7995 50.3502,-733.6992 54.4504,-733.6992 54.4504,-733.6992 125.326,-733.6992 125.326,-733.6992 129.4262,-733.6992 133.5265,-737.7995 133.5265,-741.8997 133.5265,-741.8997 133.5265,-750.1003 133.5265,-750.1003 133.5265,-754.2005 129.4262,-758.3008 125.326,-758.3008"/>
<text text-anchor="middle" x="89.8882" y="-741.8" font-family="Times,serif" font-size="14.00" fill="#000000">proto.route()</text>
</g>
<!-- proto.route()&#45;&gt;proto.stack -->
<g id="edge12" class="edge">
<title>proto.route()&#45;&gt;proto.stack</title>
<path fill="none" stroke="#ff0000" d="M133.7781,-747.9171C206.8783,-751.11 353.0842,-757.4962 429.6874,-760.8421"/>
<polygon fill="#ff0000" stroke="#ff0000" points="429.8764,-764.3536 440.0196,-761.2934 430.1819,-757.3603 429.8764,-764.3536"/>
<text text-anchor="middle" x="316.8406" y="-763.2" font-family="Times,serif" font-size="14.00" fill="#000000">3.push</text>
</g>
<!-- proto.route()&#45;&gt;Layer -->
<g id="edge10" class="edge">
<title>proto.route()&#45;&gt;Layer</title>
<path fill="none" stroke="#ff0000" d="M126.0092,-733.5808C138.417,-728.6132 152.1102,-722.3189 163.7764,-715 239.8723,-667.2604 227.0093,-583 316.8406,-583 316.8406,-583 316.8406,-583 701.3947,-583 755.8474,-583 767.3301,-548.2375 790.5844,-499 806.6404,-465.0039 777.4708,-444.6529 800.5844,-415 811.8657,-400.527 830.7575,-392.8087 847.4709,-388.6937"/>
<polygon fill="#ff0000" stroke="#ff0000" points="848.4499,-392.0641 857.5083,-386.5691 847.0003,-385.2159 848.4499,-392.0641"/>
<text text-anchor="middle" x="479.0903" y="-587.2" font-family="Times,serif" font-size="14.00" fill="#000000">2.new</text>
</g>
<!-- Route -->
<g id="node15" class="node">
<title>Route</title>
<path fill="#e5e5e5" stroke="#000000" d="M333.5839,-506.3008C333.5839,-506.3008 300.0973,-506.3008 300.0973,-506.3008 295.9971,-506.3008 291.8968,-502.2005 291.8968,-498.1003 291.8968,-498.1003 291.8968,-489.8997 291.8968,-489.8997 291.8968,-485.7995 295.9971,-481.6992 300.0973,-481.6992 300.0973,-481.6992 333.5839,-481.6992 333.5839,-481.6992 337.6841,-481.6992 341.7844,-485.7995 341.7844,-489.8997 341.7844,-489.8997 341.7844,-498.1003 341.7844,-498.1003 341.7844,-502.2005 337.6841,-506.3008 333.5839,-506.3008"/>
<text text-anchor="middle" x="316.8406" y="-489.8" font-family="Times,serif" font-size="14.00" fill="#000000">Route</text>
</g>
<!-- proto.route()&#45;&gt;Route -->
<g id="edge9" class="edge">
<title>proto.route()&#45;&gt;Route</title>
<path fill="none" stroke="#ff0000" d="M133.7867,-736.3368C145.2317,-731.7272 156.4074,-724.9491 163.7764,-715 210.787,-651.5298 132.2351,-599.7152 181.7764,-538.2 205.8296,-508.3333 250.4635,-498.4402 281.8205,-495.2766"/>
<polygon fill="#ff0000" stroke="#ff0000" points="282.2195,-498.7556 291.8967,-494.4426 281.642,-491.7795 282.2195,-498.7556"/>
<text text-anchor="middle" x="200.0527" y="-542.2" font-family="Times,serif" font-size="14.00" fill="#000000">1.new</text>
</g>
<!-- Route.dispatch() -->
<g id="node16" class="node">
<title>Route.dispatch()</title>
<path fill="#e5e5e5" stroke="#000000" d="M363.0581,-445.3008C363.0581,-445.3008 270.6231,-445.3008 270.6231,-445.3008 266.5228,-445.3008 262.4226,-441.2005 262.4226,-437.1003 262.4226,-437.1003 262.4226,-428.8997 262.4226,-428.8997 262.4226,-424.7995 266.5228,-420.6992 270.6231,-420.6992 270.6231,-420.6992 363.0581,-420.6992 363.0581,-420.6992 367.1584,-420.6992 371.2586,-424.7995 371.2586,-428.8997 371.2586,-428.8997 371.2586,-437.1003 371.2586,-437.1003 371.2586,-441.2005 367.1584,-445.3008 363.0581,-445.3008"/>
<text text-anchor="middle" x="316.8406" y="-428.8" font-family="Times,serif" font-size="14.00" fill="#000000">Route.dispatch()</text>
</g>
<!-- proto.route()&#45;&gt;Route.dispatch() -->
<g id="edge11" class="edge">
<title>proto.route()&#45;&gt;Route.dispatch()</title>
<path fill="none" stroke="#ff0000" d="M133.5493,-736.5999C145.1327,-731.9908 156.4423,-725.1469 163.7764,-715 193.7826,-673.4857 152.3981,-527.161 181.7764,-485.2 197.9492,-462.1004 225.8799,-449.2219 252.1599,-442.0423"/>
<polygon fill="#ff0000" stroke="#ff0000" points="253.2658,-445.3738 262.1231,-439.5602 251.5736,-438.5814 253.2658,-445.3738"/>
<text text-anchor="middle" x="200.0527" y="-489.2" font-family="Times,serif" font-size="14.00" fill="#000000">3.回调</text>
</g>
<!-- proto.methods() -->
<g id="node11" class="node">
<title>proto.methods()</title>
<path fill="#e5e5e5" stroke="#000000" d="M134.5006,-697.3008C134.5006,-697.3008 45.2758,-697.3008 45.2758,-697.3008 41.1755,-697.3008 37.0752,-693.2005 37.0752,-689.1003 37.0752,-689.1003 37.0752,-680.8997 37.0752,-680.8997 37.0752,-676.7995 41.1755,-672.6992 45.2758,-672.6992 45.2758,-672.6992 134.5006,-672.6992 134.5006,-672.6992 138.6009,-672.6992 142.7012,-676.7995 142.7012,-680.8997 142.7012,-680.8997 142.7012,-689.1003 142.7012,-689.1003 142.7012,-693.2005 138.6009,-697.3008 134.5006,-697.3008"/>
<text text-anchor="middle" x="89.8882" y="-680.8" font-family="Times,serif" font-size="14.00" fill="#000000">proto.methods()</text>
</g>
<!-- Route.methods() -->
<g id="node17" class="node">
<title>Route.methods()</title>
<path fill="#e5e5e5" stroke="#000000" d="M363.3439,-384.3008C363.3439,-384.3008 270.3373,-384.3008 270.3373,-384.3008 266.2371,-384.3008 262.1368,-380.2005 262.1368,-376.1003 262.1368,-376.1003 262.1368,-367.8997 262.1368,-367.8997 262.1368,-363.7995 266.2371,-359.6992 270.3373,-359.6992 270.3373,-359.6992 363.3439,-359.6992 363.3439,-359.6992 367.4441,-359.6992 371.5444,-363.7995 371.5444,-367.8997 371.5444,-367.8997 371.5444,-376.1003 371.5444,-376.1003 371.5444,-380.2005 367.4441,-384.3008 363.3439,-384.3008"/>
<text text-anchor="middle" x="316.8406" y="-367.8" font-family="Times,serif" font-size="14.00" fill="#000000">Route.methods()</text>
</g>
<!-- proto.methods()&#45;&gt;Route.methods() -->
<g id="edge13" class="edge">
<title>proto.methods()&#45;&gt;Route.methods()</title>
<path fill="none" stroke="#000000" d="M140.3856,-672.5206C149.45,-668.0866 157.8761,-662.0936 163.7764,-654 191.1074,-616.5098 161.359,-487.6608 181.7764,-446 195.9951,-416.9874 226.8845,-398.8763 255.5384,-387.8394"/>
<polygon fill="#000000" stroke="#000000" points="256.9315,-391.0574 265.1428,-384.3622 254.5485,-384.4755 256.9315,-391.0574"/>
</g>
<!-- 相同path为同一层 -->
<g id="node18" class="node">
<title>相同path为同一层</title>
<path fill="#e5e5e5" stroke="#000000" d="M1134.2948,-396.3008C1134.2948,-396.3008 1038.0924,-396.3008 1038.0924,-396.3008 1033.9921,-396.3008 1029.8918,-392.2005 1029.8918,-388.1003 1029.8918,-388.1003 1029.8918,-379.8997 1029.8918,-379.8997 1029.8918,-375.7995 1033.9921,-371.6992 1038.0924,-371.6992 1038.0924,-371.6992 1134.2948,-371.6992 1134.2948,-371.6992 1138.3951,-371.6992 1142.4954,-375.7995 1142.4954,-379.8997 1142.4954,-379.8997 1142.4954,-388.1003 1142.4954,-388.1003 1142.4954,-392.2005 1138.3951,-396.3008 1134.2948,-396.3008"/>
<text text-anchor="middle" x="1086.1936" y="-379.8" font-family="Times,serif" font-size="14.00" fill="#000000">相同path为同一层</text>
</g>
<!-- Layer&#45;&gt;相同path为同一层 -->
<g id="edge14" class="edge">
<title>Layer&#45;&gt;相同path为同一层</title>
<path fill="none" stroke="#000000" d="M905.9511,-384C933.7286,-384 980.4111,-384 1019.307,-384"/>
<polygon fill="#000000" stroke="#000000" points="1019.5289,-387.5001 1029.5288,-384 1019.5288,-380.5001 1019.5289,-387.5001"/>
</g>
<!-- this.stack -->
<g id="node22" class="node">
<title>this.stack</title>
<path fill="#e5e5e5" stroke="#000000" d="M727.6861,-412.3008C727.6861,-412.3008 675.1033,-412.3008 675.1033,-412.3008 671.003,-412.3008 666.9027,-408.2005 666.9027,-404.1003 666.9027,-404.1003 666.9027,-395.8997 666.9027,-395.8997 666.9027,-391.7995 671.003,-387.6992 675.1033,-387.6992 675.1033,-387.6992 727.6861,-387.6992 727.6861,-387.6992 731.7864,-387.6992 735.8867,-391.7995 735.8867,-395.8997 735.8867,-395.8997 735.8867,-404.1003 735.8867,-404.1003 735.8867,-408.2005 731.7864,-412.3008 727.6861,-412.3008"/>
<text text-anchor="middle" x="701.3947" y="-395.8" font-family="Times,serif" font-size="14.00" fill="#000000">this.stack</text>
</g>
<!-- Layer&#45;&gt;this.stack -->
<g id="edge16" class="edge">
<title>Layer&#45;&gt;this.stack</title>
<path fill="none" stroke="#0000ff" d="M857.4264,-379.8274C839.7773,-375.6847 816.3139,-367.7391 800.5844,-353 792.806,-345.7114 799.5567,-336.9555 790.5844,-331.2 776.7637,-322.3344 768.348,-323.9007 753.6398,-331.2 734.0589,-340.9175 719.8393,-361.871 711.2233,-378.1165"/>
<polygon fill="#0000ff" stroke="#0000ff" points="707.8872,-376.9663 706.5849,-387.4808 714.1599,-380.0733 707.8872,-376.9663"/>
<text text-anchor="middle" x="772.1121" y="-335.2" font-family="Times,serif" font-size="14.00" fill="#000000">2.push</text>
</g>
<!-- Route.dispatch()&#45;&gt;this.stack -->
<g id="edge17" class="edge">
<title>Route.dispatch()&#45;&gt;this.stack</title>
<path fill="none" stroke="#ffff00" d="M371.5294,-428.307C448.1554,-421.7314 586.0026,-409.9022 656.7846,-403.8282"/>
<polygon fill="#ffff00" stroke="#ffff00" points="657.4736,-407.282 667.1377,-402.9397 656.875,-400.3076 657.4736,-407.282"/>
<text text-anchor="middle" x="479.0903" y="-426.2" font-family="Times,serif" font-size="14.00" fill="#000000">消费</text>
</g>
<!-- Route.methods()&#45;&gt;Layer -->
<g id="edge15" class="edge">
<title>Route.methods()&#45;&gt;Layer</title>
<path fill="none" stroke="#0000ff" d="M361.1249,-384.406C373.5178,-389.0758 386.5424,-395.1993 397.3522,-403 418.3486,-418.1516 411.3163,-436.1776 434.3522,-448 560.8748,-512.9334 611.5043,-464.3308 753.6398,-469 770.0508,-469.5391 777.9609,-479.5004 790.5844,-469 809.3492,-453.3911 784.9649,-433.7559 800.5844,-415 812.2475,-400.9949 830.9848,-393.304 847.5126,-389.0869"/>
<polygon fill="#0000ff" stroke="#0000ff" points="848.4309,-392.4683 857.435,-386.8847 846.9141,-385.6346 848.4309,-392.4683"/>
<text text-anchor="middle" x="595.489" y="-486.2" font-family="Times,serif" font-size="14.00" fill="#000000">1.使用构造函数</text>
</g>
<!-- Layer.match() -->
<g id="node19" class="node">
<title>Layer.match()</title>
<path fill="#e5e5e5" stroke="#000000" d="M921.1626,-335.3008C921.1626,-335.3008 842.2146,-335.3008 842.2146,-335.3008 838.1143,-335.3008 834.014,-331.2005 834.014,-327.1003 834.014,-327.1003 834.014,-318.8997 834.014,-318.8997 834.014,-314.7995 838.1143,-310.6992 842.2146,-310.6992 842.2146,-310.6992 921.1626,-310.6992 921.1626,-310.6992 925.2629,-310.6992 929.3632,-314.7995 929.3632,-318.8997 929.3632,-318.8997 929.3632,-327.1003 929.3632,-327.1003 929.3632,-331.2005 925.2629,-335.3008 921.1626,-335.3008"/>
<text text-anchor="middle" x="881.6886" y="-318.8" font-family="Times,serif" font-size="14.00" fill="#000000">Layer.match()</text>
</g>
<!-- Layer.decode_param() -->
<g id="node20" class="node">
<title>Layer.decode_param()</title>
<path fill="#e5e5e5" stroke="#000000" d="M945.0759,-274.3008C945.0759,-274.3008 818.3013,-274.3008 818.3013,-274.3008 814.201,-274.3008 810.1008,-270.2005 810.1008,-266.1003 810.1008,-266.1003 810.1008,-257.8997 810.1008,-257.8997 810.1008,-253.7995 814.201,-249.6992 818.3013,-249.6992 818.3013,-249.6992 945.0759,-249.6992 945.0759,-249.6992 949.1762,-249.6992 953.2764,-253.7995 953.2764,-257.8997 953.2764,-257.8997 953.2764,-266.1003 953.2764,-266.1003 953.2764,-270.2005 949.1762,-274.3008 945.0759,-274.3008"/>
<text text-anchor="middle" x="881.6886" y="-257.8" font-family="Times,serif" font-size="14.00" fill="#000000">Layer.decode_param()</text>
</g>
<!-- this.path -->
<g id="node21" class="node">
<title>this.path</title>
<path fill="#e5e5e5" stroke="#000000" d="M340.4713,-323.3008C340.4713,-323.3008 293.2099,-323.3008 293.2099,-323.3008 289.1096,-323.3008 285.0094,-319.2005 285.0094,-315.1003 285.0094,-315.1003 285.0094,-306.8997 285.0094,-306.8997 285.0094,-302.7995 289.1096,-298.6992 293.2099,-298.6992 293.2099,-298.6992 340.4713,-298.6992 340.4713,-298.6992 344.5716,-298.6992 348.6718,-302.7995 348.6718,-306.8997 348.6718,-306.8997 348.6718,-315.1003 348.6718,-315.1003 348.6718,-319.2005 344.5716,-323.3008 340.4713,-323.3008"/>
<text text-anchor="middle" x="316.8406" y="-306.8" font-family="Times,serif" font-size="14.00" fill="#000000">this.path</text>
</g>
<!-- this.stack&#45;&gt;Layer.handle_error() -->
<g id="edge18" class="edge">
<title>this.stack&#45;&gt;Layer.handle_error()</title>
<path fill="none" stroke="#ffff00" d="M715.2936,-412.5487C733.7147,-428.6827 767.7313,-456.7847 800.5844,-475 810.7809,-480.6534 822.2193,-485.7204 833.2184,-490.0393"/>
<polygon fill="#ffff00" stroke="#ffff00" points="832.1375,-493.3724 842.729,-493.638 834.6149,-486.8254 832.1375,-493.3724"/>
<text text-anchor="middle" x="772.1121" y="-472.2" font-family="Times,serif" font-size="14.00" fill="#000000">异常</text>
</g>
<!-- this.stack&#45;&gt;Layer.handle_request() -->
<g id="edge19" class="edge">
<title>this.stack&#45;&gt;Layer.handle_request()</title>
<path fill="none" stroke="#ffff00" d="M728.9947,-387.6935C747.8645,-381.2967 772.6147,-377.0703 790.5844,-389.2 800.4348,-395.8491 792.1047,-405.6732 800.5844,-414 806.4075,-419.7181 813.3951,-424.4041 820.7942,-428.2389"/>
<polygon fill="#ffff00" stroke="#ffff00" points="819.7848,-431.6284 830.3298,-432.6545 822.7262,-425.2764 819.7848,-431.6284"/>
<text text-anchor="middle" x="772.1121" y="-393.2" font-family="Times,serif" font-size="14.00" fill="#000000">请求</text>
</g>
<!-- this.methods -->
<g id="node23" class="node">
<title>this.methods</title>
<path fill="#e5e5e5" stroke="#000000" d="M352.3064,-262.3008C352.3064,-262.3008 281.3748,-262.3008 281.3748,-262.3008 277.2745,-262.3008 273.1742,-258.2005 273.1742,-254.1003 273.1742,-254.1003 273.1742,-245.8997 273.1742,-245.8997 273.1742,-241.7995 277.2745,-237.6992 281.3748,-237.6992 281.3748,-237.6992 352.3064,-237.6992 352.3064,-237.6992 356.4067,-237.6992 360.507,-241.7995 360.507,-245.8997 360.507,-245.8997 360.507,-254.1003 360.507,-254.1003 360.507,-258.2005 356.4067,-262.3008 352.3064,-262.3008"/>
<text text-anchor="middle" x="316.8406" y="-245.8" font-family="Times,serif" font-size="14.00" fill="#000000">this.methods</text>
</g>
<!-- Route._handles_method() -->
<g id="node24" class="node">
<title>Route._handles_method()</title>
<path fill="#e5e5e5" stroke="#000000" d="M389.1633,-201.3008C389.1633,-201.3008 244.5179,-201.3008 244.5179,-201.3008 240.4177,-201.3008 236.3174,-197.2005 236.3174,-193.1003 236.3174,-193.1003 236.3174,-184.8997 236.3174,-184.8997 236.3174,-180.7995 240.4177,-176.6992 244.5179,-176.6992 244.5179,-176.6992 389.1633,-176.6992 389.1633,-176.6992 393.2635,-176.6992 397.3638,-180.7995 397.3638,-184.8997 397.3638,-184.8997 397.3638,-193.1003 397.3638,-193.1003 397.3638,-197.2005 393.2635,-201.3008 389.1633,-201.3008"/>
<text text-anchor="middle" x="316.8406" y="-184.8" font-family="Times,serif" font-size="14.00" fill="#000000">Route._handles_method()</text>
</g>
<!-- Route._options() -->
<g id="node25" class="node">
<title>Route._options()</title>
<path fill="#e5e5e5" stroke="#000000" d="M364.13,-140.3008C364.13,-140.3008 269.5512,-140.3008 269.5512,-140.3008 265.451,-140.3008 261.3507,-136.2005 261.3507,-132.1003 261.3507,-132.1003 261.3507,-123.8997 261.3507,-123.8997 261.3507,-119.7995 265.451,-115.6992 269.5512,-115.6992 269.5512,-115.6992 364.13,-115.6992 364.13,-115.6992 368.2302,-115.6992 372.3305,-119.7995 372.3305,-123.8997 372.3305,-123.8997 372.3305,-132.1003 372.3305,-132.1003 372.3305,-136.2005 368.2302,-140.3008 364.13,-140.3008"/>
<text text-anchor="middle" x="316.8406" y="-123.8" font-family="Times,serif" font-size="14.00" fill="#000000">Route._options()</text>
</g>
<!-- Route.all() -->
<g id="node26" class="node">
<title>Route.all()</title>
<path fill="#e5e5e5" stroke="#000000" d="M346.8993,-79.3008C346.8993,-79.3008 286.7819,-79.3008 286.7819,-79.3008 282.6816,-79.3008 278.5814,-75.2005 278.5814,-71.1003 278.5814,-71.1003 278.5814,-62.8997 278.5814,-62.8997 278.5814,-58.7995 282.6816,-54.6992 286.7819,-54.6992 286.7819,-54.6992 346.8993,-54.6992 346.8993,-54.6992 350.9996,-54.6992 355.0998,-58.7995 355.0998,-62.8997 355.0998,-62.8997 355.0998,-71.1003 355.0998,-71.1003 355.0998,-75.2005 350.9996,-79.3008 346.8993,-79.3008"/>
<text text-anchor="middle" x="316.8406" y="-62.8" font-family="Times,serif" font-size="14.00" fill="#000000">Route.all()</text>
</g>
</g>
</svg>
